<ttFont>
          <CharString index="0">
            385 hmoveto
            -102 callsubr
            9 -8 5 -8 vhcurveto
            -220 hlineto
            11 149 rlineto
            87 hlineto
            -97 callgsubr
            10 -8 4 -8 vhcurveto
            -352 hlineto
            43 callsubr
            hvcurveto
            -78 callgsubr
            return
          </CharString>
          <CharString index="1">
            rmoveto
            -24 -4 0 -19 -11 hvcurveto
            -42 -75 -184 -460 -90 vvcurveto
            -48 52 -18 43 vhcurveto
            53 hlineto
            11 9 6 10 3 hvcurveto
            33 138 rlineto
            174 hlineto
            -96 11 11 -58 115 hhcurveto
            51 hlineto
            18 9 5 19 33 -27 111 -107 431 hvcurveto
            57 -14 -18 54 -67 hhcurveto
            -47 -147 rmoveto
            42 -264 rlineto
            -115 hlineto
            return
          </CharString>
          <CharString index="2">
            -28 1 -55 -70 hhcurveto
            -68 -27 51 51 hvcurveto
            65 248 10 183 82 -49 68 -139 -258 -39 -235 -101 -182 128 -52 116 hvcurveto
            19 437 rmoveto
            34 17 -25 -27 -49 -57 -28 -82 -1 hvcurveto
            57 7 22 73 59 hhcurveto
            return
          </CharString>
          <CharString index="3">
            -39 23 -19 45 58 32 34 44 35 -21 23 -48 -54 -35 -30 -48 vhcurveto
            228 hmoveto
            -39 23 -19 45 58 32 34 44 35 -21 23 -48 -54 -35 -30 -48 vhcurveto
            endchar
          </CharString>
          <CharString index="4">
            rmoveto
            18 37 37 6 6 -47 79 -43 71 hvcurveto
            12 -7 -29 3 -17 hhcurveto
            -25 -33 -6 -9 -8 hvcurveto
            -57 -63 -75 -83 -10 vvcurveto
            -7 32 -36 18 21 61 50 52 53 vhcurveto
            -52 36 43 -50 22 hhcurveto
            endchar
          </CharString>
          <CharString index="5">
            -100 callgsubr
            59 rlineto
            return
          </CharString>
          <CharString index="6">
            577 107 rmoveto
            -31 333 1 10 -9 27 rrcurveto
            67 -17 -64 6 -82 hhcurveto
            -32 -18 -7 -17 -3 hvcurveto
            -46 -260 15 88 -48 -247 -8 104 -12 220 -4 36 rrcurveto
            69 -9 -46 14 -116 hhcurveto
            -19 -13 -11 -12 -10 37 -146 73 -284 hvcurveto
            -44 11 32 -43 68 hhcurveto
            70 hlineto
            19 9 2 13 6 hvcurveto
            15 33 45 291 19 88 12 -155 16 -117 13 -68 rrcurveto
            -47 9 18 -40 74 hhcurveto
            59 hlineto
            25 7 6 24 10 hvcurveto
            49 120 116 274 63 vvcurveto
            return
          </CharString>
          <CharString index="7">
            581 hmoveto
            9 9 5 11 hvcurveto
            4 29 37 470 98 vvcurveto
            61 -14 36 -87 vhcurveto
            -55 hlineto
            -12 -5 -4 -5 hvcurveto
            -118 3 -181 -158 vvcurveto
            -41 93 -17 34 -98 247 rrcurveto
            48 -19 -17 44 -89 hhcurveto
            -80 hlineto
            -12 -4 -4 -11 hvcurveto
            -2 -64 -4 -52 -16 -202 rrcurveto
            return
          </CharString>
          <CharString index="8">
            rmoveto
            -18 -37 -37 -6 -6 52 -63 48 -57 hvcurveto
            -12 7 29 -3 17 hhcurveto
            29 37 6 9 10 hvcurveto
            56 51 76 68 7 vvcurveto
            7 -32 36 -18 -23 -65 -40 -42 -57 vhcurveto
            42 -40 -47 40 -24 hhcurveto
            endchar
          </CharString>
          <CharString index="9">
            -86 callgsubr
            -214 hlineto
            104 143 123 143 9 13 12 18 7 18 1 17 4 54 rcurveline
            10 -8 4 42 callgsubr
            -3 -46 rlineto
            -9 0 -5 11 vhcurveto
            188 hlineto
            -164 -243 -88 -39 -4 -73 -3 -54 rcurveline
            -68 callgsubr
            return
          </CharString>
          <CharString index="10">
            60 13 27 40 3 hvcurveto
            return
          </CharString>
          <CharString index="11">
            rmoveto
            -18 -37 -36 -7 -8 47 -72 43 -66 hvcurveto
            -12 7 27 -3 19 hhcurveto
            25 33 6 9 8 hvcurveto
            57 59 75 78 9 vvcurveto
            7 -32 36 -18 -21 -61 -45 -47 -53 vhcurveto
            47 -36 -43 45 -22 hhcurveto
            endchar
          </CharString>
          <CharString index="12">
            rmoveto
            -38 23 -18 43 59 32 32 43 35 -20 22 -47 -55 -35 -29 -47 vhcurveto
            endchar
          </CharString>
          <CharString index="13">
            -59 callsubr
            9 hvcurveto
            -2 143 -4 144 -1 143 62 -132 59 -129 69 -142 rrcurveto
            -24 12 24 -18 54 hhcurveto
            return
          </CharString>
          <CharString index="14">
            224 -10 rmoveto
            73 49 35 51 24 hvcurveto
            -61 43 -15 57 vhcurveto
            36 hlineto
            19 1 4 16 2 hvcurveto
            6 60 42 572 2 vvcurveto
            45 -24 41 -80 vhcurveto
            -39 hlineto
            -11 -2 0 -3 -3 hvcurveto
            -3 -3 -1 -7 -1 -16 -5 -84 -5 -41 -5 -104 rrcurveto
            57 -11 -42 21 -66 hhcurveto
            -208 -40 -209 -116 -172 89 -73 105 hvcurveto
            87 437 rmoveto
            67 14 -63 -67 -119 -44 -55 -57 -65 -15 71 69 100 32 64 68 hvcurveto
            return
          </CharString>
          <CharString index="15">
            77 -9 -37 30 -111 hhcurveto
            -45 -10 -5 -22 -34 25 -103 108 -435 hvcurveto
            -57 14 18 -56 67 hhcurveto
            95 hlineto
            16 16 5 14 7 hvcurveto
            20 41 45 324 24 178 50 -449 rcurveline
            -55 6 25 -58 68 hhcurveto
            95 hlineto
            14 17 5 14 8 hvcurveto
            24 42 142 487 86 vvcurveto
            return
          </CharString>
          <CharString index="16">
            -39 -89 callsubr
            return
          </CharString>
          <CharString index="17">
            hstemhm
            48 165 -144 163 140 161 hintmask 10111011
            -43 callsubr
            hintmask 10111101
            -56 callgsubr
            hintmask 01111101
            -93 callgsubr
            hintmask 10111011
            41 19 117 61 vvcurveto
            return
          </CharString>
          <CharString index="18">
            hlineto
            -9 -4 0 -3 -3 hvcurveto
            -3 -3 -1 -7 -1 -16 rrcurveto
            return
          </CharString>
          <CharString index="19">
            -21 -294 -9 -91 -41 58 callsubr
            82 vhcurveto
            return
          </CharString>
          <CharString index="20">
            rmoveto
            -131 -40 -93 -93 -80 30 -63 104 140 26 120 72 86 -37 51 -92 hvcurveto
            -10 -85 rmoveto
            25 10 -21 -35 -32 -9 -71 -44 -26 -13 20 44 31 6 64 51 hvcurveto
            return
          </CharString>
          <CharString index="21">
            205 -52 callgsubr
            1 12 8 102 8 118 17 -4 19 -2 23 -1 rrcurveto
            -130 31 40 -120 84 hhcurveto
            78 48 57 18 12 -16 23 -31 45 hvcurveto
            -84 120 rlineto
            90 42 40 87 103 vvcurveto
            135 -68 88 -172 vhcurveto
            return
          </CharString>
          <CharString index="22">
            -70 callsubr
            331 23 26 75 92 hhcurveto
            48 13 -32 -35 hvcurveto
            return
          </CharString>
          <CharString index="23">
            hstemhm
            31 186 -162 162 97 -26 callsubr
            hintmask 1011011000000000
            326 -64 callsubr
            hintmask 0111100100000000
            -83 callgsubr
            hintmask 1011100010000000
            -15 callsubr
            return
          </CharString>
          <CharString index="24">
            -4 -73 -29 -291 -89 vvcurveto
            -131 67 -106 174 255 38 216 120 12 vhcurveto
            return
          </CharString>
          <CharString index="25">
            -65 callgsubr
            -18 49 callgsubr
            hvcurveto
            return
          </CharString>
          <CharString index="26">
            -66 callsubr
            -105 hlineto
            2 26 1 20 13 vvcurveto
            48 -18 40 -56 vhcurveto
            -29 hlineto
            -18 -30 -99 -48 -19 hvcurveto
            -80 callsubr
            -51 rlineto
            -9 1 -5 10 vhcurveto
            return
          </CharString>
          <CharString index="27">
            -62 -8 65 callgsubr
            return
          </CharString>
          <CharString index="28">
            -62 32 59 -62 hhcurveto
            -35 -31 -18 -33 -38 41 -56 108 hvcurveto
            endchar
          </CharString>
          <CharString index="29">
            17 4 4 16 1 hvcurveto
            return
          </CharString>
          <CharString index="30">
            46 -14 -35 36 -79 hhcurveto
            -191 -46 -176 -128 -157 74 -69 110 71 47 29 59 33 hvcurveto
            -84 45 rmoveto
            -54 -21 33 66 40 8 125 98 49 25 -31 -80 -50 -10 -103 -95 hvcurveto
            return
          </CharString>
          <CharString index="31">
            rmoveto
            21 8 -10 -19 -17 -12 -9 -20 -1 hvcurveto
            -51 -2 -28 -1 -3 -14 -3 -22 rlinecurve
            -2 -15 rlineto
            -4 3 -2 4 vhcurveto
            75 -3 rlineto
            15 -1 19 -8 -18 vvcurveto
            return
          </CharString>
          <CharString index="32">
            -10 -128 -10 -127 -33 vvcurveto
            -58 29 -31 75 vhcurveto
            return
          </CharString>
          <CharString index="33">
            668 149 rmoveto
            -36 371 -8 60 -9 35 rrcurveto
            73 -19 -35 22 -108 hhcurveto
            -32 -43 -2 -18 -2 hvcurveto
            -48 -383 11 88 -43 -246 -48 406 -2 32 -2 18 rrcurveto
            return
          </CharString>
          <CharString index="34">
            309 415 rmoveto
            -81 callsubr
            return
          </CharString>
          <CharString index="35">
            vvcurveto
            45 -24 41 -80 vhcurveto
            -91 callsubr
            return
          </CharString>
          <CharString index="36">
            32 callsubr
            -89 16 -80 45 -57 hvcurveto
            -40 -65 -14 -32 -20 vvcurveto
            -16 8 -15 28 18 34 6 21 14 vhcurveto
            38 55 rlineto
            -16 37 45 -9 55 hhcurveto
            299 55 266 160 96 -20 76 -44 53 hvcurveto
            39 62 15 30 15 vvcurveto
            12 -9 20 -30 -21 -31 -10 -20 -14 vhcurveto
            -35 -49 rlineto
            13 -34 -41 7 -48 hhcurveto
            84 -268 rmoveto
            2 -14 1 -15 -16 vvcurveto
            -82 -26 -180 -123 -21 -19 4 9 -16 vhcurveto
            83 120 67 97 52 77 rrcurveto
            -105 113 rmoveto
            16 15 -3 -6 12 hvcurveto
            -82 -116 -65 -94 -51 -75 rrcurveto
            -2 15 -1 16 18 vvcurveto
            79 18 166 140 vhcurveto
            return
          </CharString>
          <CharString index="37">
            -88 callsubr
            36 hlineto
            17 4 4 16 1 hvcurveto
            return
          </CharString>
          <CharString index="38">
            -88 -11 37 -33 hhcurveto
            -39 -19 -53 -23 -63 137 -21 75 135 69 68 96 hvcurveto
            179 -238 -31 83 vvcurveto
            27 25 20 37 55 2 -43 -24 1 vhcurveto
            return
          </CharString>
          <CharString index="39">
            12 3 4 11 1 hvcurveto
            return
          </CharString>
          <CharString index="40">
            48 12 71 24 35 22 rrcurveto
            36 23 19 37 97 vvcurveto
            9 -4 5 -8 -39 -163 -107 -39 -50 vhcurveto
            -15 -12 -3 -7 -1 -17 rrcurveto
            -3 -51 -4 -42 -13 vvcurveto
            -6 1 -6 7 -8 vhcurveto
            -38 30 130 -112 45 hhcurveto
            41 13 96 37 9 -2 3 -8 3 hvcurveto
            -73 31 -11 5 -92 45 rrcurveto
            return
          </CharString>
          <CharString index="41">
            -100 callgsubr
            54 rlineto
            10 -6 4 -10 vhcurveto
            return
          </CharString>
          <CharString index="42">
            -9 -116 -9 -128 -58 callgsubr
            5 3 28 23 293 vhcurveto
            41 23 27 40 3 hvcurveto
            4 54 rlineto
            10 -6 4 -10 vhcurveto
            -44 hlineto
            80 return
          </CharString>
          <CharString index="43">
            720 rmoveto
            -128 -143 -64 -173 hvcurveto
            -233 259 48 -101 vvcurveto
            -38 -37 -13 -38 vhcurveto
            return
          </CharString>
          <CharString index="44">
            rmoveto
            28 -11 20 -28 14 vhcurveto
            28 18 8 23 24 vvcurveto
            41 -29 40 -84 -98 -36 -54 -47 -31 14 -19 16 -7 vhcurveto
            return
          </CharString>
          <CharString index="45">
            -28 callgsubr
            570 rmoveto
            66 24 -31 -54 -42 -15 -73 -84 -18 -21 3 5 -22 hvcurveto
            return
          </CharString>
          <CharString index="46">
            -75 -23 -53 -53 -46 17 -36 61 82 16 69 41 49 -22 29 -56 hvcurveto
            return
          </CharString>
          <CharString index="47">
            -57 -22 60 -89 hhcurveto
            -100 -35 -77 -58 hvcurveto
            return
          </CharString>
          <CharString index="48">
            -75 callsubr
            55 hlineto
            12 4 6 return
          </CharString>
          <CharString index="49">
            9 -8 5 -8 vhcurveto
            return
          </CharString>
          <CharString index="50">
            -21 callsubr
            257 hmoveto
            -103 callgsubr
            endchar
          </CharString>
          <CharString index="51">
            rmoveto
            13 -122 104 -20 -23 -57 -72 -32 -22 123 -54 58 21 20 42 21 vhcurveto
            endchar
          </CharString>
          <CharString index="52">
            vhcurveto
            36 -47 callsubr
            return
          </CharString>
          <CharString index="53">
            12 113 5 183 27 vvcurveto
            26 -5 35 -92 vhcurveto
            -55 hlineto
            -14 -1 -6 -18 -1 hvcurveto
            -14 -225 -3 -69 -6 -49 rrcurveto
            return
          </CharString>
          <CharString index="54">
            rmoveto
            120 60 69 45 21 -13 10 -30 hvcurveto
            return
          </CharString>
          <CharString index="55">
            rmoveto
            hintmask 11011000
            -60 callsubr
            hintmask 11101000
            -10 callsubr
            hintmask 11011000
            -10 callgsubr
            hintmask 11101000
            -60 callgsubr
            hintmask 11011000
            -9 callgsubr
            hintmask 11101000
            -30 callsubr
          </CharString>
          <CharString index="56">
            vvcurveto
            -61 78 callsubr
            18 15 168 4 55 hvcurveto
            99 7 41 66 64 hhcurveto
            48 13 -32 -35 -33 -11 -114 -8 -88 hvcurveto
            return
          </CharString>
          <CharString index="57">
            382 88 rmoveto
            -56 19 -32 84 vhcurveto
            32 hlineto
            23 4 2 29 hvcurveto
            return
          </CharString>
          <CharString index="58">
            711 hmoveto
            61 12 27 40 4 hvcurveto
            6 59 -25 callgsubr
            -216 hlineto
            -17 149 rlineto
            111 hlineto
            58 16 27 40 4 hvcurveto
            5 59 rlineto
            -86 callgsubr
            -196 hlineto
            -5 42 -5 47 -7 52 rrcurveto
            142 hlineto
            61 12 27 40 4 hvcurveto
            6 59 rlineto
            -86 callgsubr
            -392 hlineto
            -21 -12 -7 -12 -8 hvcurveto
            -56 -81 -247 -483 -69 vvcurveto
            -42 45 -16 41 vhcurveto
            53 hlineto
            15 7 9 7 3 hvcurveto
            return
          </CharString>
          <CharString index="59">
            123 rmoveto
            -65 -29 32 95 53 9 124 83 45 0 -37 -65 1 hvcurveto
            return
          </CharString>
          <CharString index="60">
            hlineto
            -78 callsubr
            return
          </CharString>
          <CharString index="61">
            -107 0 140 149 -14 callsubr
            return
          </CharString>
          <CharString index="62">
            rmoveto
            103 47 56 66 61 -39 27 -58 -36 -15 -7 -10 -10 hvcurveto
            9 58 rlineto
            112 hlineto
            22 11 9 21 1 hvcurveto
            2 37 rlineto
            4 -4 2 -4 vhcurveto
            -212 hlineto
            hintmask 11011000
            -10 -14 -118 -38 -22 7 -12 36 hvcurveto
            35 hlineto
            hintmask 10110100
            7 3 23 21 hhcurveto
            30 9 -19 -14 -26 -24 -23 -38 hvcurveto
            hintmask 11011000
            -41 -2 26 -10 hhcurveto
            -35 -19 -18 -24 -41 58 -18 58 hvcurveto
            endchar
          </CharString>
          <CharString index="63">
            -195 125 -125 return
          </CharString>
          <CharString index="64">
            232 458 rmoveto
            60 -18 32 -85 vhcurveto
            -32 hlineto
            -16 -11 -12 -19 -1 hvcurveto
            return
          </CharString>
          <CharString index="65">
            -9 75 -5 -31 vvcurveto
            -14 -16 -7 -18 vhcurveto
            -35 -13 27 -10 hhcurveto
            return
          </CharString>
          <CharString index="66">
            133 304 133 return
          </CharString>
          <CharString index="67">
            630 rmoveto
            -2 -60 -16 -123 -20 vvcurveto
            -22 13 -15 34 vhcurveto
            40 68 callgsubr
            27 -7 16 -39 vhcurveto
            -95 hlineto
            -11 0 -4 -4 hvcurveto
            -32 -148 15 73 -33 -149 rrcurveto
            167 -27 12 65 -63 hhcurveto
            -88 hlineto
            -10 3 -17 -133 -10 hvcurveto
            -4 -58 -5 -56 -16 vvcurveto
            -26 13 -14 34 vhcurveto
            return
          </CharString>
          <CharString index="68">
            rmoveto
            hintmask 11101100
            39 -10 -21 13 hhcurveto
            44 26 14 28 31 -33 23 -74 -131 -42 -91 -103 -74 22 -61 100 98 51 56 68 64 -50 22 -47 -46 -17 -25 -6 -4 hvcurveto
            -1 2 0 5 4 vvcurveto
            hintmask 11011100
            22 13 42 49 vhcurveto
            -26 -103 rmoveto
            18 7 -11 -14 -18 -10 -33 -29 -15 -7 11 18 17 10 30 26 hvcurveto
            endchar
          </CharString>
          <CharString index="69">
            -11 5 -3 19 69 38 32 58 69 -53 50 -112 vhcurveto
            return
          </CharString>
          <CharString index="70">
            -78 callgsubr
            55 hlineto
            -68 callsubr
            20 274 rlineto
            178 hlineto
            -7 -93 -6 -82 -29 -59 callgsubr
            return
          </CharString>
          <CharString index="71">
            -55 -91 -10 -84 hhcurveto
            -13 -2 -10 -60 -4 hvcurveto
            -3 -48 -4 -81 -10 -134 rrcurveto
            return
          </CharString>
          <CharString index="72">
            74 -103 3 -29 -37 -4 -5 -25 -4 vhcurveto
            -47 -299 -2 -20 -42 -213 rrcurveto
            return
          </CharString>
          <CharString index="73">
            rmoveto
            -97 callsubr
            3 41 rlineto
            9 -8 5 -8 vhcurveto
            -342 45 callgsubr
            return
          </CharString>
          <CharString index="74">
            -10 -41 callsubr
            return
          </CharString>
          <CharString index="75">
            rmoveto
            -61 callsubr
            return
          </CharString>
          <CharString index="76">
            11 21 -21 154 36 callgsubr
            return
          </CharString>
          <CharString index="77">
            -25 -25 -60 -57 hhcurveto
            endchar
          </CharString>
          <CharString index="78">
            -14 callgsubr
            244 170 return
          </CharString>
          <CharString index="79">
            138 -138 164 261 135 147 -20 hstemhm
            67 170 -147 147 return
          </CharString>
          <CharString index="80">
            4 callgsubr
            181 -13 callsubr
            return
          </CharString>
          <CharString index="81">
            182 -133 133 -133 148 return
          </CharString>
          <CharString index="82">
            8 121 19 185 42 vvcurveto
            136 -53 45 -112 -74 -45 -22 -66 -40 vhcurveto
            return
          </CharString>
          <CharString index="83">
            180 47 80 130 133 return
          </CharString>
          <CharString index="84">
            -20 34 -82 vhcurveto
            return
          </CharString>
          <CharString index="85">
            rmoveto
            hintmask 01000000
            -60 callsubr
            hintmask 10000000
            -10 callsubr
            hintmask 01000000
            -10 callgsubr
            hintmask 10000000
            -60 callgsubr
            hintmask 01000000
            -9 callgsubr
            hintmask 10000000
            -30 callsubr
          </CharString>
          <CharString index="86">
            rmoveto
            -103 callgsubr
            return
          </CharString>
          <CharString index="87">
            -18 -11 -26 -30 hhcurveto
            -18 -8 9 34 38 10 106 9 100 hvcurveto
            return
          </CharString>
          <CharString index="88">
            vvcurveto
            57 -23 callsubr
            return
          </CharString>
          <CharString index="89">
            -7 3 -4 8 hvcurveto
            return
          </CharString>
          <CharString index="90">
            hintmask 11100100
            -43 callgsubr
            return
          </CharString>
          <CharString index="91">
            -24 14 -14 33 vhcurveto
            45 68 callgsubr
            return
          </CharString>
          <CharString index="92">
            77 43 41 74 88 -61 60 -124 hvcurveto
            return
          </CharString>
          <CharString index="93">
            140 141 140 return
          </CharString>
          <CharString index="94">
            162 -141 168 return
          </CharString>
          <CharString index="95">
            -55 hlineto
            -11 -5 return
          </CharString>
          <CharString index="96">
            51 -10 36 callsubr
            return
          </CharString>
          <CharString index="97">
            -35 13 -5 7 vhcurveto
            return
          </CharString>
          <CharString index="98">
            -70 65 -58 110 197 41 184 152 16 return
          </CharString>
          <CharString index="99">
            598 65 rmoveto
            7 -130 194 -70 114 vhcurveto
            129 99 72 81 39 vvcurveto
            37 -63 84 -35 -19 -21 -26 -12 -9 vhcurveto
            -90 -121 -62 -81 -45 -55 rrcurveto
            6 85 4 74 31 vvcurveto
            return
          </CharString>
          <CharString index="100">
            -23 7 -19 31 60 49 72 78 45 -16 34 -49 -42 -43 -24 -52 return
          </CharString>
          <CharString index="101">
            rmoveto
            -146 -9 -2 -45 -31 hhcurveto
            return
          </CharString>
          <CharString index="102">
            9 7 callgsubr
            343 153 return
          </CharString>
          <CharString index="103">
            184 -171 171 -118 118 return
          </CharString>
          <CharString index="104">
            -9 -10 -22 -43 -14 -26 3 18 -5 vhcurveto
            return
          </CharString>
          <CharString index="105">
            -186 132 return
          </CharString>
          <CharString index="106">
            86 -86 145 hstemhm
            return
          </CharString>
          <CharString index="107">
            rmoveto
            -98 callgsubr
            return
          </CharString>
          <CharString index="108">
            346 17 callsubr
            -115 hlineto
            return
          </CharString>
          <CharString index="109">
            338 -23 callgsubr
            21 -20 21 -20 return
          </CharString>
          <CharString index="110">
            103 6 callsubr
            return
          </CharString>
          <CharString index="111">
            rmoveto
            41 12 -27 -43 hvcurveto
            -4 -40 rlineto
            -138 hlineto
            61 10 22 49 57 hhcurveto
            endchar
          </CharString>
          <CharString index="112">
            -327 21 -21 571 -21 return
          </CharString>
          <CharString index="113">
            -10 -12 callgsubr
            return
          </CharString>
          <CharString index="114">
            11 callsubr
            134 211 142 235 8 13 6 10 5 16 1 17 4 54 rcurveline
            return
          </CharString>
          <CharString index="115">
            -100 callgsubr
            49 rlineto
            -86 callgsubr
            -214 hlineto
            104 143 123 143 9 13 12 18 7 18 1 17 4 54 rcurveline
            return
          </CharString>
          <CharString index="116">
            48 66 44 11 vvcurveto
            19 -8 16 -30 -76 -70 -105 -107 -74 33 -20 42 vhcurveto
            return
          </CharString>
          <CharString index="117">
            -138 -10 123 -123 160 282 128 return
          </CharString>
          <CharString index="118">
            -69 callgsubr
            -254 hlineto
            return
          </CharString>
          <CharString index="119">
            157 -141 173 -173 189 return
          </CharString>
          <CharString index="120">
            -24 callgsubr
            186 169 return
          </CharString>
          <CharString index="121">
            3 18 hvcurveto
            4 155 1 39 25 vvcurveto
            16 -61 13 -95 19 -61 rrcurveto
            -18 5 25 -5 20 hhcurveto
            17 6 3 5 3 hvcurveto
            return
          </CharString>
          <CharString index="122">
            1 21 -21 711 -20 21 -20 return
          </CharString>
          <CharString index="123">
            -200 64 -64 160 -69 -20 return
          </CharString>
          <CharString index="124">
            rmoveto
            -66 callsubr
            return
          </CharString>
          <CharString index="125">
            368 118 rmoveto
            -120 -31 -68 -88 vhcurveto
            return
          </CharString>
          <CharString index="126">
            157 -9 rmoveto
            93 23 62 59 hvcurveto
            return
          </CharString>
          <CharString index="127">
            -53 12 75 -17 hhcurveto
            -58 -56 -38 -65 return
          </CharString>
          <CharString index="128">
            -8 -10 134 447 -21 return
          </CharString>
          <CharString index="129">
            11 123 rmoveto
            -95 62 -38 89 86 80 37 44 40 vhcurveto
            -60 48 78 -21 73 hhcurveto
            89 107 31 78 hvcurveto
            return
          </CharString>
          <CharString index="130">
            hlineto
            8 64 5 41 2 vvcurveto
            52 -20 31 -78 -16 -8 -10 -19 -2 vhcurveto
            -7 -56 -6 -54 -7 -51 rrcurveto
            return
          </CharString>
          <CharString index="131">
            -66 -21 -147 -58 vvcurveto
            return
          </CharString>
          <CharString index="132">
            -20 47 callgsubr
            -167 187 return
          </CharString>
          <CharString index="133">
            -20 -29 callsubr
            return
          </CharString>
          <CharString index="134">
            158 417 154 -9 -20 return
          </CharString>
          <CharString index="135">
            65 callgsubr
            -56 rlineto
            return
          </CharString>
          <CharString index="136">
            16 -52 10 45 vvcurveto
            return
          </CharString>
          <CharString index="137">
            181 -163 163 105 172 -172 232 -200 140 -140 169 return
          </CharString>
          <CharString index="138">
            vhcurveto
            -23 hlineto
            -18 -1 -1 -28 -2 hvcurveto
            -4 -54 -16 -188 -40 vvcurveto
            -68 48 -16 54 vhcurveto
            return
          </CharString>
          <CharString index="139">
            hstem
            40 81 callgsubr
            54 callsubr
            return
          </CharString>
          <CharString index="140">
            -20 hstemhm
            51 180 218 182 return
          </CharString>
          <CharString index="141">
            -20 3 callgsubr
            return
          </CharString>
          <CharString index="142">
            -12 6 -2 20 73 47 27 69 68 return
          </CharString>
          <CharString index="143">
            156 564 -20 return
          </CharString>
          <CharString index="144">
            219 -10 125 -125 180 47 80 -60 82 32 209 49 callsubr
            return
          </CharString>
          <CharString index="145">
            -264 -190 rmoveto
            -100 -3 -53 -14 -33 hhcurveto
            -27 -23 10 31 53 69 20 70 hvcurveto
            return
          </CharString>
          <CharString index="146">
            178 rmoveto
            -75 -23 -53 -53 -46 17 -36 60 83 16 68 42 49 -22 29 -56 hvcurveto
            return
          </CharString>
          <CharString index="147">
            5 63 6 70 5 70 rrcurveto
            -132 71 70 -101 71 hhcurveto
            61 27 77 14 hvcurveto
            return
          </CharString>
          <CharString index="148">
            -61 callsubr
            endchar
          </CharString>
          <CharString index="149">
            hlineto
            -62 -8 -36 -34 -2 hvcurveto
            return
          </CharString>
          <CharString index="150">
            -11 -5 -4 -11 return
          </CharString>
          <CharString index="151">
            181 -163 163 126 168 -142 169 153 172 return
          </CharString>
          <CharString index="152">
            -41 callgsubr
            6 17 202 9 118 vhcurveto
            return
          </CharString>
          <CharString index="153">
            -95 0 130 290 130 return
          </CharString>
          <CharString index="154">
            -54 0 140 430 140 return
          </CharString>
          <CharString index="155">
            64 callgsubr
            vhcurveto
            return
          </CharString>
          <CharString index="156">
            -134 134 return
          </CharString>
          <CharString index="157">
            -80 callsubr
            -51 rlineto
            -9 1 -5 10 vhcurveto
            53 hlineto
            -5 return
          </CharString>
          <CharString index="158">
            7 88 5 71 22 vvcurveto
            47 -24 40 -80 vhcurveto
            -39 hlineto
            -20 -1 0 -29 return
          </CharString>
          <CharString index="159">
            rmoveto
            55 21 -40 -76 -47 -8 -141 -97 return
          </CharString>
          <CharString index="160">
            -155 155 return
          </CharString>
          <CharString index="161">
            186 vstem
            405 721 rmoveto
            -278 -87 -206 -208 return
          </CharString>
          <CharString index="162">
            -10 85 -67 -21 247 85 72 85 159 85 -10 -20 hstemhm
            return
          </CharString>
          <CharString index="163">
            30 181 201 164 return
          </CharString>
          <CharString index="164">
            -106 -13 -12 -91 -58 hhcurveto
            return
          </CharString>
          <CharString index="165">
            vvcurveto
            -61 20 -34 return
          </CharString>
          <CharString index="166">
            hlineto
            11 5 4 11 35 12 173 11 140 hvcurveto
            return
          </CharString>
          <CharString index="167">
            145 276 -20 hstemhm
            51 185 -143 174 return
          </CharString>
          <CharString index="168">
            -160 0 140 570 -20 return
          </CharString>
          <CharString index="169">
            hstemhm
            33 176 180 171 return
          </CharString>
          <CharString index="170">
            -164 -21 175 return
          </CharString>
          <CharString index="171">
            14 -60 -17 68 vvcurveto
            return
          </CharString>
          <CharString index="172">
            hstemhm
            28 172 return
          </CharString>
          <CharString index="173">
            vstem
            265 -10 rmoveto
            251 48 210 126 return
          </CharString>
          <CharString index="174">
            61 -16 34 -85 vhcurveto
            -55 hlineto
            43 callsubr
            hvcurveto
            return
          </CharString>
          <CharString index="175">
            57 callsubr
            endchar
          </CharString>
          <CharString index="176">
            93 29 236 92 vvcurveto
            101 -38 48 -152 return
          </CharString>
          <CharString index="177">
            -208 -185 140 645 140 hstemhm
            return
          </CharString>
          <CharString index="178">
            -10 80 -80 106 -88 -21 142 61 31 98 return
          </CharString>
          <CharString index="179">
            -40 -14 -11 -21 -22 vvcurveto
            -48 23 -45 7 vhcurveto
            return
          </CharString>
          <CharString index="180">
            -45 -45 -24 -52 -30 14 -34 38 hvcurveto
            endchar
          </CharString>
          <CharString index="181">
            21 -21 346 135 54 return
          </CharString>
          <CharString index="182">
            -10 156 -156 return
          </CharString>
          <CharString index="183">
            16 -34 66 17 3 4 16 2 vhcurveto
            8 return
          </CharString>
          <CharString index="184">
            27 callgsubr
            hstemhm
            42 return
          </CharString>
          <CharString index="185">
            20 -34 82 vhcurveto
            36 hlineto
            17 5 4 16 return
          </CharString>
          <CharString index="186">
            -10 -47 -21 58 128 314 128 return
          </CharString>
          <CharString index="187">
            hstemhm
            29 170 return
          </CharString>
        <CharString name=".notdef">
          40 -185 113 959 113 hstemhm
          30 146 -96 163 195 130 -130 180 hintmask 11011000
          119 1000 rmoveto
          43 callsubr
          -35 -12 -173 -11 -140 hvcurveto
          hintmask 11101000
          -10 -128 -40 -570 -39 vvcurveto
          -52 23 -33 58 vhcurveto
          418 59 callsubr
          hintmask 11100100
          10 128 40 570 39 vvcurveto
          54 -24 31 -60 vhcurveto
          -358 -1072 rmoveto
          hintmask 11011000
          15 200 44 640 8 119 rrcurveto
          228 hlineto
          -66 -959 rlineto
          endchar
        </CharString>
        <CharString name="A">
          -31 callsubr
          hstem
          271 710 -106 callsubr
          endchar
        </CharString>
        <CharString name="AE">
          211 0 140 14 145 -10 -14 callsubr
          hstemhm
          hintmask 10110000
          -49 callsubr
          hintmask 11010000
          30 callgsubr
          endchar
        </CharString>
        <CharString name="AEacute">
          211 0 140 14 145 -10 -14 callsubr
          70 184 hstemhm
          hintmask 10111000
          -49 callsubr
          hintmask 11011000
          30 callgsubr
          171 481 0 callsubr
          endchar
        </CharString>
        <CharString name="Aacute">
          -31 callsubr
          90 184 hstem
          271 710 -106 callsubr
          86 481 0 callsubr
          endchar
        </CharString>
        <CharString name="Abreve">
          -31 callsubr
          90 -1 callsubr
          hintmask 11101000
          271 710 -106 callsubr
          82 481 -53 callsubr
          hintmask 11110000
          -1 callgsubr
          hintmask 11101000
          -79 callsubr
        </CharString>
        <CharString name="Acircumflex">
          -31 callsubr
          274 -20 hstem
          271 710 -106 callsubr
          205 481 -105 callgsubr
        </CharString>
        <CharString name="Adieresis">
          -31 callsubr
          90 136 hstem
          134 43 callgsubr
          vstem
          271 710 -106 callsubr
          -112 539 rmoveto
          -104 callsubr
        </CharString>
        <CharString name="Agrave">
          -31 callsubr
          90 180 hstem
          146 222 vstem
          271 710 -106 callsubr
          122 544 -56 callsubr
        </CharString>
        <CharString name="Amacron">
          -31 callsubr
          110 107 hstem
          271 710 -106 callsubr
          198 501 -62 callgsubr
          -73 0 -51 -45 -18 callsubr
          endchar
        </CharString>
        <CharString name="Aogonek">
          11 -174 -21 349 36 callgsubr
          hstemhm
          371 24 callgsubr
          hintmask 11101000
          271 710 rmoveto
          -24 -4 0 -19 -11 hvcurveto
          -42 -75 -184 -460 -90 vvcurveto
          -48 52 -18 43 vhcurveto
          53 hlineto
          11 9 6 10 3 hvcurveto
          33 138 rlineto
          174 hlineto
          9 -78 9 -53 63 -17 rrcurveto
          -67 -46 -27 -44 -41 -42 callgsubr
          hintmask 11110000
          18 callgsubr
          38 hlineto
          18 9 5 19 33 -27 111 -107 431 hvcurveto
          57 -14 -18 54 -67 hhcurveto
          -47 -147 rmoveto
          42 -264 rlineto
          -115 hlineto
          endchar
        </CharString>
        <CharString name="Aring">
          -31 callsubr
          90 48 54 49 hstemhm
          243 67 -67 183 hintmask 11111010
          271 710 -106 callsubr
          94 632 -74 callgsubr
          hvcurveto
          hintmask 11111100
          23 callgsubr
        </CharString>
        <CharString name="Aringacute">
          -31 callsubr
          80 49 -49 186 -66 52 hstemhm
          373 134 hintmask 11111010
          341 942 rmoveto
          -72 -34 -41 -43 -5 hvcurveto
          -25 -19 -17 -16 -6 vvcurveto
          -7 17 -48 29 11 22 4 7 26 vhcurveto
          -2 10 11 -1 13 hhcurveto
          54 29 22 26 15 hvcurveto
          46 20 36 20 14 vvcurveto
          20 -75 64 -24 -10 -17 -6 -9 -20 vhcurveto
          hintmask 11110110
          1 -6 -7 0 -7 hhcurveto
          -4 -52 rmoveto
          25 11 -13 -16 -15 -7 -27 -35 -28 -9 17 17 18 14 19 29 hvcurveto
          -66 -180 -106 callsubr
          endchar
        </CharString>
        <CharString name="Atilde">
          -31 callsubr
          90 -18 callgsubr
          hintmask 11110000
          271 710 -106 callsubr
          169 596 rmoveto
          hintmask 11101000
          -60 callsubr
          hintmask 11110000
          -10 callsubr
          hintmask 11101000
          -10 callgsubr
          hintmask 11110000
          -60 callgsubr
          hintmask 11101000
          -9 callgsubr
          hintmask 11110000
          -30 callsubr
        </CharString>
        <CharString name="B">
          -3 -10 130 180 130 150 138 hstemhm
          51 188 -169 185 141 170 hintmask 11101100
          248 -10 rmoveto
          245 73 102 122 76 -29 58 -77 24 hvcurveto
          82 21 24 80 63 vvcurveto
          115 -81 67 -204 -41 -54 -3 -5 -78 vhcurveto
          -18 -1 0 -8 -43 vvcurveto
          -21 -2 -23 -18 -237 vhcurveto
          hintmask 11110100
          -15 -192 -4 -52 -25 vvcurveto
          -79 40 -39 157 vhcurveto
          57 310 rmoveto
          67 24 -38 -50 -38 -14 -54 -83 -19 -23 4 7 -23 hvcurveto
          11 163 rlineto
          4 23 22 2 15 hhcurveto
          -42 275 rmoveto
          3 19 19 2 14 hhcurveto
          67 24 -35 -41 -32 -15 -42 -79 hvcurveto
          hintmask 11101100
          -18 -19 3 5 -20 hvcurveto
          4 54 2 48 2 35 rrcurveto
          endchar
        </CharString>
        <CharString name="C">
          -5 callsubr
          hstemhm
          39 187 203 177 hintmask 01111000
          -91 callgsubr
          hintmask 10111000
          -42 -33 -78 -110 hhcurveto
          endchar
        </CharString>
        <CharString name="CR">
          -299 endchar
        </CharString>
        <CharString name="Cacute">
          -5 callsubr
          60 184 hstemhm
          39 187 203 177 hintmask 01111100
          -91 callgsubr
          hintmask 10111100
          -42 -33 -78 -110 hhcurveto
          44 634 0 callsubr
          endchar
        </CharString>
        <CharString name="Ccaron">
          -5 callsubr
          244 -20 hstemhm
          39 187 203 177 hintmask 01111100
          -91 callgsubr
          hintmask 10111100
          -42 -33 -78 -110 hhcurveto
          -58 818 -99 callsubr
        </CharString>
        <CharString name="Ccedilla">
          10 16 callsubr
          120 155 -155 233 343 153 hstemhm
          40 187 -4 210 -99 99 -3 177 hintmask 1011011001000000
          352 146 rmoveto
          -85 -40 47 123 76 15 175 126 60 0 -40 -92 2 hvcurveto
          -14 4 -4 29 91 53 38 85 99 -72 81 -158 -294 -43 -281 -133 -216 112 -80 121 -16 vhcurveto
          -8 -24 -6 -27 -13 vvcurveto
          hintmask 1011011010000000
          -42 callsubr
          hintmask 0100110100000000
          -29 callgsubr
          4 31 125 6 65 65 11 43 rlinecurve
          9 37 6 31 21 vvcurveto
          19 -5 11 -15 vhcurveto
          hintmask 1011011010000000
          -42 -33 -78 -110 hhcurveto
          endchar
        </CharString>
        <CharString name="Ccircumflex">
          -5 callsubr
          244 -20 hstemhm
          39 187 203 177 hintmask 01111100
          -91 callgsubr
          hintmask 10111100
          -42 -33 -78 -110 hhcurveto
          163 634 -105 callgsubr
        </CharString>
        <CharString name="Cdotaccent">
          -5 callsubr
          60 150 hstemhm
          39 187 84 189 -70 177 hintmask 01111010
          -91 callgsubr
          hintmask 10111100
          -42 -33 -78 -110 hhcurveto
          -41 698 rmoveto
          -90 callgsubr
        </CharString>
        <CharString name="D">
          58 -10 158 417 154 -9 33 callsubr
          hintmask 11011000
          -85 callgsubr
          hintmask 10111000
          -75 callgsubr
          hintmask 11011000
          -61 callgsubr
          hvcurveto
          endchar
        </CharString>
        <CharString name="Dcaron">
          58 -10 27 callsubr
          274 33 callsubr
          hintmask 11011100
          -85 callgsubr
          hintmask 10111100
          -75 callgsubr
          hintmask 11011100
          -61 callgsubr
          hvcurveto
          -35 816 -99 callsubr
        </CharString>
        <CharString name="Dcroat">
          63 -10 158 162 107 148 154 -9 -20 hstemhm
          56 180 -157 157 218 182 hintmask 11100110
          97 695 rmoveto
          -2 -39 1 -27 -17 -212 rrcurveto
          -80 -1 -49 -47 -18 callsubr
          61 hlineto
          hintmask 11101010
          -8 -106 -6 -86 -29 vvcurveto
          -94 89 -5 131 283 77 212 217 213 -74 87 -227 vhcurveto
          hintmask 11011010
          -45 -86 -9 -90 hhcurveto
          -7 -9 -4 -11 -1 hvcurveto
          184 -385 rmoveto
          70 8 38 55 9 -8 5 -8 hvcurveto
          -88 hlineto
          8 144 rlineto
          hintmask 11101010
          -61 callgsubr
          -10 -17 0 3 -20 hvcurveto
          3 47 5 56 4 56 rrcurveto
          endchar
        </CharString>
        <CharString name="Ddotbelow">
          58 -2 callsubr
          44 27 callsubr
          hstemhm
          51 180 -54 157 115 182 hintmask 11101010
          -85 callgsubr
          hintmask 11011010
          -75 callgsubr
          hintmask 11100110
          -61 callgsubr
          hvcurveto
          -101 -278 -95 callsubr
        </CharString>
        <CharString name="E">
          -46 callsubr
          hstem
          51 183 vstem
          -107 callsubr
          endchar
        </CharString>
        <CharString name="Eacute">
          -46 callsubr
          70 184 hstem
          51 183 vstem
          -107 callsubr
          143 780 0 callsubr
          endchar
        </CharString>
        <CharString name="Ebreve">
          -46 callsubr
          70 -1 callsubr
          51 183 hintmask 11101100
          -107 callsubr
          139 780 -53 callsubr
          hintmask 11110100
          -1 callgsubr
          hintmask 11101100
          -79 callsubr
        </CharString>
        <CharString name="Ecaron">
          -46 callsubr
          254 -20 hstem
          51 183 vstem
          -107 callsubr
          41 964 -99 callsubr
        </CharString>
        <CharString name="Ecircumflex">
          -46 callsubr
          254 -20 hstem
          51 183 vstem
          -107 callsubr
          262 780 -105 callgsubr
        </CharString>
        <CharString name="Edieresis">
          -46 callsubr
          70 136 hstemhm
          51 183 -141 161 74 158 hintmask 11110110
          385 hmoveto
          -102 callsubr
          9 -8 5 -8 vhcurveto
          -220 hlineto
          11 149 rlineto
          87 hlineto
          -97 callgsubr
          10 -8 4 -8 vhcurveto
          -352 hlineto
          43 callsubr
          hvcurveto
          hintmask 11111010
          -78 callgsubr
          -55 838 rmoveto
          -104 callsubr
        </CharString>
        <CharString name="Edotaccent">
          -46 callsubr
          70 150 hstemhm
          51 183 -21 192 hintmask 11111000
          -107 callsubr
          hintmask 11110100
          58 844 rmoveto
          -90 callgsubr
        </CharString>
        <CharString name="Edotbelow">
          -107 -2 callsubr
          54 140 149 -14 callsubr
          hstemhm
          51 183 -66 157 hintmask 11111000
          -107 callsubr
          hintmask 11110100
          13 -130 rmoveto
          hintmask 11111000
          -38 23 -18 43 vhcurveto
          hintmask 11110100
          59 32 32 43 35 -20 22 -47 -55 -35 -29 -47 hvcurveto
          endchar
        </CharString>
        <CharString name="Egrave">
          -46 callsubr
          70 180 hstemhm
          51 183 -122 222 hintmask 11111000
          -107 callsubr
          hintmask 11110100
          179 843 -56 callsubr
        </CharString>
        <CharString name="Emacron">
          -46 callsubr
          90 107 hstem
          51 183 vstem
          -107 callsubr
          255 800 -62 callgsubr
          -73 0 -51 -45 -18 callsubr
          endchar
        </CharString>
        <CharString name="Eng">
          81 -44 callsubr
          160 745 26 callsubr
          hintmask 10110100
          401 -70 rmoveto
          hintmask 01101100
          -28 -2 35 -8 hhcurveto
          -23 -91 -6 -64 -62 88 -28 78 85 81 37 169 17 hvcurveto
          7 69 35 428 105 vvcurveto
          61 -14 36 -87 vhcurveto
          -55 hlineto
          -17 0 -7 -2 hvcurveto
          -118 3 -181 -158 vvcurveto
          -37 85 -21 42 -98 247 rrcurveto
          48 -19 -17 44 -89 hhcurveto
          -80 hlineto
          -12 -4 -4 -11 hvcurveto
          -2 -64 -4 -52 -16 -202 rrcurveto
          hintmask 10110100
          -75 callsubr
          55 hlineto
          10 6 4 11 hvcurveto
          -2 143 -4 144 -1 143 62 -132 85 -152 70 -146 rrcurveto
          -63 -6 -8 -22 -21 hhcurveto
          endchar
        </CharString>
        <CharString name="Eogonek">
          -107 -174 -21 195 140 149 -14 callsubr
          hstemhm
          51 183 -106 126 hintmask 11111000
          -107 callsubr
          59 hlineto
          hintmask 11110100
          -61 -44 -25 -42 -39 -42 callgsubr
          18 callgsubr
          endchar
        </CharString>
        <CharString name="Eth">
          64 -10 158 151 135 131 154 -9 -20 hstemhm
          81 176 198 182 hintmask 11101100
          98 695 rmoveto
          -2 -67 2 23 -17 -217 -59 -2 -7 -35 -2 -33 -3 -54 rcurveline
          -68 callgsubr
          50 hlineto
          -8 -98 -6 -85 -27 vvcurveto
          -94 89 -5 131 283 77 212 217 213 -74 87 -227 vhcurveto
          hintmask 11011100
          -45 -60 -4 -5 -92 hvcurveto
          -24 hlineto
          -7 -10 -4 -11 hvcurveto
          175 -396 rmoveto
          -100 callgsubr
          54 -25 callgsubr
          -80 hlineto
          3 49 3 44 1 34 rrcurveto
          hintmask 11101100
          -61 callgsubr
          -10 -17 0 3 -20 hvcurveto
          4 44 4 51 3 53 rrcurveto
          endchar
        </CharString>
        <CharString name="Etilde">
          -46 callsubr
          70 -18 callgsubr
          51 183 hintmask 11110100
          -107 callsubr
          226 895 rmoveto
          hintmask 11101100
          -60 callsubr
          hintmask 11110100
          -10 callsubr
          hintmask 11101100
          -10 callgsubr
          hintmask 11110100
          -60 callgsubr
          hintmask 11101100
          -9 callgsubr
          hintmask 11110100
          -30 callsubr
        </CharString>
        <CharString name="Euro">
          38 75 callsubr
          204 -10 135 55 135 17 194 -154 154 hstemhm
          hintmask 10110100
          439 566 rmoveto
          hintmask 10111000
          98 21 -40 38 hhcurveto
          27 10 50 69 29 -42 46 -123 -174 -94 -90 -121 -44 hvcurveto
          -32 -72 callgsubr
          68 hlineto
          -2 -18 -1 -19 -18 vvcurveto
          -27 -72 callgsubr
          103 hlineto
          -115 25 69 -79 148 hhcurveto
          118 63 52 33 8 hvcurveto
          9 36 6 32 21 vvcurveto
          hintmask 01011000
          19 -6 11 -14 vhcurveto
          hintmask 10110100
          -36 -32 -48 -92 hhcurveto
          -32 -23 12 26 -14 hvcurveto
          72 hlineto
          -66 callsubr
          -159 hlineto
          2 55 rlineto
          119 hlineto
          -66 callsubr
          -148 hlineto
          33 19 29 24 43 hhcurveto
          endchar
        </CharString>
        <CharString name="F">
          -144 21 -21 289 -14 callsubr
          hstem
          51 179 vstem
          327 289 rmoveto
          -97 callgsubr
          10 -8 4 -8 vhcurveto
          -352 hlineto
          43 callsubr
          hvcurveto
          -78 callgsubr
          55 hlineto
          12 -2 4 11 1 hvcurveto
          19 274 rlineto
          endchar
        </CharString>
        <CharString name="G">
          46 callgsubr
          hstem
          41 187 vstem
          -96 callgsubr
          endchar
        </CharString>
        <CharString name="Gbreve">
          46 callgsubr
          60 -1 callsubr
          41 187 hintmask 11011000
          -96 callgsubr
          -95 780 -53 callsubr
          hintmask 11101000
          -1 callgsubr
          hintmask 11011000
          -79 callsubr
        </CharString>
        <CharString name="Gcircumflex">
          46 callgsubr
          244 -20 hstem
          41 187 vstem
          -96 callgsubr
          28 780 -105 callgsubr
        </CharString>
        <CharString name="Gcommaaccent">
          32 -19 callgsubr
          30 156 421 153 hstemhm
          41 187 -10 112 hintmask 01111000
          -96 callgsubr
          -237 -131 -13 callgsubr
          hintmask 10110100
          -82 callgsubr
          hintmask 01111000
          -21 callgsubr
        </CharString>
        <CharString name="Gdotaccent">
          46 callgsubr
          60 150 hstem
          41 187 91 189 vstem
          -96 callgsubr
          -176 844 rmoveto
          -90 callgsubr
        </CharString>
        <CharString name="H">
          66 21 -21 289 60 callsubr
          168 192 hintmask 11101100
          570 -52 callgsubr
          3 31 38 533 28 vvcurveto
          68 -21 35 -82 vhcurveto
          -55 hlineto
          43 callsubr
          -31 -9 -112 -9 -118 hvcurveto
          -179 hlineto
          6 90 5 73 10 25 callgsubr
          hintmask 11110100
          -37 callsubr
          endchar
        </CharString>
        <CharString name="Hbar">
          77 21 -21 289 145 83 107 86 -20 hstemhm
          56 185 -155 178 152 193 -180 180 -166 166 -166 249 hintmask 1111100010000000
          575 -52 callgsubr
          36 502 rlineto
          hintmask 1111010001000000
          58 5 7 36 52 vvcurveto
          -58 callsubr
          -45 hlineto
          57 -3 -24 29 -75 hhcurveto
          -55 hlineto
          43 callsubr
          -13 -1 -25 -3 -33 hvcurveto
          -183 hlineto
          57 -3 -24 29 -75 hhcurveto
          -55 hlineto
          43 callsubr
          -12 -2 -27 -2 -33 hvcurveto
          -63 -4 0 -48 -43 vvcurveto
          -68 callgsubr
          44 hlineto
          hintmask 1111100010000000
          -12 -162 -18 -217 -53 -59 callgsubr
          55 hlineto
          -68 callsubr
          20 274 rlineto
          hintmask 1111100100000000
          178 hlineto
          hintmask 1111101000000000
          -7 -93 -6 -82 -29 -59 callgsubr
          -80 434 rmoveto
          -179 hlineto
          6 83 rlineto
          179 hlineto
          endchar
        </CharString>
        <CharString name="Hcircumflex">
          66 21 -21 289 145 276 -20 274 -20 hstemhm
          51 185 -143 174 168 192 hintmask 11110110
          570 -52 callgsubr
          3 31 38 533 28 vvcurveto
          68 -21 35 -82 vhcurveto
          -55 hlineto
          43 callsubr
          -31 -9 -112 -9 -118 hvcurveto
          -179 hlineto
          6 90 5 73 10 25 callgsubr
          hintmask 11111010
          -37 callsubr
          -26 780 -105 callgsubr
        </CharString>
        <CharString name="Hdotbelow">
          66 -2 callsubr
          343 60 callsubr
          -32 157 43 192 hintmask 11101010
          570 -52 callgsubr
          3 31 38 533 28 vvcurveto
          68 -21 35 -82 vhcurveto
          -55 hlineto
          43 callsubr
          -31 -9 -112 -9 -118 hvcurveto
          -179 hlineto
          6 90 5 73 10 25 callgsubr
          hintmask 11110010
          -37 callsubr
          hintmask 11100110
          -280 -130 -95 callsubr
        </CharString>
        <CharString name="I">
          -23 callgsubr
          hstem
          93 174 vstem
          210 -52 callgsubr
          3 31 38 533 28 25 callgsubr
          -78 callgsubr
          endchar
        </CharString>
        <CharString name="IJ">
          158 77 callgsubr
          hstemhm
          93 174 291 168 hintmask 10111000
          210 -52 callgsubr
          3 31 38 533 28 25 callgsubr
          -78 callgsubr
          297 146 rmoveto
          hintmask 01111000
          20 callsubr
          -9 callsubr
          hvcurveto
          -54 callsubr
          hintmask 10111000
          68 callsubr
        </CharString>
        <CharString name="Iacute">
          -23 callgsubr
          90 184 hstem
          210 -52 callgsubr
          3 31 38 533 28 25 callgsubr
          -78 callgsubr
          30 780 0 callsubr
          endchar
        </CharString>
        <CharString name="Ibreve">
          -23 callgsubr
          90 -1 callsubr
          93 174 hintmask 11011000
          210 -52 callgsubr
          3 31 38 533 28 25 callgsubr
          -78 callgsubr
          26 780 -53 callsubr
          hintmask 11101000
          -1 callgsubr
          hintmask 11011000
          -79 callsubr
        </CharString>
        <CharString name="Icircumflex">
          -23 callgsubr
          274 -20 hstem
          93 174 vstem
          210 -52 callgsubr
          3 31 38 533 28 25 callgsubr
          -78 callgsubr
          149 780 -105 callgsubr
        </CharString>
        <CharString name="Idieresis">
          -23 callgsubr
          90 136 hstemhm
          -13 158 -52 174 -52 158 hintmask 11101000
          210 -52 callgsubr
          3 31 38 533 28 25 callgsubr
          -78 callgsubr
          hintmask 11110100
          -168 838 rmoveto
          -104 callsubr
        </CharString>
        <CharString name="Idotaccent">
          -23 callgsubr
          90 150 hstemhm
          93 174 -174 196 hintmask 11110000
          210 -52 callgsubr
          3 31 38 533 28 25 callgsubr
          -78 callgsubr
          -55 844 48 callsubr
          hintmask 11101000
          1 callgsubr
        </CharString>
        <CharString name="Idotbelow">
          -2 callsubr
          764 -20 hstemhm
          51 148 -106 174 hintmask 11010000
          210 -52 callgsubr
          3 31 38 533 28 25 callgsubr
          hintmask 11100000
          -78 callgsubr
          -113 -130 -95 callsubr
        </CharString>
        <CharString name="Igrave">
          -23 callgsubr
          90 180 hstemhm
          -1 222 -128 174 hintmask 11101000
          210 -52 callgsubr
          3 31 38 533 28 25 callgsubr
          -78 callgsubr
          hintmask 11110000
          66 843 -56 callsubr
        </CharString>
        <CharString name="Imacron">
          -23 callgsubr
          110 107 hstem
          93 174 vstem
          210 -52 callgsubr
          3 31 38 533 28 25 callgsubr
          -78 callgsubr
          142 800 -62 callgsubr
          -73 0 -51 -45 -18 callsubr
          endchar
        </CharString>
        <CharString name="Iogonek">
          -174 -21 905 -20 hstemhm
          2 24 callgsubr
          -87 174 hintmask 11001000
          210 -52 callgsubr
          3 31 38 533 28 25 callgsubr
          -68 -42 -461 -81 vvcurveto
          -38 14 -27 34 -12 vhcurveto
          hintmask 11010000
          -70 -47 -27 -44 -42 -42 callgsubr
          hintmask 11100000
          18 callgsubr
          endchar
        </CharString>
        <CharString name="Itilde">
          -23 callgsubr
          90 -18 callgsubr
          93 174 hintmask 11101000
          210 -52 callgsubr
          3 31 38 533 28 25 callgsubr
          -78 callgsubr
          113 895 -52 callsubr
        </CharString>
        <CharString name="J">
          -129 77 callgsubr
          hstemhm
          271 168 hintmask 10110000
          165 146 rmoveto
          hintmask 01110000
          20 callsubr
          -9 callsubr
          hvcurveto
          -54 callsubr
          hintmask 10110000
          68 callsubr
        </CharString>
        <CharString name="Jcircumflex">
          -129 77 callgsubr
          274 -20 hstemhm
          271 168 hintmask 10111000
          165 146 rmoveto
          hintmask 01111000
          20 callsubr
          -9 callsubr
          hvcurveto
          -54 callsubr
          hintmask 10111000
          57 callsubr
          311 634 -105 callgsubr
        </CharString>
        <CharString name="K">
          15 11 -21 720 55 callgsubr
          hintmask 10100100
          -8 callsubr
          hintmask 11000100
          67 callsubr
          hintmask 10101000
          -1 -37 -1 -26 -20 -255 rrcurveto
          hintmask 10110000
          0 callgsubr
          endchar
        </CharString>
        <CharString name="Kcommaaccent">
          15 -19 callgsubr
          750 55 callgsubr
          -13 112 hintmask 10010010
          -8 callsubr
          hintmask 10100010
          67 callsubr
          hintmask 10010101
          -1 -37 -1 -26 -20 -255 rrcurveto
          hintmask 01011001
          0 callgsubr
          -316 -196 -13 callgsubr
          hintmask 10011001
          -82 callgsubr
          hintmask 01011001
          -21 callgsubr
        </CharString>
        <CharString name="L">
          -160 0 140 570 34 callsubr
          hintmask 11010000
          -87 callgsubr
          hintmask 11100000
          -78 callgsubr
          endchar
        </CharString>
        <CharString name="Lacute">
          61 callsubr
          90 184 3 callgsubr
          hintmask 11101000
          -87 callgsubr
          hintmask 11110000
          -78 callgsubr
          24 780 0 callsubr
          endchar
        </CharString>
        <CharString name="Lcaron">
          61 callsubr
          274 34 callsubr
          hintmask 11101000
          -87 callgsubr
          hintmask 11110000
          -78 callgsubr
          -78 964 -99 callsubr
        </CharString>
        <CharString name="Lcommaaccent">
          -160 -19 callgsubr
          40 140 570 34 callsubr
          -88 112 hintmask 10110100
          -87 callgsubr
          hintmask 01111000
          -78 callgsubr
          60 -131 -13 callgsubr
          hintmask 10110010
          -82 callgsubr
          hintmask 01111000
          -21 callgsubr
        </CharString>
        <CharString name="Ldot">
          -157 0 140 178 132 260 34 callsubr
          13 147 hintmask 11101100
          -87 callgsubr
          hintmask 11110100
          -78 callgsubr
          121 374 -95 callsubr
        </CharString>
        <CharString name="Lslash">
          -144 0 140 570 -20 hstemhm
          79 173 -161 183 hintmask 11010000
          362 -51 callgsubr
          13 193 75 26 38 callgsubr
          -29 -10 -18 -52 hvcurveto
          9 127 rlineto
          6 1 6 6 vvcurveto
          56 -25 29 -74 vhcurveto
          -55 hlineto
          43 callsubr
          -32 -9 -121 -10 -126 hvcurveto
          -16 -5 -16 -5 -16 -6 rrcurveto
          72 callsubr
          hintmask 11100000
          1 12 4 15 44 hvcurveto
          -6 -85 -5 -72 -27 -59 callgsubr
          endchar
        </CharString>
        <CharString name="M">
          300 -23 callgsubr
          -14 callgsubr
          459 174 hintmask 11011000
          685 533 rmoveto
          -6 -133 -34 -273 -46 vvcurveto
          -48 29 -33 75 vhcurveto
          55 hlineto
          -68 callsubr
          3 28 36 480 92 vvcurveto
          61 -16 34 -85 vhcurveto
          -156 hlineto
          -17 -5 -9 -8 -3 hvcurveto
          -85 -329 41 162 -88 -332 rrcurveto
          372 -69 30 144 -157 hhcurveto
          -140 hlineto
          -7 -10 -4 -11 hvcurveto
          -1 -74 0 15 -20 -259 rrcurveto
          hintmask 11101000
          -59 callsubr
          40 hvcurveto
          107 11 325 55 vvcurveto
          35 -136 31 -211 40 -135 rrcurveto
          -41 15 52 -10 46 hhcurveto
          36 15 6 11 5 hvcurveto
          53 132 87 288 33 96 rrcurveto
          endchar
        </CharString>
        <CharString name="N">
          80 21 -21 710 26 callsubr
          hintmask 11011000
          -100 callsubr
          hintmask 11101000
          -94 callsubr
          endchar
        </CharString>
        <CharString name="NULL">
          -608 endchar
        </CharString>
        <CharString name="Nacute">
          80 -23 callgsubr
          90 184 -29 callsubr
          hintmask 11101100
          -100 callsubr
          hintmask 11110100
          -94 callsubr
          -108 780 0 callsubr
          endchar
        </CharString>
        <CharString name="Ncaron">
          80 -23 callgsubr
          274 26 callsubr
          hintmask 11101100
          -100 callsubr
          hintmask 11110100
          -94 callsubr
          -210 964 -99 callsubr
        </CharString>
        <CharString name="Ncommaaccent">
          80 -19 callgsubr
          750 -20 -14 callgsubr
          26 112 106 170 hintmask 10101110
          -100 callsubr
          hintmask 01110110
          -94 callsubr
          -207 -131 -13 callgsubr
          hintmask 10110110
          -82 callgsubr
          hintmask 01110110
          -21 callgsubr
        </CharString>
        <CharString name="Ndotaccent">
          80 -23 callgsubr
          90 150 -14 callgsubr
          80 189 -25 170 hintmask 11101010
          -100 callsubr
          hintmask 11110100
          -94 callsubr
          -193 844 rmoveto
          -90 callgsubr
        </CharString>
        <CharString name="Ntilde">
          80 -23 callgsubr
          90 115 -50 110 -29 callsubr
          hintmask 11100110
          -100 callsubr
          hintmask 11101010
          -94 callsubr
          -25 895 rmoveto
          hintmask 11011010
          -60 callsubr
          hintmask 11101010
          -10 callsubr
          hintmask 11011010
          -10 callgsubr
          hintmask 11101010
          -60 callgsubr
          hintmask 11011010
          -9 callgsubr
          hintmask 11101010
          -30 callsubr
        </CharString>
        <CharString name="O">
          3 callsubr
          hstem
          40 186 266 186 vstem
          -104 callgsubr
          endchar
        </CharString>
        <CharString name="OE">
          313 -10 156 143 140 141 151 -11 -20 hstemhm
          39 81 callgsubr
          163 hintmask 11101100
          805 hmoveto
          -102 callsubr
          9 -8 5 -8 vhcurveto
          -220 hlineto
          11 149 rlineto
          87 hlineto
          -97 callgsubr
          hintmask 11011100
          -86 callgsubr
          -333 hlineto
          -20 -11 -14 -16 -2 hvcurveto
          hintmask 11101100
          24 -21 -32 17 -73 hhcurveto
          -255 -95 -206 -208 -171 64 -146 214 71 67 16 60 43 hvcurveto
          -42 10 26 -24 41 hhcurveto
          -195 566 rmoveto
          80 31 -59 -96 -85 -24 -180 -128 -69 -45 53 121 80 20 166 135 hvcurveto
          endchar
        </CharString>
        <CharString name="Oacute">
          34 callgsubr
          184 hstem
          40 186 266 186 vstem
          -104 callgsubr
          32 214 0 callsubr
          endchar
        </CharString>
        <CharString name="Obreve">
          34 callgsubr
          -1 callsubr
          40 81 callgsubr
          186 hintmask 11011100
          -104 callgsubr
          28 214 -53 callsubr
          hintmask 11101100
          -1 callgsubr
          hintmask 11011100
          -79 callsubr
        </CharString>
        <CharString name="Ocircumflex">
          3 callsubr
          243 -20 hstem
          40 186 266 186 vstem
          -104 callgsubr
          151 214 -105 callgsubr
        </CharString>
        <CharString name="Odieresis">
          34 callgsubr
          136 hstemhm
          40 186 -8 43 callgsubr
          -112 186 hintmask 11110010
          -104 callgsubr
          hintmask 11101100
          -166 272 rmoveto
          -104 callsubr
        </CharString>
        <CharString name="Odotbelow">
          103 -2 callsubr
          44 -12 callgsubr
          hstemhm
          40 186 -1 157 110 186 hintmask 11110100
          -104 callgsubr
          hintmask 11101100
          -159 -696 -95 callsubr
        </CharString>
        <CharString name="Ograve">
          34 callgsubr
          180 hstem
          40 186 4 222 40 186 vstem
          -104 callgsubr
          68 277 -56 callsubr
        </CharString>
        <CharString name="Ohungarumlaut">
          34 callgsubr
          184 hstem
          40 186 266 186 vstem
          -104 callgsubr
          -135 214 -45 callgsubr
        </CharString>
        <CharString name="Omacron">
          3 callsubr
          79 107 hstem
          40 186 266 186 vstem
          -104 callgsubr
          144 234 -62 callgsubr
          -73 0 -51 -45 -18 callsubr
          endchar
        </CharString>
        <CharString name="Oogonek">
          104 -174 -21 186 155 420 155 hstemhm
          40 186 -41 24 callgsubr
          129 186 hintmask 11110010
          405 721 rmoveto
          -278 -87 -206 -208 -159 52 -130 170 -24 hvcurveto
          hintmask 11100110
          -55 -41 -22 -40 -38 -42 callgsubr
          hintmask 11101010
          29 callsubr
          20 10 21 19 23 vhcurveto
          285 9 53 259 157 vvcurveto
          192 -77 113 -196 vhcurveto
          -21 -155 rmoveto
          77 31 -61 -97 -82 -26 -180 -123 hvcurveto
          hintmask 11110010
          -74 -43 54 121 79 18 166 140 hvcurveto
          endchar
        </CharString>
        <CharString name="Oslash">
          70 callgsubr
          -20 -71 callsubr
          endchar
        </CharString>
        <CharString name="Oslashacute">
          70 callgsubr
          184 -71 callsubr
          -29 214 0 callsubr
          endchar
        </CharString>
        <CharString name="Otilde">
          34 callgsubr
          -18 callgsubr
          40 81 callgsubr
          186 hintmask 11101100
          -104 callgsubr
          115 329 -22 callgsubr
        </CharString>
        <CharString name="P">
          -20 21 -21 190 140 240 150 -10 -20 hstemhm
          51 173 183 170 hintmask 11101100
          201 -52 callgsubr
          14 184 rlineto
          -6 20 23 -3 30 hhcurveto
          193 80 146 156 143 -68 85 -172 hvcurveto
          hintmask 11011100
          -59 -102 -10 -69 hhcurveto
          -7 -8 -5 -10 hvcurveto
          -1 -60 0 -21 -20 -237 rrcurveto
          -11 -128 -9 -126 -34 vvcurveto
          -58 29 -31 75 vhcurveto
          hintmask 11101100
          162 570 rmoveto
          68 22 -31 -57 -51 -17 -101 -93 -16 -20 2 5 -20 hvcurveto
          6 87 5 85 2 56 rrcurveto
          3 24 22 2 17 hhcurveto
          endchar
        </CharString>
        <CharString name="Q">
          74 -173 -21 760 155 hstem
          40 186 236 186 vstem
          545 -118 rmoveto
          19 -81 64 -41 41 vhcurveto
          186 61 39 212 139 vvcurveto
          192 -73 111 -190 -259 -86 -207 -208 -162 52 -132 171 -19 vhcurveto
          -105 34 38 -82 87 hhcurveto
          72 51 56 20 hvcurveto
          -181 684 rmoveto
          71 27 -58 -96 -87 -22 -179 -113 -64 -37 57 115 83 19 165 119 hvcurveto
          endchar
        </CharString>
        <CharString name="R">
          9 11 -21 580 15 callgsubr
          149 170 hintmask 11001010
          -86 callsubr
          hintmask 10100110
          -36 callsubr
          hintmask 11010010
          -62 callsubr
          hintmask 11000110
          -8 callgsubr
          endchar
        </CharString>
        <CharString name="Racute">
          9 11 -21 580 150 -10 -20 90 184 47 callgsubr
          169 170 hintmask 11010110
          -86 callsubr
          hintmask 10110110
          -36 callsubr
          hintmask 11011010
          -62 callsubr
          -8 callgsubr
          25 210 0 callsubr
          endchar
        </CharString>
        <CharString name="Rcaron">
          9 11 -21 580 150 -10 -20 274 25 callsubr
          149 170 hintmask 11010101
          -86 callsubr
          hintmask 10110011
          -36 callsubr
          hintmask 11011001
          -62 callsubr
          hintmask 11010011
          -8 callgsubr
          -77 394 -99 callsubr
        </CharString>
        <CharString name="Rcommaaccent">
          9 -19 callgsubr
          610 15 callgsubr
          -25 112 62 170 hintmask 1010010010000000
          -86 callsubr
          hintmask 1001001010000000
          -36 callsubr
          hintmask 1010100010000000
          -62 callsubr
          hintmask 0110001010000000
          -8 callgsubr
          -44 -701 -13 callgsubr
          hintmask 1010000110000000
          -82 callgsubr
          hintmask 0110100010000000
          -21 callgsubr
        </CharString>
        <CharString name="Rdotbelow">
          9 -2 callsubr
          624 15 callgsubr
          -58 157 50 170 hintmask 11001001
          -86 callsubr
          hintmask 10100101
          -36 callsubr
          hintmask 11010001
          -62 callsubr
          hintmask 11000101
          -8 callgsubr
          hintmask 11000011
          -117 -700 -95 callsubr
        </CharString>
        <CharString name="S">
          -67 -10 44 callgsubr
          97 -26 callsubr
          hintmask 10101100
          326 -64 callsubr
          hintmask 01110010
          -83 callgsubr
          hintmask 10110001
          -15 callsubr
          endchar
        </CharString>
        <CharString name="Sacute">
          33 callgsubr
          60 184 -84 callsubr
          -8 60 0 callsubr
          endchar
        </CharString>
        <CharString name="Scaron">
          33 callgsubr
          244 -20 -84 callsubr
          -110 244 rmoveto
          -18 -37 -37 -6 -6 52 -63 48 -57 hvcurveto
          hintmask 1011101000000000
          -12 7 29 -3 17 hhcurveto
          29 37 6 9 10 hvcurveto
          56 51 76 68 7 vvcurveto
          7 -32 36 -18 -23 -65 -40 -42 -57 vhcurveto
          42 -40 -47 40 -24 hhcurveto
          endchar
        </CharString>
        <CharString name="Schwa">
          69 -10 156 157 114 64 240 -154 154 hstemhm
          20 184 253 186 hintmask 11101100
          20 203 rmoveto
          -123 87 -90 178 272 86 212 207 263 -138 49 -139 -137 -128 -48 -100 -80 82 -12 15 vhcurveto
          hintmask 11011100
          42 -6 86 104 hhcurveto
          81 37 -51 -99 1 hvcurveto
          -66 -3 -212 -12 -124 -29 rrcurveto
          -17 -48 -18 -66 -56 vvcurveto
          285 -57 rmoveto
          -49 -52 26 54 13 3 28 11 14 hvcurveto
          41 6 106 12 80 4 rrcurveto
          -76 -16 -38 -81 -86 hhcurveto
          endchar
        </CharString>
        <CharString name="Scircumflex">
          33 callgsubr
          244 -20 -84 callsubr
          111 60 -105 callgsubr
        </CharString>
        <CharString name="Sdotbelow">
          -67 -2 callsubr
          44 44 callgsubr
          -45 157 -15 -26 callsubr
          hintmask 1101010100000000
          326 -64 callsubr
          hintmask 1011100010000000
          -83 callgsubr
          hintmask 1101001001000000
          -15 callsubr
          -154 -850 -95 callsubr
        </CharString>
        <CharString name="T">
          -64 21 -21 570 140 hstemhm
          167 189 53 callsubr
          hintmask 11010000
          483 -76 callgsubr
          hintmask 11100000
          -36 callgsubr
          endchar
        </CharString>
        <CharString name="Tbar">
          -41 21 -21 373 107 90 140 hstemhm
          180 182 -164 164 hintmask 11101000
          496 -76 callgsubr
          -2 -28 -2 -31 -3 -31 rrcurveto
          -84 hlineto
          -73 0 -52 -44 -18 callsubr
          137 hlineto
          hintmask 11110000
          -8 -127 -10 -123 -38 -59 callgsubr
          55 hlineto
          7 3 4 11 1 hvcurveto
          24 358 rlineto
          77 hlineto
          70 8 38 55 9 -8 5 -8 hvcurveto
          -131 hlineto
          6 90 rlineto
          endchar
        </CharString>
        <CharString name="Tcaron">
          -64 21 -21 570 140 254 -20 hstemhm
          167 189 53 callsubr
          hintmask 11101000
          483 -76 callgsubr
          hintmask 11110000
          -36 callgsubr
          -179 394 -99 callsubr
        </CharString>
        <CharString name="Tdotbelow">
          -64 -2 callsubr
          624 140 hstemhm
          167 150 -116 155 hintmask 11010000
          483 -76 callgsubr
          hintmask 11100000
          -36 callgsubr
          -215 -700 -95 callsubr
        </CharString>
        <CharString name="Thorn">
          -10 21 -21 101 140 240 150 109 -20 hstemhm
          51 173 -153 171 -148 164 149 170 hintmask 11111001
          199 hmoveto
          18 1 10 102 6 hvcurveto
          -7 22 25 -4 33 hhcurveto
          193 80 146 155 142 -68 87 -167 -26 -29 -2 -3 -30 hvcurveto
          hintmask 11110011
          1 11 0 9 8 vvcurveto
          51 -9 35 -83 vhcurveto
          -55 hlineto
          -7 -10 -4 -11 hvcurveto
          hintmask 11110101
          -1 -67 -1 -12 -21 -269 rrcurveto
          hintmask 11111001
          -28 callgsubr
          481 rmoveto
          68 22 -31 -57 -51 -17 -101 -93 -17 -23 3 5 -22 hvcurveto
          15 226 rlineto
          4 25 23 2 19 hhcurveto
          endchar
        </CharString>
        <CharString name="U">
          -11 callsubr
          13 callsubr
          hintmask 11101000
          -101 callgsubr
          hintmask 11011000
          -80 callgsubr
          hintmask 11101000
          -83 callsubr
          endchar
        </CharString>
        <CharString name="Uacute">
          -11 callsubr
          90 184 13 callsubr
          hintmask 11110100
          -101 callgsubr
          hintmask 11101100
          -80 callgsubr
          hintmask 11110100
          -83 callsubr
          -232 454 0 callsubr
          endchar
        </CharString>
        <CharString name="Ubreve">
          -11 callsubr
          90 86 -86 145 13 callsubr
          hintmask 11101010
          -101 callgsubr
          hintmask 11100110
          -80 callgsubr
          hintmask 11011010
          -83 callsubr
          -236 454 -53 callsubr
          hintmask 11101010
          -1 callgsubr
          hintmask 11011010
          -79 callsubr
        </CharString>
        <CharString name="Ucircumflex">
          -11 callsubr
          274 -20 13 callsubr
          hintmask 11110100
          -101 callgsubr
          hintmask 11101100
          -80 callgsubr
          hintmask 11110100
          -83 callsubr
          -113 454 -105 callgsubr
        </CharString>
        <CharString name="Udieresis">
          -11 callsubr
          90 136 -24 callgsubr
          -92 43 callgsubr
          -108 169 hintmask 11110001
          -101 callgsubr
          hintmask 11101010
          -80 callgsubr
          hintmask 11110010
          -83 callsubr
          hintmask 11100110
          -430 512 rmoveto
          -104 callsubr
        </CharString>
        <CharString name="Udotbelow">
          51 -2 callsubr
          44 36 callsubr
          -24 callgsubr
          -70 157 99 169 hintmask 11110010
          -101 callgsubr
          hintmask 11101010
          -80 callgsubr
          hintmask 11110010
          -83 callsubr
          hintmask 11100110
          -408 -456 -95 callsubr
        </CharString>
        <CharString name="Ugrave">
          -11 callsubr
          90 180 -24 callgsubr
          -80 222 44 169 hintmask 11110010
          -101 callgsubr
          hintmask 11101010
          -80 callgsubr
          hintmask 11110010
          -83 callsubr
          hintmask 11100110
          -196 517 rmoveto
          hintmask 11101010
          13 -122 104 -20 vhcurveto
          hintmask 11100110
          -23 -57 -72 -32 -22 123 -54 58 21 20 42 21 hvcurveto
          endchar
        </CharString>
        <CharString name="Uhungarumlaut">
          -11 callsubr
          90 184 -24 callgsubr
          hintmask 11110000
          -101 callgsubr
          hintmask 11101000
          -80 callgsubr
          hintmask 11110000
          -83 callsubr
          -424 454 -45 callgsubr
        </CharString>
        <CharString name="Umacron">
          -11 callsubr
          110 107 13 callsubr
          hintmask 11110100
          -101 callgsubr
          hintmask 11101100
          -80 callgsubr
          hintmask 11110100
          -83 callsubr
          -120 474 -62 callgsubr
          -73 0 -51 -45 -18 callsubr
          endchar
        </CharString>
        <CharString name="Uogonek">
          52 -174 -21 187 154 564 -20 -24 callgsubr
          -90 24 callgsubr
          98 169 hintmask 11110001
          -101 callgsubr
          hintmask 11101001
          -80 callgsubr
          hintmask 11110001
          -4 -73 -29 -291 -89 vvcurveto
          -119 55 -98 139 -17 vhcurveto
          hintmask 11100011
          -54 -41 -22 -40 73 callgsubr
          hintmask 11100101
          29 callsubr
          20 10 22 19 23 vhcurveto
          226 17 35 202 12 115 rrcurveto
          endchar
        </CharString>
        <CharString name="Uring">
          -11 callsubr
          90 48 54 49 -24 callgsubr
          17 67 -67 183 -14 169 hintmask 1111101010000000
          -101 callgsubr
          hintmask 1111011010000000
          -80 callgsubr
          hintmask 1111100100000000
          -83 callsubr
          -224 605 -74 callgsubr
          hvcurveto
          hintmask 1111101010000000
          23 callgsubr
        </CharString>
        <CharString name="Utilde">
          -11 callsubr
          90 115 -50 110 -24 callgsubr
          -114 114 186 169 hintmask 11101001
          -101 callgsubr
          hintmask 11100101
          -80 callgsubr
          hintmask 11101001
          -83 callsubr
          -149 569 rmoveto
          hintmask 11010011
          -60 callsubr
          hintmask 11101001
          -10 callsubr
          hintmask 11011001
          -10 callgsubr
          hintmask 11101001
          -60 callgsubr
          hintmask 11011001
          -9 callgsubr
          hintmask 11101001
          -30 callsubr
        </CharString>
        <CharString name="V">
          15 21 -21 711 -20 21 -20 hstemhm
          hintmask 10100000
          307 149 rmoveto
          -58 355 -7 56 -7 45 rrcurveto
          62 -9 -24 45 -107 hhcurveto
          -50 -20 -7 -15 -24 41 -175 90 -378 hvcurveto
          -57 14 18 -56 67 hhcurveto
          105 hlineto
          19 12 5 14 8 hvcurveto
          42 72 179 452 94 vvcurveto
          hintmask 11000000
          71 -105 3 -26 -30 -5 -5 -25 -6 vhcurveto
          -68 -278 -17 -67 -56 -187 rrcurveto
          endchar
        </CharString>
        <CharString name="W">
          2 callsubr
          hstemhm
          hintmask 11000000
          -74 callsubr
          hintmask 10010000
          -92 callsubr
          hintmask 10100000
          -35 callsubr
          endchar
        </CharString>
        <CharString name="Wacute">
          2 callsubr
          88 184 hstemhm
          hintmask 11001000
          -74 callsubr
          hintmask 10011000
          -92 callsubr
          hintmask 10101000
          -35 callsubr
          -158 631 0 callsubr
          endchar
        </CharString>
        <CharString name="Wcircumflex">
          2 callsubr
          272 -20 hstemhm
          hintmask 11001000
          -74 callsubr
          hintmask 10011000
          -92 callsubr
          hintmask 10101000
          -35 callsubr
          -37 631 -105 callgsubr
        </CharString>
        <CharString name="Wdieresis">
          2 callsubr
          88 136 hstemhm
          323 43 callgsubr
          hintmask 11001110
          -74 callsubr
          hintmask 10011110
          -92 callsubr
          hintmask 10101110
          -35 callsubr
          -345 689 rmoveto
          -104 callsubr
        </CharString>
        <CharString name="Wgrave">
          2 callsubr
          88 180 hstemhm
          309 222 hintmask 11001100
          -74 callsubr
          hintmask 10011100
          -92 callsubr
          hintmask 10101100
          -35 callsubr
          -137 694 -56 callsubr
        </CharString>
        <CharString name="X">
          32 11 -21 720 -20 30 -20 hstemhm
          hintmask 10100000
          604 21 rmoveto
          46 -146 201 -48 96 vhcurveto
          78 52 142 115 50 vvcurveto
          38 -56 101 -48 -9 -10 -4 -8 -6 vhcurveto
          -73 -104 -26 -51 -55 -71 -55 125 rcurveline
          hintmask 11000000
          78 -34 -47 25 -105 hhcurveto
          -42 -24 -8 -7 -13 85 -139 110 -186 hvcurveto
          -90 -61 -131 -109 -56 vvcurveto
          -48 61 -93 38 18 20 19 4 3 vhcurveto
          53 81 43 72 47 71 84 -175 rcurveline
          -42 20 39 -21 101 hhcurveto
          40 23 3 19 hvcurveto
          endchar
        </CharString>
        <CharString name="Y">
          15 callsubr
          hstemhm
          hintmask 11000000
          351 -52 callgsubr
          3 27 9 128 2 63 rrcurveto
          85 88 148 261 66 vvcurveto
          60 -126 3 -13 -18 -7 -5 -25 -8 vhcurveto
          -47 -142 -7 -20 -77 -162 -71 223 29 -91 -35 116 rrcurveto
          hintmask 10100000
          21 callgsubr
          hintmask 11000000
          -67 callgsubr
          endchar
        </CharString>
        <CharString name="Yacute">
          15 callsubr
          88 184 hstemhm
          hintmask 11010000
          351 -52 callgsubr
          3 27 9 128 2 63 rrcurveto
          85 88 148 261 66 vvcurveto
          60 -126 3 -13 -18 -7 -5 -25 -8 vhcurveto
          -47 -142 -7 -20 -77 -162 -71 223 29 -91 -35 116 rrcurveto
          hintmask 10110000
          21 callgsubr
          hintmask 11010000
          -67 callgsubr
          34 780 0 callsubr
          endchar
        </CharString>
        <CharString name="Ycircumflex">
          15 callsubr
          272 -20 hstemhm
          hintmask 11010000
          351 -52 callgsubr
          3 27 9 128 2 63 rrcurveto
          85 88 148 261 66 vvcurveto
          60 -126 3 -13 -18 -7 -5 -25 -8 vhcurveto
          -47 -142 -7 -20 -77 -162 -71 223 29 -91 -35 116 rrcurveto
          hintmask 10110000
          21 callgsubr
          hintmask 11010000
          -67 callgsubr
          153 780 -105 callgsubr
        </CharString>
        <CharString name="Ydieresis">
          15 callsubr
          88 136 hstemhm
          132 43 callgsubr
          hintmask 11011100
          351 -52 callgsubr
          3 27 9 128 2 63 rrcurveto
          85 88 148 261 66 vvcurveto
          60 -126 3 -13 -18 -7 -5 -25 -8 vhcurveto
          -47 -142 -7 -20 -77 -162 -71 223 29 -91 -35 116 rrcurveto
          hintmask 10111100
          21 callgsubr
          hintmask 11011100
          -67 callgsubr
          -164 838 rmoveto
          -104 callsubr
        </CharString>
        <CharString name="Ygrave">
          15 callsubr
          88 180 hstemhm
          144 222 hintmask 11011000
          351 -52 callgsubr
          3 27 9 128 2 63 rrcurveto
          85 88 148 261 66 vvcurveto
          60 -126 3 -13 -18 -7 -5 -25 -8 vhcurveto
          -47 -142 -7 -20 -77 -162 -71 223 29 -91 -35 116 rrcurveto
          hintmask 10111000
          21 callgsubr
          hintmask 11011000
          -67 callgsubr
          70 843 -56 callsubr
        </CharString>
        <CharString name="Ytilde">
          15 callsubr
          88 -18 callgsubr
          hintmask 11010000
          351 -52 callgsubr
          3 27 9 128 2 63 rrcurveto
          85 88 148 261 66 vvcurveto
          60 -126 3 -13 -18 -7 -5 -25 -8 vhcurveto
          -47 -142 -7 -20 -77 -162 -71 223 29 -91 -35 116 rrcurveto
          hintmask 10110000
          21 callgsubr
          hintmask 11010000
          -67 callgsubr
          117 895 rmoveto
          hintmask 11001000
          -60 callsubr
          hintmask 11010000
          -10 callsubr
          hintmask 11001000
          -10 callgsubr
          hintmask 11010000
          -60 callgsubr
          hintmask 11001000
          -9 callgsubr
          hintmask 11010000
          -30 callsubr
        </CharString>
        <CharString name="Z">
          47 callsubr
          hstem
          -94 callgsubr
          endchar
        </CharString>
        <CharString name="Zacute">
          47 callsubr
          70 184 hstem
          -94 callgsubr
          308 780 0 callsubr
          endchar
        </CharString>
        <CharString name="Zcaron">
          47 callsubr
          254 -20 hstem
          -94 callgsubr
          206 964 -99 callsubr
        </CharString>
        <CharString name="Zdotaccent">
          47 callsubr
          70 150 hstem
          241 189 vstem
          -94 callgsubr
          223 844 rmoveto
          -90 callgsubr
        </CharString>
        <CharString name="Zdotbelow">
          -54 -2 callsubr
          54 140 430 140 hstem
          145 157 vstem
          -94 callgsubr
          127 -130 -95 callsubr
        </CharString>
        <CharString name="a">
          -53 callgsubr
          -44 callgsubr
          hintmask 11101001
          -84 callgsubr
          hintmask 11101100
          29 callgsubr
          hintmask 11101010
          -88 callgsubr
          hintmask 11011100
          -99 callgsubr
          endchar
        </CharString>
        <CharString name="aacute">
          -53 callgsubr
          269 -20 -89 callgsubr
          -23 378 -21 callsubr
          endchar
        </CharString>
        <CharString name="abreve">
          -53 callgsubr
          45 86 -86 145 -44 callgsubr
          hintmask 1110101001000000
          -84 callgsubr
          hintmask 1110101100000000
          29 callgsubr
          hintmask 1110101010000000
          -88 callgsubr
          hintmask 1101011100000000
          -99 callgsubr
          -23 368 -53 callsubr
          hintmask 1110101100000000
          -1 callgsubr
          hintmask 1110011100000000
          -79 callsubr
        </CharString>
        <CharString name="acircumflex">
          -53 callgsubr
          269 -20 -89 callgsubr
          104 378 -103 callsubr
        </CharString>
        <CharString name="acute">
          -351 74 callgsubr
          61 615 -21 callsubr
          endchar
        </CharString>
        <CharString name="acute.cap">
          -349 780 184 hstem
          46 780 0 callsubr
          endchar
        </CharString>
        <CharString name="adieresis">
          -53 callgsubr
          59 136 58 callgsubr
          -122 217 -158 158 55 151 -151 210 -195 153 hintmask 1110110001000000
          -84 callgsubr
          hintmask 1110110010000000
          29 callgsubr
          hintmask 1110101000100000
          -88 callgsubr
          hintmask 1101110010000000
          -99 callgsubr
          hintmask 1110100100100000
          -202 440 rmoveto
          -104 callsubr
        </CharString>
        <CharString name="ae">
          37 callsubr
          58 callgsubr
          454 171 hintmask 10101011
          22 callsubr
          hintmask 01101011
          60 -63 11 -13 vhcurveto
          hintmask 10101011
          -7 callgsubr
          hintmask 10010111
          9 callgsubr
          hintmask 10101011
          -49 -57 -28 -82 -1 vhcurveto
          57 7 22 73 59 hhcurveto
          hintmask 10011011
          38 callsubr
          endchar
        </CharString>
        <CharString name="aeacute">
          37 callsubr
          269 -20 58 callgsubr
          454 171 hintmask 1010101110000000
          22 callsubr
          hintmask 0110101110000000
          60 -63 11 -13 vhcurveto
          hintmask 1010101110000000
          -7 callgsubr
          hintmask 1001011110000000
          9 callgsubr
          hintmask 1010101110000000
          -49 -57 -28 -82 -1 vhcurveto
          57 7 22 73 59 hhcurveto
          hintmask 1001101110000000
          38 callsubr
          130 378 -21 callsubr
          endchar
        </CharString>
        <CharString name="agrave">
          -53 callgsubr
          55 214 -44 callgsubr
          hintmask 1110110010000000
          -84 callgsubr
          hintmask 1110111000000000
          29 callgsubr
          hintmask 1110110100000000
          -88 callgsubr
          hintmask 1101110010000000
          -99 callgsubr
          -23 378 -79 callgsubr
        </CharString>
        <CharString name="amacron">
          -53 callgsubr
          58 107 -89 callgsubr
          87 381 -62 callgsubr
          -72 -1 -49 -47 -18 callsubr
          endchar
        </CharString>
        <CharString name="ampersand">
          71 -10 146 168 109 72 236 -148 148 hstemhm
          25 185 -124 165 hintmask 11011000
          336 573 rmoveto
          33 29 -16 -60 5 hvcurveto
          hintmask 11100100
          -11 4 0 -1 14 hhcurveto
          84 45 34 67 74 -54 61 -139 -178 -93 -100 -104 -52 24 -49 41 -31 hvcurveto
          hintmask 11101000
          -79 -37 -47 -60 -96 vvcurveto
          -127 81 -75 163 182 118 99 215 16 vhcurveto
          70 14 12 41 2 hvcurveto
          2 42 rlineto
          9 -1 -8 5 -8 hhcurveto
          -332 hlineto
          hintmask 11010100
          -48 -25 31 40 42 28 47 57 hvcurveto
          hintmask 11101000
          -126 -352 rmoveto
          44 29 39 53 vhcurveto
          131 hlineto
          -120 -15 -46 -48 -63 hhcurveto
          -56 -33 38 47 hvcurveto
          endchar
        </CharString>
        <CharString name="aogonek">
          -45 -174 -21 185 133 114 82 12 229 49 callsubr
          58 callgsubr
          140 126 -126 161 -161 178 -178 220 hintmask 1111010010000000
          11 123 rmoveto
          -97 65 -36 80 83 48 41 46 32 vhcurveto
          8 -46 24 -31 46 -8 rrcurveto
          -53 -41 -21 -39 73 callgsubr
          hintmask 1111011000000000
          29 callsubr
          28 21 31 35 33 vhcurveto
          hintmask 1111010001000000
          28 26 10 39 36 vvcurveto
          hintmask 1111010100000000
          29 callgsubr
          hintmask 1111010010000000
          -88 callgsubr
          hintmask 1110111000000000
          -99 callgsubr
          endchar
        </CharString>
        <CharString name="apostrophe">
          -155 512 -21 119 140 hstemhm
          167 167 53 callsubr
          hintmask 11100000
          231 610 40 callgsubr
          hintmask 11010000
          73 callsubr
        </CharString>
        <CharString name="aring">
          -53 callgsubr
          45 48 54 49 58 callgsubr
          32 67 51 65 -65 151 -151 168 -168 210 hintmask 1110111100010000
          -84 callgsubr
          hintmask 1110111101000000
          29 callgsubr
          hintmask 1110111100100000
          -88 callgsubr
          hintmask 1101111110000000
          -99 callgsubr
          -10 519 -74 callgsubr
          23 callgsubr
        </CharString>
        <CharString name="aringacute">
          -53 callgsubr
          25 48 54 49 238 -20 58 callgsubr
          32 67 51 65 -65 151 -151 168 -168 210 hintmask 1110111110001000
          -84 callgsubr
          hintmask 1110111110100000
          29 callgsubr
          hintmask 1110111110010000
          -88 callgsubr
          hintmask 1101111111000000
          -99 callgsubr
          -10 499 -74 callgsubr
          -6 callgsubr
          -9 73 -21 callsubr
          endchar
        </CharString>
        <CharString name="asciicircum">
          -151 169 -21 264 -20 hstem
          366 148 rmoveto
          18 37 37 6 6 -62 104 -58 96 hvcurveto
          12 -7 -29 3 -17 hhcurveto
          -25 -33 -6 -9 -8 hvcurveto
          -69 -83 -93 -108 -15 vvcurveto
          -7 32 -36 18 27 73 75 77 65 vhcurveto
          -77 48 55 -75 28 hhcurveto
          endchar
        </CharString>
        <CharString name="asciitilde">
          -4 186 125 -60 120 hstemhm
          hintmask 10000000
          424 311 rmoveto
          hintmask 01000000
          -67 -63 60 -103 hhcurveto
          -117 -29 -83 -61 hvcurveto
          hintmask 10000000
          -36 12 -5 8 vhcurveto
          hintmask 01000000
          28 10 65 64 hhcurveto
          hintmask 10000000
          64 57 -65 111 hhcurveto
          119 37 79 66 hvcurveto
          hintmask 01000000
          36 -13 4 -7 vhcurveto
          hintmask 10000000
          -27 -18 -60 -66 hhcurveto
          endchar
        </CharString>
        <CharString name="asterisk">
          -144 368 -21 153 135 -135 250 hstemhm
          214 142 -129 129 -129 224 hintmask 11000100
          294 521 rmoveto
          -9 48 33 -12 27 hhcurveto
          21 28 7 43 46 -31 39 -28 -20 -31 -22 -20 -51 hvcurveto
          hintmask 10110000
          38 58 28 31 31 vvcurveto
          19 -11 18 -46 -57 -28 -27 -49 -16 3 -36 4 -17 vhcurveto
          48 -40 -27 45 -29 hhcurveto
          -24 -37 -33 -56 -51 30 5 87 -21 hvcurveto
          -63 -28 -65 -18 -36 vvcurveto
          -29 45 -38 39 vhcurveto
          hintmask 11001000
          40 13 41 57 37 hvcurveto
          -80 3 -10 -64 47 hhcurveto
          43 50 51 31 26 -32 24 -34 42 hvcurveto
          endchar
        </CharString>
        <CharString name="at">
          191 -109 106 -106 135 45 90 207 83 66 105 hstemhm
          29 121 67 119 126 98 -98 122 74 114 hintmask 0111111101000000
          416 368 rmoveto
          34 12 -22 -44 -59 -21 -82 -60 -30 -15 20 51 13 1 123 79 hvcurveto
          -68 -477 rmoveto
          101 30 29 25 14 hvcurveto
          13 24 1 27 8 vvcurveto
          17 -5 5 -11 vhcurveto
          hintmask 1011111101000000
          -27 -18 -29 -84 hhcurveto
          -130 -82 70 156 151 76 143 211 162 59 -84 -125 -77 -22 -73 -46 -29 -1 29 10 hvcurveto
          hintmask 0111111011000000
          50 24 124 32 vvcurveto
          30 -20 18 -41 vhcurveto
          -31 hlineto
          -11 -5 -34 -17 -1 hvcurveto
          41 -11 -21 17 -50 hhcurveto
          -109 -67 -83 -144 -116 44 -44 71 55 31 26 32 25 hvcurveto
          -41 53 -18 61 151 64 112 143 152 -72 145 -257 -281 -133 -174 -225 -198 103 -134 216 vhcurveto
          endchar
        </CharString>
        <CharString name="atilde">
          -53 callgsubr
          45 115 -50 110 -44 callgsubr
          hintmask 1110101001000000
          -84 callgsubr
          hintmask 1110101100000000
          29 callgsubr
          hintmask 1110101010000000
          -88 callgsubr
          hintmask 1101101100000000
          -99 callgsubr
          74 483 rmoveto
          hintmask 1110011100000000
          -60 callsubr
          hintmask 1110101100000000
          -10 callsubr
          hintmask 1110011100000000
          -10 callgsubr
          hintmask 1110101100000000
          -60 callgsubr
          hintmask 1110011100000000
          -9 callgsubr
          hintmask 1110101100000000
          -30 callsubr
        </CharString>
        <CharString name="b">
          -8 -10 53 callgsubr
          45 165 -131 164 147 175 hintmask 11101100
          270 -10 rmoveto
          253 42 206 125 158 -68 81 -120 -71 -41 -28 -60 -34 hvcurveto
          51 callsubr
          hvcurveto
          hintmask 11110100
          -61 -34 -381 -54 vvcurveto
          -89 19 -136 206 vhcurveto
          45 437 rmoveto
          54 21 -41 -74 -49 -9 -140 -95 -51 -25 36 92 61 10 115 95 hvcurveto
          endchar
        </CharString>
        <CharString name="backslash">
          -279 11 -21 720 -20 hstem
          199 -10 rmoveto
          43 34 4 71 63 -25 140 -74 413 hvcurveto
          28 -5 -13 1 -16 hhcurveto
          -83 -3 -30 -48 -57 29 -115 69 -432 hvcurveto
          -36 6 9 -2 29 hhcurveto
          endchar
        </CharString>
        <CharString name="bar">
          -333 -164 -21 895 -20 hstemhm
          33 144 -88 146 hintmask 11100000
          155 -185 rmoveto
          -78 callsubr
          hintmask 11010000
          23 287 35 458 39 -19 callsubr
          -23 hlineto
          -18 -1 -1 -28 -2 hvcurveto
          hintmask 11100000
          -21 -294 -35 -436 -41 58 callsubr
          82 vhcurveto
          endchar
        </CharString>
        <CharString name="braceleft">
          -159 -185 140 254 140 391 -20 hstem
          5 249 -151 151 vstem
          255 142 rmoveto
          62 -18 63 -58 22 vhcurveto
          63 34 24 60 8 68 11 96 6 46 86 7 42 3 29 3 5 61 3 40 rcurveline
          20 -7 13 -23 vhcurveto
          -89 hlineto
          -114 -75 -58 -103 -11 hvcurveto
          -140 -15 -11 -90 -84 hhcurveto
          -8 -9 -4 -10 -1 hvcurveto
          -7 -112 rlineto
          -10 7 -4 9 73 12 -54 -64 vhcurveto
          -28 -2 -28 -32 vvcurveto
          -88 18 -100 137 vhcurveto
          72 hlineto
          60 3 27 40 3 hvcurveto
          4 59 rlineto
          -86 callgsubr
          -46 hlineto
          -71 -11 45 88 hvcurveto
          16 1 18 20 vvcurveto
          endchar
        </CharString>
        <CharString name="braceright">
          -159 -164 -21 391 140 254 140 hstem
          190 151 -151 248 vstem
          189 413 rmoveto
          -62 18 -63 58 -22 vhcurveto
          -63 -34 -24 -60 -8 -68 -11 -96 -6 -46 -86 -7 -44 -3 -28 -3 -4 -61 -3 -40 rcurveline
          -20 7 -13 23 vhcurveto
          89 hlineto
          114 75 58 103 11 hvcurveto
          140 15 11 90 84 hhcurveto
          8 9 4 10 1 hvcurveto
          7 112 rlineto
          10 -7 4 -9 -73 -12 54 64 vhcurveto
          28 2 28 32 vvcurveto
          88 -18 100 -137 vhcurveto
          -62 hlineto
          52 callgsubr
          8 -4 8 vhcurveto
          46 hlineto
          71 11 -45 -88 hvcurveto
          -16 -1 -18 -20 vvcurveto
          endchar
        </CharString>
        <CharString name="bracketleft">
          70 callsubr
          33 159 -126 170 hintmask 11100000
          269 -185 rmoveto
          -69 callgsubr
          -141 hlineto
          hintmask 11010000
          14 189 23 344 7 112 rrcurveto
          92 hlineto
          -69 callgsubr
          -287 hlineto
          43 callsubr
          -35 -12 -173 -11 -140 hvcurveto
          hintmask 11100000
          -10 -128 -23 -310 -39 vvcurveto
          -52 23 -33 58 vhcurveto
          endchar
        </CharString>
        <CharString name="bracketright">
          70 callsubr
          180 149 -149 182 hintmask 11100000
          126 740 rmoveto
          52 callgsubr
          7 -4 9 vhcurveto
          140 hlineto
          -43 -645 rlineto
          -92 hlineto
          52 callgsubr
          7 -4 9 vhcurveto
          287 59 callsubr
          hintmask 11010000
          10 128 23 310 39 vvcurveto
          54 -24 31 -60 vhcurveto
          endchar
        </CharString>
        <CharString name="breve">
          -259 605 -1 callsubr
          hintmask 01000000
          159 605 -53 callsubr
          hintmask 10000000
          -1 callgsubr
          hintmask 01000000
          -79 callsubr
        </CharString>
        <CharString name="breve.cap">
          -279 780 -1 callsubr
          hintmask 01000000
          149 780 -53 callsubr
          hintmask 10000000
          -1 callgsubr
          hintmask 01000000
          -79 callsubr
        </CharString>
        <CharString name="brokenbar">
          -334 -164 -21 895 -20 hstemhm
          52 146 -110 146 hintmask 11010000
          190 315 rmoveto
          9 15 5 15 1 hvcurveto
          2 29 17 205 50 vvcurveto
          57 -22 34 -80 31 callsubr
          -16 -500 rmoveto
          9 15 5 15 1 hvcurveto
          hintmask 11100000
          2 29 17 230 37 vvcurveto
          45 -24 34 -78 31 callsubr
          endchar
        </CharString>
        <CharString name="bullet">
          -241 163 246 hstem
          61 241 vstem
          189 409 rmoveto
          -90 -38 -69 -65 -58 30 -54 81 106 24 91 48 61 -39 46 -74 hvcurveto
          endchar
        </CharString>
        <CharString name="c">
          -27 callgsubr
          80 callsubr
          138 156 hintmask 10011100
          293 -48 callsubr
          hintmask 01101100
          -73 callgsubr
          hintmask 10101100
          -23 -34 -52 -78 hhcurveto
          endchar
        </CharString>
        <CharString name="cacute">
          -27 callgsubr
          269 -20 80 callsubr
          138 156 hintmask 10011110
          293 -48 callsubr
          hintmask 01101110
          -73 callgsubr
          hintmask 10101110
          -23 -34 -52 -78 hhcurveto
          23 492 -21 callsubr
          endchar
        </CharString>
        <CharString name="caron">
          -247 615 204 hstem
          65 819 -96 callsubr
        </CharString>
        <CharString name="caron.alt">
          -438 516 229 -129 129 hstemhm
          10 150 hintmask 01100000
          62 616 rmoveto
          -31 -49 -19 -8 vvcurveto
          hintmask 10100000
          -7 callsubr
          vhcurveto
          hintmask 01100000
          -30 14 -23 38 vhcurveto
          endchar
        </CharString>
        <CharString name="caron.cap">
          -247 801 -21 184 -20 hstem
          55 964 -99 callsubr
        </CharString>
        <CharString name="ccaron">
          -27 callgsubr
          55 204 80 callsubr
          138 156 hintmask 10011110
          293 -48 callsubr
          hintmask 01101110
          -73 callgsubr
          hintmask 10101110
          -23 -34 -52 -78 hhcurveto
          -73 696 -96 callsubr
        </CharString>
        <CharString name="ccedilla">
          -99 16 callsubr
          440 249 -133 133 hstemhm
          30 170 -31 210 -99 99 -41 156 hintmask 1010110010000000
          294 -48 callsubr
          hintmask 1011010010000000
          -12 6 -2 20 82 48 33 72 80 -59 64 -130 -240 -35 -217 -103 -171 96 -63 92 -13 vhcurveto
          -7 -23 -6 -27 -13 vvcurveto
          hintmask 1011010100000000
          -42 callsubr
          hintmask 0101001000000000
          -29 callgsubr
          4 32 75 9 47 42 11 13 rlinecurve
          13 15 19 56 18 vvcurveto
          19 -9 11 -14 vhcurveto
          -23 -34 -52 -78 hhcurveto
          endchar
        </CharString>
        <CharString name="ccircumflex">
          -27 callgsubr
          269 -20 80 callsubr
          138 156 hintmask 10011110
          293 -48 callsubr
          hintmask 01101110
          -73 callgsubr
          hintmask 10101110
          -23 -34 -52 -78 hhcurveto
          141 492 -103 callsubr
        </CharString>
        <CharString name="cdotaccent">
          -27 callgsubr
          45 150 80 callsubr
          32 189 -83 156 hintmask 10011101
          293 -48 callsubr
          hintmask 01101101
          -73 callgsubr
          hintmask 10101110
          -23 -34 -52 -78 hhcurveto
          -62 546 rmoveto
          -90 callgsubr
        </CharString>
        <CharString name="cedilla">
          -378 16 callsubr
          158 -20 hstemhm
          10 210 -174 174 -99 99 hintmask 10110100
          133 24 rmoveto
          -59 5 rlineto
          -10 -18 -18 -60 -21 vvcurveto
          hintmask 10110010
          -42 callsubr
          hintmask 01011000
          -29 callgsubr
          endchar
        </CharString>
        <CharString name="cent">
          -97 -104 227 304 230 hstem
          25 170 138 156 vstem
          289 -48 callsubr
          -12 6 -2 20 82 48 33 72 67 -42 56 -90 16 vhcurveto
          1 5 0 4 2 vvcurveto
          57 -18 34 -67 -27 4 -56 -45 -5 vhcurveto
          -191 -31 -29 -191 -94 vvcurveto
          -159 84 -66 86 -18 vhcurveto
          -6 vlineto
          -61 76 callsubr
          81 60 14 38 34 10 11 rlinecurve
          13 15 19 56 18 vvcurveto
          19 -9 11 -14 vhcurveto
          -23 -34 -52 -78 hhcurveto
          endchar
        </CharString>
        <CharString name="circumflex">
          -247 74 callgsubr
          296 615 -103 callsubr
        </CharString>
        <CharString name="circumflex.cap">
          -247 801 -21 184 -20 hstem
          306 780 -105 callgsubr
        </CharString>
        <CharString name="colon">
          -329 -10 188 108 188 hstemhm
          33 176 -151 176 hintmask 11100000
          131 178 -32 callsubr
          25 296 rmoveto
          hintmask 11010000
          41 callsubr
        </CharString>
        <CharString name="comma">
          -349 63 callsubr
          188 hstemhm
          21 181 -107 107 hintmask 11100000
          95 -10 31 callgsubr
          -67 -39 -38 -81 vhcurveto
          hintmask 11010000
          -39 20 -30 54 vhcurveto
          endchar
        </CharString>
        <CharString name="commaaccent">
          -476 -19 callgsubr
          hstemhm
          10 112 hintmask 01100000
          50 -131 -13 callgsubr
          hintmask 10100000
          -82 callgsubr
          hintmask 01100000
          -21 callgsubr
        </CharString>
        <CharString name="copyright">
          195 -10 96 73 90 128 168 -90 90 81 95 hstemhm
          38 101 103 120 306 101 hintmask 11011111
          426 249 rmoveto
          -44 -20 21 64 38 7 83 55 hvcurveto
          hintmask 11101111
          48 -38 -78 39 hhcurveto
          59 34 23 47 54 -45 44 -91 -165 -23 -147 -69 -134 86 -36 69 68 42 35 10 9 hvcurveto
          10 12 12 35 14 vvcurveto
          11 -7 8 -8 vhcurveto
          -18 -22 -35 -57 hhcurveto
          -49 -163 -30 callgsubr
          endchar
        </CharString>
        <CharString name="currency">
          64 25 178 -175 -21 63 133 224 133 -133 163 hstemhm
          56 170 195 170 -170 229 hintmask 01110110
          293 70 rmoveto
          58 47 9 16 38 hvcurveto
          hintmask 10010110
          -53 44 15 -17 27 hhcurveto
          32 41 26 16 13 -26 31 -41 48 hvcurveto
          49 58 14 76 58 vvcurveto
          25 -3 23 -5 21 vhcurveto
          hintmask 10010101
          35 28 32 27 29 vvcurveto
          25 -24 45 -17 -12 -24 -19 -41 -49 vhcurveto
          30 -39 -55 16 -76 hhcurveto
          -62 -50 -10 -18 -41 hvcurveto
          hintmask 01101110
          32 -27 -24 26 -28 hhcurveto
          -30 -36 -29 -12 -11 28 -37 30 -36 hvcurveto
          -42 -51 -16 -66 -66 vvcurveto
          -51 9 -46 26 -36 vhcurveto
          -44 -40 -10 -17 -15 vvcurveto
          -20 20 -50 25 21 34 35 42 47 vhcurveto
          -9 30 36 -5 43 hhcurveto
          45 357 rmoveto
          60 23 -33 -52 -48 -20 -91 -95 -52 -28 28 62 41 12 93 100 hvcurveto
          endchar
        </CharString>
        <CharString name="d">
          0 -33 callsubr
          180 -20 hstem
          56 callsubr
          vstem
          -93 callsubr
          endchar
        </CharString>
        <CharString name="dagger">
          -123 -164 -21 534 135 226 -20 hstemhm
          134 144 -113 153 -153 171 hintmask 11100100
          392 349 rmoveto
          -100 callgsubr
          54 -25 callgsubr
          -128 hlineto
          5 72 3 51 12 -19 callsubr
          -23 hlineto
          -18 49 callgsubr
          hvcurveto
          -5 -61 -4 -68 -5 -68 rrcurveto
          -72 -72 callgsubr
          125 hlineto
          hintmask 11110000
          -16 -216 -15 -196 -27 58 callsubr
          82 vhcurveto
          20 -47 callsubr
          hintmask 11101000
          12 153 16 200 12 161 rrcurveto
          endchar
        </CharString>
        <CharString name="daggerdbl">
          -107 -164 -21 258 135 141 135 226 -20 hstemhm
          154 134 -102 160 hintmask 11110100
          378 73 17 callsubr
          -125 hlineto
          11 141 rlineto
          74 hlineto
          -66 callsubr
          -128 hlineto
          5 72 3 51 12 -19 callsubr
          -23 hlineto
          -18 49 callgsubr
          hvcurveto
          -5 -61 -4 -68 -5 -68 rrcurveto
          -72 -72 callgsubr
          125 hlineto
          -3 -49 -4 -47 -4 -45 rrcurveto
          -74 -72 callgsubr
          hintmask 11111000
          128 hlineto
          -6 -86 -4 -63 -14 58 callsubr
          82 vhcurveto
          20 -47 callsubr
          5 72 7 82 7 84 rrcurveto
          endchar
        </CharString>
        <CharString name="dcaron">
          76 -33 callsubr
          -39 229 -129 129 -10 -20 hstemhm
          56 callsubr
          33 150 hintmask 11010111
          661 61 callgsubr
          hintmask 10100111
          -7 callsubr
          vhcurveto
          hintmask 11010111
          -30 14 -23 38 vhcurveto
          -437 -631 rmoveto
          73 49 35 51 24 hvcurveto
          -61 43 -15 57 vhcurveto
          36 hlineto
          19 1 4 16 2 hvcurveto
          6 60 42 572 2 vvcurveto
          hintmask 11001111
          45 -24 41 -80 vhcurveto
          -39 hlineto
          -11 -2 0 -3 -3 hvcurveto
          -3 -3 -1 -7 -1 -16 -5 -84 -5 -41 -5 -104 rrcurveto
          57 -11 -42 21 -66 hhcurveto
          -208 -40 -209 -116 -172 89 -73 105 hvcurveto
          87 437 rmoveto
          67 14 -63 -67 -119 -44 -55 -57 -65 -15 71 69 100 32 64 68 hvcurveto
          endchar
        </CharString>
        <CharString name="dcroat">
          0 -33 callsubr
          5 107 68 -20 hstemhm
          30 181 199 159 -159 237 hintmask 11111100
          224 -10 rmoveto
          73 49 35 51 24 hvcurveto
          -61 43 -15 57 vhcurveto
          36 hlineto
          19 1 4 16 2 hvcurveto
          4 45 25 336 12 164 rrcurveto
          hintmask 11111010
          70 8 38 55 9 -8 5 -8 hvcurveto
          -56 hlineto
          37 -6 -28 31 -69 hhcurveto
          -39 hlineto
          -11 -2 0 -3 -3 hvcurveto
          -3 -3 -1 -7 -1 -16 -3 -39 rcurveline
          -73 0 -51 -45 -18 callsubr
          54 hlineto
          -1 -24 -2 -26 -1 -33 rrcurveto
          57 -11 -42 21 -66 hhcurveto
          -208 -40 -209 -116 -172 89 -73 105 hvcurveto
          87 437 rmoveto
          67 14 -63 -67 -119 -44 -55 -57 -65 -15 71 69 100 32 64 68 hvcurveto
          endchar
        </CharString>
        <CharString name="ddotbelow">
          0 -2 callsubr
          44 53 callgsubr
          30 181 -59 157 103 164 hintmask 11111010
          -93 callsubr
          hintmask 11110110
          -159 -557 -95 callsubr
        </CharString>
        <CharString name="degree">
          -228 426 94 102 94 hstem
          50 110 96 110 vstem
          191 426 rmoveto
          147 28 101 65 77 -40 47 -100 -133 -43 -83 -82 -70 32 -55 109 hvcurveto
          26 196 rmoveto
          31 8 -17 -23 -24 -8 -38 -46 -24 -18 11 30 26 13 35 44 hvcurveto
          endchar
        </CharString>
        <CharString name="dieresis">
          -222 619 76 callgsubr
          677 vmoveto
          -104 callsubr
        </CharString>
        <CharString name="dieresis.cap">
          -222 780 76 callgsubr
          838 vmoveto
          -104 callsubr
        </CharString>
        <CharString name="divide">
          -125 13 165 50 122 50 165 hstemhm
          132 174 -120 174 cntrmask 11100000
          hintmask 11101000
          283 565 rmoveto
          51 callgsubr
          93 -337 -34 callsubr
          195 -50 rmoveto
          hintmask 11110000
          51 callgsubr
          endchar
        </CharString>
        <CharString name="dollar">
          -80 -104 250 422 243 hstemhm
          24 186 -162 162 97 -26 callsubr
          hintmask 11011000
          48 483 rmoveto
          -233 259 48 -101 vvcurveto
          -38 -37 -13 -38 vhcurveto
          -94 -42 78 -37 hhcurveto
          hintmask 11100100
          -26 -9 -36 -88 -36 69 -52 100 -17 hvcurveto
          -65 76 callsubr
          77 rlineto
          123 17 61 84 106 226 -279 -37 109 vvcurveto
          41 40 29 42 61 3 -66 -27 -14 4 -4 24 vhcurveto
          hintmask 11010010
          77 43 41 74 76 -46 55 -93 14 hvcurveto
          60 -18 34 -67 -27 4 -53 -44 -5 vhcurveto
          -106 -20 -98 -68 -143 vvcurveto
          endchar
        </CharString>
        <CharString name="dotaccent">
          -419 605 150 hstem
          0 189 vstem
          669 vmoveto
          -90 callgsubr
        </CharString>
        <CharString name="dotaccent.cap">
          -419 780 150 hstem
          0 189 vstem
          844 vmoveto
          -90 callgsubr
        </CharString>
        <CharString name="dotbelow">
          -419 -2 callsubr
          hstem
          16 157 vstem
          16 -130 -95 callsubr
        </CharString>
        <CharString name="dotlessi">
          -328 21 -21 550 -20 4 callgsubr
          -130 162 hintmask 11010000
          179 hmoveto
          -78 callsubr
          hintmask 11001000
          -82 callsubr
          hintmask 11100000
          -88 callsubr
          endchar
        </CharString>
        <CharString name="dotlessj">
          -329 -44 callsubr
          160 585 -20 hstemhm
          45 157 -144 176 hintmask 10110000
          45 121 -6 callsubr
          hintmask 01110000
          -63 callgsubr
          hintmask 10101000
          -71 callgsubr
          endchar
        </CharString>
        <CharString name="e">
          -76 -10 -24 callsubr
          -5 callgsubr
          vstemhm
          -54 callgsubr
          hintmask 11111000
          -105 callsubr
          endchar
        </CharString>
        <CharString name="eacute">
          -76 -10 -24 callsubr
          269 -20 -5 callgsubr
          vstemhm
          -54 callgsubr
          hintmask 11111100
          -105 callsubr
          44 188 -21 callsubr
          endchar
        </CharString>
        <CharString name="ebreve">
          -76 -10 125 -125 -24 callsubr
          45 86 -86 145 -5 callgsubr
          hintmask 01111011
          -54 callgsubr
          hintmask 01110111
          -105 callsubr
          44 178 -53 callsubr
          hintmask 10111011
          -1 callgsubr
          hintmask 10110111
          -79 callsubr
        </CharString>
        <CharString name="ecaron">
          -76 -10 -24 callsubr
          55 204 -5 callgsubr
          vstemhm
          -54 callgsubr
          hintmask 11111100
          -105 callsubr
          -54 392 -96 callsubr
        </CharString>
        <CharString name="ecircumflex">
          -76 -10 -24 callsubr
          269 -20 -5 callgsubr
          vstemhm
          -54 callgsubr
          hintmask 11111100
          -105 callsubr
          157 188 -103 callsubr
        </CharString>
        <CharString name="edieresis">
          -76 -10 125 -125 -24 callsubr
          59 136 65 callsubr
          -59 158 43 171 -144 158 hintmask 0111110100000000
          -54 callgsubr
          -105 callsubr
          hintmask 1011101010000000
          -150 250 rmoveto
          -104 callsubr
        </CharString>
        <CharString name="edotaccent">
          -76 -10 125 -125 -24 callsubr
          45 150 65 callsubr
          52 189 -99 171 hintmask 01111110
          -54 callgsubr
          hintmask 01111101
          -105 callsubr
          hintmask 10111110
          -39 242 rmoveto
          -90 callgsubr
        </CharString>
        <CharString name="edotbelow">
          -76 -2 callsubr
          44 125 -125 -24 callsubr
          65 callsubr
          -42 157 27 171 hintmask 10111101
          -54 callgsubr
          -105 callsubr
          hintmask 11011011
          -133 -557 -95 callsubr
        </CharString>
        <CharString name="egrave">
          -76 -10 -24 callsubr
          55 214 -5 callgsubr
          vstemhm
          -54 callgsubr
          hintmask 11111100
          -105 callsubr
          34 188 -79 callgsubr
        </CharString>
        <CharString name="eight">
          -5 -10 156 186 92 155 140 hstemhm
          32 191 -151 185 112 184 -169 169 hintmask 11101100
          560 258 rmoveto
          63 -27 44 -60 30 vhcurveto
          62 41 18 51 53 vvcurveto
          92 -54 87 -164 -192 -71 -120 -104 -68 30 -42 37 -16 vhcurveto
          hintmask 11110100
          -72 -47 -35 -63 -74 vvcurveto
          -113 84 -82 152 211 81 159 109 vhcurveto
          -249 74 rmoveto
          34 24 -15 -52 -40 -14 -79 -70 -40 -22 25 51 36 11 74 77 hvcurveto
          18 247 rmoveto
          hintmask 11101010
          38 17 -24 -32 -37 -14 -62 -61 -33 -19 17 43 32 13 63 59 hvcurveto
          endchar
        </CharString>
        <CharString name="eightinferior">
          -292 -10 76 78 42 65 68 hstemhm
          9 63 callgsubr
          hintmask 11101100
          277 111 -63 callsubr
          hintmask 11110100
          48 callgsubr
          hintmask 11101100
          -50 callgsubr
          hintmask 11110100
          -47 callgsubr
          hintmask 11101100
          5 callgsubr
          endchar
        </CharString>
        <CharString name="eightsuperior">
          391 76 78 42 65 68 hstemhm
          36 63 callgsubr
          hintmask 11101100
          304 512 -63 callsubr
          hintmask 11110100
          48 callgsubr
          hintmask 11101100
          -50 callgsubr
          hintmask 11110100
          -47 callgsubr
          hintmask 11101100
          5 callgsubr
          endchar
        </CharString>
        <CharString name="ellipsis">
          115 -10 188 hstem
          22 176 60 176 60 176 cntrmask 01110000
          120 178 -32 callsubr
          236 hmoveto
          -61 callsubr
          236 hmoveto
          41 callsubr
        </CharString>
        <CharString name="emacron">
          -76 -10 -24 callsubr
          58 107 -5 callgsubr
          vstemhm
          -54 callgsubr
          hintmask 11111100
          -105 callsubr
          135 191 -62 callgsubr
          -72 -1 -49 -47 -18 callsubr
          endchar
        </CharString>
        <CharString name="emdash">
          290 209 135 hstem
          766 209 rmoveto
          -100 callgsubr
          54 -25 callgsubr
          -708 -72 callgsubr
          endchar
        </CharString>
        <CharString name="endash">
          8 209 135 hstem
          484 209 rmoveto
          -100 callgsubr
          54 -25 callgsubr
          -426 -72 callgsubr
          endchar
        </CharString>
        <CharString name="eng">
          14 -44 callsubr
          160 461 134 11 -21 hstemhm
          42 169 -139 139 191 170 hintmask 10101010
          344 -70 rmoveto
          hintmask 01101010
          -24 -5 35 -7 hhcurveto
          -23 -91 -6 -64 -62 88 -28 76 98 75 46 142 13 hvcurveto
          16 177 12 133 70 vvcurveto
          142 -49 45 -115 -80 -49 -21 -73 -43 vhcurveto
          hintmask 10010110
          44 -3 -21 40 -80 hhcurveto
          -39 hlineto
          -14 -5 -5 -24 -2 hvcurveto
          hintmask 10101010
          -88 callsubr
          36 hlineto
          14 7 7 13 1 hvcurveto
          18 228 rlineto
          108 9 41 70 76 hhcurveto
          50 6 -31 -40 -288 -10 -137 -48 hvcurveto
          endchar
        </CharString>
        <CharString name="eogonek">
          -75 -174 -21 412 80 130 133 65 callsubr
          -53 24 callgsubr
          17 171 hintmask 11110010
          468 99 rmoveto
          60 -63 11 -13 vhcurveto
          -28 1 -55 -70 hhcurveto
          -68 -27 51 51 hvcurveto
          65 248 10 183 hvcurveto
          hintmask 11100110
          82 -49 68 -139 vhcurveto
          hintmask 11110010
          -258 -39 -235 -101 -157 95 -61 100 -13 hvcurveto
          hintmask 11100110
          -54 -41 -22 -40 73 callgsubr
          hintmask 11101010
          29 callsubr
          20 11 22 18 22 vhcurveto
          82 7 84 31 70 vvcurveto
          -177 328 rmoveto
          34 17 -25 -27 -49 -57 -28 -82 -1 hvcurveto
          57 7 22 73 59 hhcurveto
          endchar
        </CharString>
        <CharString name="equal">
          -65 94 135 125 135 hstem
          415 354 17 callsubr
          -322 -72 callgsubr
          286 -260 17 callsubr
          -322 -72 callgsubr
          endchar
        </CharString>
        <CharString name="eth">
          -5 -10 156 190 120 262 -20 53 -20 hstemhm
          16 189 155 209 -181 181 hintmask 11111010
          530 583 rmoveto
          46 18 15 18 23 vvcurveto
          18 -13 58 -19 -2 -31 -13 -26 -62 vhcurveto
          50 -51 -62 22 -56 hhcurveto
          -61 -44 -26 -49 -15 4 -16 5 -11 hvcurveto
          39 32 -8 -12 25 hvcurveto
          -6 -3 -7 -2 -6 -2 rrcurveto
          -32 -12 -11 -25 -18 vvcurveto
          -22 16 -55 11 4 14 7 39 96 vhcurveto
          10 -29 4 -30 -25 vvcurveto
          -30 -5 -14 -5 -7 vhcurveto
          6 -3 -39 64 -98 hhcurveto
          -102 -120 -64 -165 -139 86 -98 163 245 59 222 167 83 -15 67 -24 54 hvcurveto
          -248 -247 rmoveto
          hintmask 11111100
          61 17 -49 -45 -57 -27 -39 -49 -55 -24 49 51 48 21 42 56 hvcurveto
          endchar
        </CharString>
        <CharString name="etilde">
          -76 -10 125 -125 -24 callsubr
          45 115 -50 110 -5 callgsubr
          hintmask 01111011
          -54 callgsubr
          -105 callsubr
          141 293 rmoveto
          hintmask 10110111
          -60 callsubr
          hintmask 10111011
          -10 callsubr
          hintmask 10110111
          -10 callgsubr
          hintmask 10111011
          -60 callgsubr
          hintmask 10110111
          -9 callgsubr
          hintmask 10111011
          -30 callsubr
        </CharString>
        <CharString name="exclam">
          -313 -10 188 562 -20 hstemhm
          29 176 -138 138 -112 182 hintmask 11100000
          127 39 callsubr
          58 70 rmoveto
          15 4 4 16 3 hvcurveto
          hintmask 11001000
          20 102 48 227 71 vvcurveto
          38 -29 34 -73 vhcurveto
          -59 -89 callsubr
          hintmask 11010000
          -20 -294 -6 -34 -37 vvcurveto
          -65 16 -33 66 vhcurveto
          endchar
        </CharString>
        <CharString name="exclamdown">
          -322 -164 -21 562 188 hstemhm
          9 182 -112 138 -138 176 hintmask 11001000
          157 39 callgsubr
          -58 -70 rmoveto
          -14 -5 -4 -16 -3 hvcurveto
          hintmask 11100000
          -20 -102 -48 -227 -71 vvcurveto
          -38 29 -34 73 vhcurveto
          59 hlineto
          10 4 0 3 3 hvcurveto
          3 3 0 8 1 15 rrcurveto
          hintmask 11010000
          21 294 5 34 37 vvcurveto
          65 -16 33 -66 vhcurveto
          endchar
        </CharString>
        <CharString name="f">
          -157 74 callsubr
          215 -130 130 hstemhm
          29 219 -164 164 127 146 hintmask 11011010
          309 1 callsubr
          70 7 17 69 54 hhcurveto
          36 3 -27 -44 hvcurveto
          hintmask 11101010
          35 callsubr
          -51 51 -134 -137 -83 -56 -173 -17 vhcurveto
          -4 -40 -57 -2 -7 -35 -2 -33 rlinecurve
          -1 -20 -2 -24 -10 vvcurveto
          -68 callgsubr
          hintmask 11100110
          47 13 callgsubr
          endchar
        </CharString>
        <CharString name="f_b">
          321 -10 133 223 135 -54 133 60 134 hstemhm
          67 44 callsubr
          hintmask 1101010110000000
          569 606 rmoveto
          100 -38 48 -152 -173 -89 -56 -177 -18 vhcurveto
          8 callgsubr
          hintmask 1101100110000000
          -65 callsubr
          12 21 59 71 hhcurveto
          34 3 -18 -29 hvcurveto
          hintmask 1011101010000000
          11 callgsubr
          hintmask 1011100110000000
          7 87 2 26 21 vvcurveto
          77 -179 52 callsubr
          hvcurveto
          hintmask 1011101010000000
          -50 -25 37 92 58 11 117 93 hvcurveto
          endchar
        </CharString>
        <CharString name="f_f">
          147 74 callsubr
          215 -159 134 -105 130 hstemhm
          85 163 139 164 127 146 hintmask 11001111
          612 1 callsubr
          70 7 17 69 54 hhcurveto
          36 3 -27 -44 hvcurveto
          hintmask 11100111
          35 callsubr
          -51 51 -134 -68 -54 -14 -34 -40 vhcurveto
          hintmask 11010111
          14 -32 -42 9 -54 -77 callgsubr
          139 13 callgsubr
          -202 245 4 callsubr
        </CharString>
        <CharString name="f_f_b">
          624 -10 133 223 135 -54 133 31 56 callgsubr
          122 44 callsubr
          hintmask 1101010110100000
          388 346 rmoveto
          hintmask 1100111001100000
          -65 callsubr
          12 21 59 71 hhcurveto
          34 3 -18 -29 hvcurveto
          hintmask 1011011010100000
          11 callgsubr
          hintmask 1100111001100000
          7 86 2 25 23 vvcurveto
          100 -38 48 -152 -90 -66 -15 -39 -47 vhcurveto
          hintmask 1101010110100000
          16 -32 -43 9 -55 -77 callgsubr
          hintmask 1011011010100000
          701 81 52 callsubr
          -50 -25 37 92 58 11 117 93 hvcurveto
          -600 164 rmoveto
          41 12 -27 -43 hvcurveto
          hintmask 1101011010100000
          -4 -40 rlineto
          -138 hlineto
          61 10 22 49 57 hhcurveto
          endchar
        </CharString>
        <CharString name="f_f_i">
          272 74 callsubr
          219 -163 56 callgsubr
          140 50 callgsubr
          hintmask 1110011010000000
          793 hmoveto
          -78 callsubr
          hintmask 1100111001000000
          32 callgsubr
          hintmask 1110011000100000
          54 5 -27 -44 35 callsubr
          -57 55 -148 -75 -61 -16 -38 -44 hvcurveto
          hintmask 1101011010000000
          16 -32 -43 9 -55 -77 callgsubr
          140 hlineto
          -9 -116 -9 -128 0 vvcurveto
          -85 25 -17 45 callsubr
          121 hlineto
          hintmask 1101011100000000
          67 callgsubr
          -408 591 4 callsubr
        </CharString>
        <CharString name="f_f_l">
          309 12 -21 355 135 110 56 callgsubr
          122 30 callsubr
          hintmask 1110110010000000
          772 -9 rmoveto
          92 24 61 60 hvcurveto
          hintmask 1110110001000000
          17 -60 -26 81 vvcurveto
          hintmask 1101110000100000
          69 callsubr
          -84 -63 -15 -37 -43 vhcurveto
          hintmask 1110101100000000
          14 -32 -42 9 -54 -77 callgsubr
          140 hlineto
          hintmask 1101110001000000
          -65 callsubr
          10 17 59 64 hhcurveto
          26 9 -10 -30 hvcurveto
          hintmask 1110110100000000
          71 callgsubr
          -423 600 4 callsubr
        </CharString>
        <CharString name="f_i">
          -31 74 callsubr
          219 49 callsubr
          hstemhm
          85 50 callgsubr
          hintmask 1110101000000000
          490 hmoveto
          -78 callsubr
          hintmask 1101100100000000
          32 callgsubr
          hintmask 1110100010000000
          54 5 -27 -44 35 callsubr
          -57 55 -148 -148 -92 -60 -173 -17 hvcurveto
          8 callgsubr
          -9 -116 -9 -128 0 vvcurveto
          -85 25 -17 45 callsubr
          hintmask 1110101000000000
          121 hlineto
          hintmask 1110110000000000
          67 callgsubr
          endchar
        </CharString>
        <CharString name="f_l">
          6 12 -21 355 135 139 134 hstemhm
          67 30 callsubr
          hintmask 1111001000000000
          469 -9 rmoveto
          92 24 61 60 hvcurveto
          hintmask 1111000100000000
          17 -60 -26 81 vvcurveto
          hintmask 1110100010000000
          69 callsubr
          -165 -82 -56 -177 -18 vhcurveto
          8 callgsubr
          hintmask 1111000100000000
          -65 callsubr
          10 17 59 64 hhcurveto
          26 9 -10 -30 hvcurveto
          hintmask 1111010000000000
          71 callgsubr
          endchar
        </CharString>
        <CharString name="five">
          -47 -10 156 194 106 124 140 hstemhm
          353 171 vstemhm
          240 -10 rmoveto
          201 83 136 125 115 -71 80 -116 -43 -38 -11 -17 -18 hvcurveto
          21 152 rlineto
          181 hlineto
          -69 callgsubr
          -382 hlineto
          -9 -7 -5 -10 -1 hvcurveto
          -8 -56 -29 -212 -63 vvcurveto
          -50 18 -27 77 vhcurveto
          55 hlineto
          8 4 5 11 3 hvcurveto
          28 9 21 9 24 hhcurveto
          50 16 -40 -40 -51 -27 -63 -80 -29 -49 8 38 -9 hvcurveto
          hintmask 11110000
          10 -3 -5 2 -10 hhcurveto
          -77 -44 -34 -54 -84 108 -42 112 hvcurveto
          endchar
        </CharString>
        <CharString name="fiveeighths">
          130 35 callgsubr
          67 62 callgsubr
          59 245 -97 97 125 63 callgsubr
          hintmask 0111110110011000
          158 -106 callgsubr
          539 124 -63 callsubr
          hintmask 1011110110101000
          48 callgsubr
          hintmask 1011110110011000
          -50 callgsubr
          hintmask 1011110110101000
          -47 callgsubr
          hintmask 1011110101011000
          5 callgsubr
          -424 135 rmoveto
          103 47 56 66 61 -39 27 -58 -36 -15 -7 -10 -10 hvcurveto
          9 58 rlineto
          112 hlineto
          22 11 9 21 1 hvcurveto
          2 37 rlineto
          4 -4 2 -4 vhcurveto
          -212 hlineto
          hintmask 1011110110101000
          -10 -14 -118 -38 -22 7 -12 36 hvcurveto
          35 hlineto
          hintmask 1011101101101000
          7 3 23 21 hhcurveto
          30 9 -19 -14 -26 -24 -23 -38 hvcurveto
          hintmask 1011110110101000
          -41 -2 26 -10 hhcurveto
          -35 -19 -18 -24 -41 58 -18 58 hvcurveto
          endchar
        </CharString>
        <CharString name="fiveinferior">
          -299 -10 62 callgsubr
          26 245 -97 97 hintmask 11010100
          121 -10 -45 callsubr
        </CharString>
        <CharString name="fivesuperior">
          -299 386 62 callgsubr
          54 245 -97 97 hintmask 11010100
          149 386 -45 callsubr
        </CharString>
        <CharString name="florin">
          -61 -44 callsubr
          160 381 135 54 219 49 callsubr
          hstemhm
          408 146 hintmask 10101100
          342 1 callsubr
          71 8 15 68 57 hhcurveto
          35 1 -27 -44 1 hvcurveto
          hintmask 10110100
          -12 6 -2 20 74 46 28 66 70 -50 55 -136 -143 -74 -61 -172 -19 vhcurveto
          -5 -40 -56 -3 -6 -34 -3 -33 rlinecurve
          -3 -29 0 -17 -6 vvcurveto
          -10 3 -3 8 vhcurveto
          46 hlineto
          -272 -20 9 -144 -47 hhcurveto
          hintmask 01110100
          -22 -8 35 -6 hhcurveto
          -22 -92 -6 -64 -62 88 -28 77 90 75 38 172 17 hvcurveto
          6 58 10 153 9 120 rrcurveto
          endchar
        </CharString>
        <CharString name="four">
          -9 21 -21 192 138 380 -20 hstem
          116 161 95 176 vstem
          339 192 rmoveto
          -4 -68 -1 -29 -10 vvcurveto
          -54 31 -31 73 vhcurveto
          55 hlineto
          -68 callsubr
          3 28 36 480 92 vvcurveto
          61 -16 34 -85 vhcurveto
          -55 hlineto
          -22 7 -7 -93 -5 hvcurveto
          -2 -40 -12 -146 -8 -94 rrcurveto
          -134 hlineto
          45 177 16 66 49 vvcurveto
          63 -24 25 -76 vhcurveto
          -45 hlineto
          -15 -1 -25 -16 -53 -14 -54 -26 -94 hvcurveto
          -39 -140 -17 -46 -31 vvcurveto
          -43 34 -16 52 vhcurveto
          endchar
        </CharString>
        <CharString name="fourinferior">
          -281 0 159 -72 233 hstemhm
          hintmask 01000000
          166 87 -40 callgsubr
        </CharString>
        <CharString name="foursuperior">
          -281 390 159 -72 233 hstemhm
          hintmask 01000000
          193 477 -40 callgsubr
        </CharString>
        <CharString name="fraction">
          -473 8 -21 723 -20 hstem
          -139 -106 callgsubr
          endchar
        </CharString>
        <CharString name="g">
          -32 callgsubr
          62 callsubr
          hintmask 10110110
          18 callsubr
          hintmask 01101110
          -81 callgsubr
          hintmask 10110110
          -77 callsubr
          endchar
        </CharString>
        <CharString name="gbreve">
          -32 callgsubr
          55 86 -86 145 62 callsubr
          hintmask 1011010110000000
          18 callsubr
          hintmask 0110110110000000
          -81 callgsubr
          hintmask 1011001110000000
          -77 callsubr
          45 442 -53 callsubr
          hintmask 1011010110000000
          -1 callgsubr
          hintmask 1011001110000000
          -79 callsubr
        </CharString>
        <CharString name="gcircumflex">
          -32 callgsubr
          279 -20 62 callsubr
          hintmask 10110111
          18 callsubr
          hintmask 01101111
          -81 callgsubr
          hintmask 10110111
          -77 callsubr
          179 452 -103 callsubr
        </CharString>
        <CharString name="gcommaaccent">
          -32 callgsubr
          55 91 -91 160 hstemhm
          33 176 59 112 9 171 hintmask 1011010111000000
          340 696 rmoveto
          17 32 16 4 vvcurveto
          hintmask 1011001111000000
          16 -4 16 -26 -44 -30 -50 -54 -31 10 -25 43 37 22 18 34 vhcurveto
          hintmask 1011010111000000
          22 -9 17 -31 vhcurveto
          28 -578 rmoveto
          -120 -31 -68 -88 vhcurveto
          hintmask 0110110111000000
          -81 callgsubr
          hintmask 1011010111000000
          -77 callsubr
          endchar
        </CharString>
        <CharString name="gdotaccent">
          -32 callgsubr
          55 150 hstemhm
          33 176 55 189 -64 171 hintmask 1011011100000000
          18 callsubr
          hintmask 0110111010000000
          -81 callgsubr
          hintmask 1011011010000000
          -77 callsubr
          hintmask 1011011100000000
          -20 506 rmoveto
          -90 callgsubr
        </CharString>
        <CharString name="germandbls">
          26 0 113 -113 150 -139 -21 630 135 hstemhm
          39 158 104 155 -54 54 -54 157 -113 162 hintmask 1001101000000000
          559 642 rmoveto
          70 -57 43 -130 -190 -65 -93 -172 -38 vhcurveto
          -27 -124 -13 -165 -86 vvcurveto
          -109 21 -6 74 vhcurveto
          41 -47 callsubr
          8 124 13 197 14 91 rrcurveto
          78 12 28 110 81 hhcurveto
          28 21 -13 -21 hvcurveto
          hintmask 1001110000000000
          -48 -101 -55 -102 vvcurveto
          hintmask 1001100010000000
          -119 145 -10 -85 vvcurveto
          -38 -30 -16 -33 vhcurveto
          hintmask 0101110000000000
          -50 -25 37 -26 hhcurveto
          -21 -10 -28 -62 hvcurveto
          hintmask 0011100010000000
          -27 69 -43 88 127 73 91 110 vhcurveto
          hintmask 1001110000000000
          158 -152 -8 69 vvcurveto
          hintmask 1001100100000000
          56 103 82 94 vvcurveto
          endchar
        </CharString>
        <CharString name="grave">
          -397 615 214 hstem
          144 615 -79 callgsubr
        </CharString>
        <CharString name="grave.cap">
          -386 780 180 hstem
          0 222 vstem
          222 843 -56 callsubr
        </CharString>
        <CharString name="greater">
          -177 137 -21 458 -20 hstem
          277 345 rmoveto
          -100 -39 -46 -18 -39 -22 rrcurveto
          -37 -21 -17 -18 -98 vvcurveto
          -8 3 -5 9 45 244 133 33 44 vhcurveto
          13 10 6 7 1 19 4 61 rcurveline
          8 0 7 -8 10 vhcurveto
          34 -29 -204 136 -52 hhcurveto
          -40 -7 -85 -24 -1 hvcurveto
          -10 3 -6 7 -4 vhcurveto
          182 -89 -82 40 101 -51 rrcurveto
          endchar
        </CharString>
        <CharString name="guillemotleft">
          51 67 -21 458 -20 hstem
          114 275 rmoveto
          -67 callsubr
          300 hmoveto
          -67 callsubr
          endchar
        </CharString>
        <CharString name="guillemotright">
          59 67 -21 458 -20 hstem
          241 275 rmoveto
          -66 callgsubr
          307 hmoveto
          -66 callgsubr
          endchar
        </CharString>
        <CharString name="guilsinglleft">
          -249 67 -21 458 -20 hstem
          114 275 rmoveto
          -67 callsubr
          endchar
        </CharString>
        <CharString name="guilsinglright">
          -248 67 -21 458 -20 hstem
          241 275 rmoveto
          -66 callgsubr
          endchar
        </CharString>
        <CharString name="h">
          0 22 callgsubr
          180 26 callgsubr
          123 -13 callsubr
          hintmask 11110010
          -33 callgsubr
          hintmask 11101001
          -25 callsubr
          hintmask 11100110
          7 88 5 70 24 -72 callsubr
          hintmask 11110001
          -24 -427 -20 -129 -60 -51 callsubr
          endchar
        </CharString>
        <CharString name="hbar">
          0 22 callgsubr
          5 107 68 -20 hstemhm
          40 179 -144 161 -161 246 50 -13 callsubr
          hintmask 1111100100000000
          -33 callgsubr
          hintmask 1111010010000000
          -25 callsubr
          2 34 3 32 2 27 rrcurveto
          hintmask 1111001100000000
          70 8 38 55 9 -8 5 -8 hvcurveto
          -58 hlineto
          37 -6 -28 31 -69 hhcurveto
          -91 callsubr
          -1 -14 -1 -12 -13 vvcurveto
          -72 -1 0 -50 -45 vvcurveto
          -68 callgsubr
          54 hlineto
          hintmask 1111100010000000
          -20 -312 -15 -106 -52 -51 callsubr
          endchar
        </CharString>
        <CharString name="hcircumflex">
          0 22 callgsubr
          180 -20 244 26 callgsubr
          123 -13 callsubr
          hintmask 1111100100000000
          -33 callgsubr
          hintmask 1111010010000000
          -25 callsubr
          hintmask 1111001100000000
          7 88 5 70 24 -72 callsubr
          hintmask 1111100010000000
          -24 -427 -20 -129 -60 -51 callsubr
          -21 656 -105 callgsubr
        </CharString>
        <CharString name="hdotbelow">
          0 -2 callsubr
          480 134 180 26 callgsubr
          -49 157 15 -13 callsubr
          hintmask 1111000100000000
          -33 callgsubr
          hintmask 1110100010000000
          -25 callsubr
          hintmask 1110010100000000
          7 88 5 70 24 -72 callsubr
          hintmask 1111000010000000
          -24 -427 -20 -129 -60 -51 callsubr
          hintmask 1110001100000000
          -174 -254 -95 callsubr
        </CharString>
        <CharString name="hungarumlaut">
          -94 74 callgsubr
          61 615 -57 callsubr
        </CharString>
        <CharString name="hungarumlaut.cap">
          -91 780 184 hstem
          46 780 -45 callgsubr
        </CharString>
        <CharString name="hyphen">
          -146 209 135 hstem
          331 209 rmoveto
          -100 callgsubr
          54 -25 callgsubr
          -272 -72 callgsubr
          endchar
        </CharString>
        <CharString name="i">
          5 callsubr
          54 150 -4 callgsubr
          -162 190 hintmask 11101000
          180 hmoveto
          -78 callsubr
          hintmask 11100100
          23 287 9 113 39 vvcurveto
          57 -20 34 -82 vhcurveto
          -91 callsubr
          hintmask 11110000
          -88 callsubr
          -71 668 48 callsubr
          hintmask 11100010
          1 callgsubr
        </CharString>
        <CharString name="iacute">
          5 callsubr
          279 -20 hstemhm
          42 -34 callgsubr
          hintmask 11101000
          180 hmoveto
          -78 callsubr
          -82 callsubr
          hintmask 11110000
          60 callgsubr
          615 -21 callsubr
          endchar
        </CharString>
        <CharString name="ibreve">
          5 callsubr
          55 86 -86 145 -4 callgsubr
          hintmask 11100100
          180 hmoveto
          -78 callsubr
          hintmask 11100010
          -82 callsubr
          hintmask 11011000
          60 callgsubr
          605 -53 callsubr
          hintmask 11101000
          -1 callgsubr
          hintmask 11011000
          -79 callsubr
        </CharString>
        <CharString name="icircumflex">
          5 callsubr
          279 -20 -4 callgsubr
          hintmask 11101000
          180 hmoveto
          -78 callsubr
          hintmask 11100100
          -82 callsubr
          hintmask 11110000
          -88 callsubr
          116 615 -103 callsubr
        </CharString>
        <CharString name="idieresis">
          5 callsubr
          69 136 hstemhm
          -19 158 -97 -34 callgsubr
          -130 162 -25 158 hintmask 11100101
          180 hmoveto
          -78 callsubr
          hintmask 11100010
          -82 callsubr
          hintmask 11101001
          -88 callsubr
          hintmask 11110001
          -163 677 rmoveto
          -104 callsubr
        </CharString>
        <CharString name="idotbelow">
          -327 -2 callsubr
          625 -21 54 150 hstemhm
          19 157 49 callsubr
          -104 130 -130 162 -162 190 hintmask 11100100
          180 hmoveto
          -78 callsubr
          hintmask 11100010
          -82 callsubr
          hintmask 11101000
          -88 callsubr
          hintmask 11110000
          -125 -130 rmoveto
          -38 23 -18 43 59 32 32 43 35 -20 22 -47 -55 -35 -29 -47 vhcurveto
          54 798 48 callsubr
          hintmask 11100001
          1 callgsubr
        </CharString>
        <CharString name="igrave">
          5 callsubr
          65 214 hstemhm
          72 130 -130 162 hintmask 11110000
          180 hmoveto
          -78 callsubr
          hintmask 11101000
          -82 callsubr
          60 callgsubr
          615 -79 callgsubr
        </CharString>
        <CharString name="ij">
          -41 -44 callsubr
          160 606 -21 54 150 -4 callgsubr
          -162 190 -123 63 131 12 callsubr
          hintmask 1011010001000000
          180 hmoveto
          -78 callsubr
          hintmask 1011001001000000
          -82 callsubr
          hintmask 1011100001000000
          -88 callsubr
          -71 668 48 callsubr
          hintmask 1011000101000000
          70 38 37 49 39 -25 25 -57 -65 -42 -33 -53 hvcurveto
          260 -547 -6 callsubr
          hintmask 0111000011000000
          -63 callgsubr
          hintmask 1011100000100000
          -71 callgsubr
          hintmask 1011100001000000
          hintmask 1011100000010000
          -10 133 rmoveto
          -90 callgsubr
        </CharString>
        <CharString name="imacron">
          5 callsubr
          68 107 -4 callgsubr
          hintmask 11101000
          180 hmoveto
          -78 callsubr
          hintmask 11100100
          -82 callsubr
          hintmask 11110000
          -88 callsubr
          129 618 -62 callgsubr
          -72 -1 -49 -47 -18 callsubr
          endchar
        </CharString>
        <CharString name="iogonek">
          -327 -174 -21 766 -21 54 150 hstemhm
          -21 24 callgsubr
          -115 -34 callgsubr
          -130 162 -162 190 hintmask 1110001000000000
          180 hmoveto
          -78 callsubr
          hintmask 1110000100000000
          -82 callsubr
          hintmask 1110010000000000
          -21 -294 -9 -91 -41 vvcurveto
          -41 9 -29 30 -14 vhcurveto
          hintmask 1110100000000000
          -73 -48 -29 -45 -43 -42 callgsubr
          hintmask 1111000000000000
          18 callgsubr
          -69 668 48 callsubr
          hintmask 1110000010000000
          1 callgsubr
        </CharString>
        <CharString name="itilde">
          5 callsubr
          55 115 -50 110 -4 callgsubr
          hintmask 11100100
          180 hmoveto
          -78 callsubr
          hintmask 11100010
          -82 callsubr
          hintmask 11101000
          -88 callsubr
          118 720 -52 callsubr
        </CharString>
        <CharString name="j">
          -329 -44 callsubr
          160 606 -21 54 150 hstemhm
          45 157 -144 176 -173 189 hintmask 10111000
          45 121 -6 callsubr
          hintmask 01111000
          -63 callgsubr
          hintmask 10110100
          -48 callgsubr
          -3 -3 hvcurveto
          -2 -2 -1 -4 -6 vvcurveto
          hintmask 10111000
          hintmask 10110010
          -10 133 rmoveto
          -90 callgsubr
        </CharString>
        <CharString name="jcircumflex">
          -329 -44 callsubr
          160 606 -21 279 -20 hstemhm
          45 157 -144 176 hintmask 10111000
          45 121 -6 callsubr
          hintmask 01111000
          -63 callgsubr
          hintmask 10110100
          -71 callgsubr
          hintmask 10111000
          185 80 -103 callsubr
        </CharString>
        <CharString name="k">
          -69 11 -21 590 37 callgsubr
          hintmask 11100100
          516 -17 callgsubr
          -160 -146 rlineto
          hintmask 11100010
          17 callgsubr
          hintmask 11110000
          -33 -534 -11 -30 -49 vvcurveto
          -64 19 -34 83 -55 callsubr
          hintmask 11101000
          40 callsubr
          endchar
        </CharString>
        <CharString name="kcommaaccent">
          -69 -19 callgsubr
          620 37 callgsubr
          -48 112 hintmask 1011001000000000
          516 -17 callgsubr
          -160 -146 rlineto
          hintmask 1011000100000000
          17 callgsubr
          hintmask 1011100000000000
          -33 -534 -11 -30 -49 vvcurveto
          -64 19 -34 83 -55 callsubr
          hintmask 0111010000000000
          40 callsubr
          -276 -212 -13 callgsubr
          hintmask 1011000010000000
          -82 callgsubr
          hintmask 0111100000000000
          -21 callgsubr
        </CharString>
        <CharString name="kgreenlandic">
          -70 11 -21 569 -20 32 -21 hstemhm
          39 160 -128 164 hintmask 11001000
          515 -17 callgsubr
          -117 -106 -24 -23 -18 -15 rrcurveto
          2 28 2 21 13 vvcurveto
          hintmask 10101000
          46 -22 41 -82 vhcurveto
          -39 hlineto
          -19 -1 0 -29 -1 hvcurveto
          hintmask 11010000
          -10 -199 -22 -175 -49 vvcurveto
          -64 19 -34 83 -55 callsubr
          4 69 6 71 6 64 rrcurveto
          -133 71 70 -101 71 hhcurveto
          61 27 77 14 hvcurveto
          endchar
        </CharString>
        <CharString name="l">
          -306 12 -21 749 12 callgsubr
          hintmask 11010000
          19 callsubr
          hintmask 11001000
          64 callsubr
          hintmask 11000100
          76 34 322 79 -72 callsubr
          hintmask 11100000
          -16 callgsubr
          endchar
        </CharString>
        <CharString name="lacute">
          -306 12 -21 749 -20 60 184 hstemhm
          41 172 -130 130 hintmask 11101000
          19 callsubr
          14 -60 -17 68 76 34 322 79 -72 callsubr
          hintmask 11110000
          -16 callgsubr
          7 789 0 callsubr
          endchar
        </CharString>
        <CharString name="lcaron">
          -254 12 -21 530 229 -129 129 -10 12 callgsubr
          38 150 hintmask 1010100010000000
          337 61 callgsubr
          hintmask 1100100010000000
          -7 callsubr
          vhcurveto
          hintmask 1010010010000000
          -30 14 -23 38 vhcurveto
          -180 -630 rmoveto
          93 23 62 59 hvcurveto
          hintmask 1100001010000000
          64 callsubr
          hintmask 1001000110000000
          76 34 322 79 -72 callsubr
          hintmask 1100100010000000
          -16 callgsubr
          endchar
        </CharString>
        <CharString name="lcommaaccent">
          -306 -19 callgsubr
          780 59 callgsubr
          -164 190 hintmask 10100010
          19 callsubr
          hintmask 10101000
          64 callsubr
          hintmask 10100100
          76 34 322 79 -72 callsubr
          hintmask 01110000
          -16 callgsubr
          -26 -122 -13 callgsubr
          hintmask 10110000
          -82 callgsubr
          hintmask 01110000
          -21 callgsubr
        </CharString>
        <CharString name="ldot">
          -183 12 -21 327 132 290 12 callgsubr
          29 157 hintmask 11101001
          19 callsubr
          hintmask 11100101
          64 callsubr
          hintmask 11100011
          76 34 322 79 -72 callsubr
          hintmask 11110001
          -16 callgsubr
          119 383 -95 callsubr
        </CharString>
        <CharString name="less">
          -179 137 -21 458 -20 hstem
          158 345 rmoveto
          100 39 46 18 39 22 rrcurveto
          37 21 17 18 98 vvcurveto
          8 -3 5 -9 -45 -244 -133 -33 -44 vhcurveto
          -13 -10 -6 -7 -1 -19 -4 -61 rcurveline
          -8 0 -7 8 -10 vhcurveto
          -34 29 204 -136 52 hhcurveto
          40 7 85 24 1 hvcurveto
          10 -3 6 -7 4 vhcurveto
          -182 89 82 -40 -101 51 rrcurveto
          endchar
        </CharString>
        <CharString name="logicalnot">
          5 71 -21 159 135 hstem
          414 130 vstem
          507 50 rmoveto
          25 3 2 18 1 hvcurveto
          17 260 -25 callgsubr
          -426 -72 callgsubr
          372 hlineto
          -2 -37 -3 -36 -19 vvcurveto
          -52 22 -15 71 vhcurveto
          endchar
        </CharString>
        <CharString name="lslash">
          -208 12 -21 749 -20 hstemhm
          96 172 -172 232 -218 158 -130 164 hintmask 11010000
          212 -9 rmoveto
          93 23 62 59 hvcurveto
          hintmask 11001000
          64 callsubr
          39 5 71 7 77 vhcurveto
          72 25 38 callgsubr
          -27 -9 -17 -48 hvcurveto
          hintmask 11000100
          4 56 4 51 35 vvcurveto
          45 -24 41 -80 vhcurveto
          -39 hlineto
          -18 49 callgsubr
          hvcurveto
          -6 -105 -6 -86 -5 -69 -60 -21 rcurveline
          72 callsubr
          hintmask 11001000
          1 14 4 20 55 hvcurveto
          hintmask 11100000
          -8 -102 -6 -43 -26 vvcurveto
          -101 34 -41 82 vhcurveto
          endchar
        </CharString>
        <CharString name="m">
          294 16 callgsubr
          hstemhm
          41 160 -130 143 138 162 -141 153 139 -13 callsubr
          hintmask 1100101100000000
          214 180 rmoveto
          132 9 28 114 71 hhcurveto
          40 11 -32 -34 hvcurveto
          hintmask 1101010100000000
          -46 -21 -173 -53 vvcurveto
          -56 19 -32 84 vhcurveto
          32 hlineto
          23 2 2 29 2 hvcurveto
          hintmask 1101001010000000
          5 79 4 51 3 41 rrcurveto
          127 9 31 97 69 hhcurveto
          40 11 -32 -34 hvcurveto
          hintmask 1101010100000000
          -25 -21 -193 -54 vvcurveto
          -56 19 -32 84 vhcurveto
          32 hlineto
          23 2 2 29 2 hvcurveto
          hintmask 1101010010000000
          9 136 18 170 82 vvcurveto
          110 -71 31 -84 -75 -44 -25 -78 -42 vhcurveto
          79 -15 -64 24 -72 hhcurveto
          -66 -48 -20 -72 -39 hvcurveto
          hintmask 1010110100000000
          43 -3 -21 39 -79 hhcurveto
          -91 callsubr
          hintmask 1101010100000000
          -70 callsubr
          hintmask 1100110100000000
          3 41 6 58 4 61 rrcurveto
          endchar
        </CharString>
        <CharString name="macron">
          -227 618 107 hstem
          293 618 -62 callgsubr
          -72 -1 -49 -47 -18 callsubr
          endchar
        </CharString>
        <CharString name="macron.cap">
          -247 800 107 hstem
          283 800 -62 callgsubr
          -73 0 -51 -45 -18 callsubr
          endchar
        </CharString>
        <CharString name="minus">
          -64 276 122 hstem
          410 276 -34 callsubr
          endchar
        </CharString>
        <CharString name="mu">
          -8 63 callsubr
          134 426 -20 hstemhm
          33 160 -141 141 hintmask 11101000
          240 -57 callgsubr
        </CharString>
        <CharString name="multiply">
          -111 124 -21 447 -20 hstem
          84 103 rmoveto
          4 4 2 5 6 hvcurveto
          50 43 45 37 38 33 58 -91 rcurveline
          -24 15 23 -5 15 hhcurveto
          25 58 35 24 8 -20 33 -70 108 hvcurveto
          59 49 33 28 15 15 rrcurveto
          20 20 14 20 22 vvcurveto
          21 -36 64 -20 -5 -5 -5 -10 -12 vhcurveto
          -134 -115 -20 32 -22 32 -25 40 rlinecurve
          23 -15 -21 3 -15 hhcurveto
          -39 -44 -49 -8 -5 6 -11 4 -7 hvcurveto
          88 -137 -54 -44 -29 -25 -14 -14 rlinecurve
          -22 -22 -14 -21 -23 vvcurveto
          -23 34 -58 22 vhcurveto
          endchar
        </CharString>
        <CharString name="n">
          20 callgsubr
          -27 callsubr
          hintmask 11010100
          -50 callsubr
          hintmask 11010010
          -55 callgsubr
          hintmask 10101100
          44 -3 -21 40 -80 hhcurveto
          -91 callsubr
          hintmask 11010010
          -85 callsubr
          hintmask 11010100
          24 callsubr
          endchar
        </CharString>
        <CharString name="nacute">
          20 callgsubr
          279 -20 -27 callsubr
          hintmask 11011010
          -50 callsubr
          hintmask 11011001
          -55 callgsubr
          hintmask 10110110
          44 -3 -21 40 -80 hhcurveto
          -91 callsubr
          hintmask 11011001
          -85 callsubr
          hintmask 11011010
          24 callsubr
          -30 527 rmoveto
          31 155 127 27 23 -81 37 -31 hvcurveto
          hintmask 11011001
          -12 -3 -3 -12 -8 hvcurveto
          -42 -62 -60 -84 -5 vvcurveto
          -17 33 -31 18 vhcurveto
          endchar
        </CharString>
        <CharString name="napostrophe">
          20 callgsubr
          162 140 4 callgsubr
          -113 167 53 callsubr
          127 -13 callsubr
          hintmask 1101100010000000
          -50 callsubr
          hintmask 1101100001000000
          -55 callgsubr
          hintmask 1011010010000000
          44 -3 -21 40 -80 hhcurveto
          -91 callsubr
          hintmask 1101100001000000
          -85 callsubr
          hintmask 1101001010000000
          24 callsubr
          -230 624 40 callgsubr
          hintmask 1101000110000000
          73 callsubr
        </CharString>
        <CharString name="ncaron">
          20 callgsubr
          65 204 -27 callsubr
          hintmask 11011010
          -50 callsubr
          hintmask 11011001
          -55 callgsubr
          hintmask 10110110
          44 -3 -21 40 -80 hhcurveto
          -91 callsubr
          hintmask 11011001
          -85 callsubr
          hintmask 11011010
          24 callsubr
          -148 731 -96 callsubr
        </CharString>
        <CharString name="ncommaaccent">
          11 -19 callgsubr
          466 134 11 -21 4 callgsubr
          35 112 34 -13 callsubr
          hintmask 1010101100000000
          -50 callsubr
          hintmask 1010101010000000
          -55 callgsubr
          hintmask 1001011100000000
          44 -3 -21 40 -80 hhcurveto
          -91 callsubr
          hintmask 1010101010000000
          -85 callsubr
          hintmask 0110101100000000
          24 callsubr
          -106 -219 -13 callgsubr
          hintmask 1010101100000000
          -82 callgsubr
          hintmask 0110101100000000
          -21 callgsubr
        </CharString>
        <CharString name="ndotaccent">
          20 callgsubr
          55 150 4 callgsubr
          58 189 -66 -13 callsubr
          hintmask 1101100100000000
          -50 callsubr
          hintmask 1101100010000000
          -55 callgsubr
          hintmask 1011011000000000
          44 -3 -21 40 -80 hhcurveto
          -91 callsubr
          hintmask 1101100010000000
          -85 callsubr
          hintmask 1101100100000000
          24 callsubr
          hintmask 1101101000000000
          -123 581 rmoveto
          -90 callgsubr
        </CharString>
        <CharString name="nine">
          0 -10 155 -155 213 62 120 180 156 hstemhm
          47 186 159 180 hintmask 10111100
          229 145 rmoveto
          -36 -7 10 36 -6 hvcurveto
          hintmask 01111100
          11 -2 0 1 -15 hhcurveto
          -78 -44 -30 -64 -68 49 -51 129 258 95 202 233 156 -43 140 -201 -185 -96 -119 -146 -143 93 -48 88 108 41 73 13 11 hvcurveto
          3 -4 1 -4 -11 vvcurveto
          hintmask 10111100
          -66 -38 -121 -125 vhcurveto
          67 240 rmoveto
          -44 -19 28 40 38 18 74 65 40 26 -29 -46 -39 -18 -66 -68 hvcurveto
          endchar
        </CharString>
        <CharString name="nineinferior">
          -283 -10 75 -75 96 23 59 76 75 hstemhm
          19 104 61 106 hintmask 10111100
          122 65 -37 callgsubr
        </CharString>
        <CharString name="ninesuperior">
          -283 391 75 -75 96 23 59 76 75 hstemhm
          47 104 61 106 hintmask 10111100
          150 466 -37 callgsubr
        </CharString>
        <CharString name="ntilde">
          20 callgsubr
          55 115 -50 110 -27 callsubr
          hintmask 1101010100000000
          -50 callsubr
          hintmask 1101010010000000
          -55 callgsubr
          hintmask 1011001100000000
          44 -3 -21 40 -80 hhcurveto
          -91 callsubr
          hintmask 1101010010000000
          -85 callsubr
          hintmask 1101010100000000
          24 callsubr
          67 632 rmoveto
          hintmask 1100110100000000
          -60 callsubr
          hintmask 1101010100000000
          -10 callsubr
          hintmask 1100110100000000
          -10 callgsubr
          hintmask 1101010100000000
          -60 callgsubr
          hintmask 1100110100000000
          -9 callgsubr
          hintmask 1101010100000000
          -30 callsubr
        </CharString>
        <CharString name="numbersign">
          82 21 -21 180 111 118 111 190 -20 hstem
          470 hmoveto
          14 6 7 13 2 hvcurveto
          20 160 rlineto
          47 hlineto
          60 16 27 40 4 hvcurveto
          3 30 -25 callgsubr
          -100 hlineto
          15 118 rlineto
          50 hlineto
          60 16 27 40 4 hvcurveto
          3 30 -25 callgsubr
          -104 23 callsubr
          -119 23 callsubr
          -42 hlineto
          -58 -20 -42 -58 -18 callsubr
          96 hlineto
          -6 -43 -5 -39 -4 -36 rrcurveto
          -46 hlineto
          -58 -20 -48 -52 -18 callsubr
          99 hlineto
          -9 -85 rlineto
          -61 14 -34 84 14 6 7 13 2 vhcurveto
          20 160 rlineto
          119 hlineto
          -9 -85 rlineto
          -61 14 -34 84 vhcurveto
          -179 409 rmoveto
          119 hlineto
          -6 -43 -5 -39 -4 -36 rrcurveto
          -119 hlineto
          endchar
        </CharString>
        <CharString name="o">
          -10 -33 callsubr
          hstem
          6 callgsubr
          vstem
          -102 callgsubr
          endchar
        </CharString>
        <CharString name="oacute">
          -10 -33 callsubr
          269 -20 hstem
          6 callgsubr
          vstem
          -102 callgsubr
          27 188 -21 callsubr
          endchar
        </CharString>
        <CharString name="obreve">
          -10 -33 callsubr
          45 -1 callsubr
          6 callgsubr
          hintmask 11011100
          -102 callgsubr
          27 178 -53 callsubr
          hintmask 11101100
          -1 callgsubr
          hintmask 11011100
          -79 callsubr
        </CharString>
        <CharString name="ocircumflex">
          -10 -33 callsubr
          269 -20 hstem
          6 callgsubr
          vstem
          -102 callgsubr
          146 188 -103 callsubr
        </CharString>
        <CharString name="odieresis">
          -10 -33 callsubr
          59 136 80 callsubr
          -49 43 callgsubr
          -142 170 hintmask 11110010
          -102 callgsubr
          hintmask 11101100
          -162 250 rmoveto
          -104 callsubr
        </CharString>
        <CharString name="odotbelow">
          -10 -2 callsubr
          44 -41 callsubr
          80 callsubr
          -22 157 60 170 hintmask 11110100
          -102 callgsubr
          hintmask 11101100
          -135 -557 -95 callsubr
        </CharString>
        <CharString name="oe">
          285 -10 125 -125 -24 callsubr
          80 callsubr
          504 171 hintmask 01111100
          265 -10 rmoveto
          84 76 32 45 36 hvcurveto
          -49 40 68 -28 63 hhcurveto
          90 107 31 78 60 -63 11 -13 hvcurveto
          hintmask 10111100
          -28 1 -55 -70 hhcurveto
          -68 -22 51 51 -5 hvcurveto
          57 256 6 186 83 -52 68 -130 -92 -66 -29 -40 -42 hvcurveto
          46 -39 -40 23 -92 hhcurveto
          -218 -74 -159 -162 -138 53 -111 183 hvcurveto
          47 437 rmoveto
          59 23 -41 -66 -62 -20 -135 -94 -52 -29 40 88 57 12 119 101 hvcurveto
          340 hmoveto
          34 17 -25 -27 -49 -57 -28 -82 -1 hvcurveto
          57 7 22 73 59 hhcurveto
          endchar
        </CharString>
        <CharString name="ogonek">
          -406 -174 -21 225 -20 hstemhm
          10 24 callgsubr
          hintmask 11010000
          143 30 rmoveto
          -96 -55 -37 -52 -48 -42 callgsubr
          hintmask 11100000
          29 callsubr
          28 21 31 35 33 vhcurveto
          endchar
        </CharString>
        <CharString name="ograve">
          -10 -33 callsubr
          55 214 hstem
          6 callgsubr
          vstem
          -102 callgsubr
          27 188 -79 callgsubr
        </CharString>
        <CharString name="ohungarumlaut">
          -10 -33 callsubr
          269 -20 hstem
          6 callgsubr
          vstem
          -102 callgsubr
          -104 188 -57 callsubr
        </CharString>
        <CharString name="omacron">
          -10 -33 callsubr
          58 107 hstem
          6 callgsubr
          vstem
          -102 callgsubr
          130 191 -62 callgsubr
          -72 -1 -49 -47 -18 callsubr
          endchar
        </CharString>
        <CharString name="one">
          -223 -23 callgsubr
          hstem
          152 184 vstem
          117 676 rmoveto
          -85 -52 -6 -5 -13 vvcurveto
          -35 27 -59 51 16 18 6 16 14 vhcurveto
          -15 -192 -17 -186 -56 vvcurveto
          -69 24 -31 80 vhcurveto
          55 hlineto
          -68 callsubr
          3 28 38 527 56 vvcurveto
          49 -30 35 -73 vhcurveto
          -60 hlineto
          -2 -32 -21 -13 -22 hvcurveto
          endchar
        </CharString>
        <CharString name="oneeighth">
          76 35 callgsubr
          391 -20 hstemhm
          49 160 164 63 callgsubr
          hintmask 0111110110000000
          -95 callgsubr
          551 -583 -63 callsubr
          hintmask 1011111010000000
          48 callgsubr
          hintmask 1011110110000000
          -50 callgsubr
          hintmask 1011111010000000
          -47 callgsubr
          hintmask 1011110110000000
          5 callgsubr
          endchar
        </CharString>
        <CharString name="onehalf">
          86 0 78 -70 -21 199 134 -82 82 390 -20 hstemhm
          49 160 342 103 hintmask 01101110
          -95 callgsubr
          564 -459 2 callgsubr
          hintmask 10011110
          28 -23 52 48 hhcurveto
          24 8 -11 -16 hvcurveto
          -52 -172 -57 -27 -46 callgsubr
          57 80 vvcurveto
          endchar
        </CharString>
        <CharString name="oneinferior">
          -394 21 -21 320 -20 hstem
          8 160 vstem
          49 304 rmoveto
          -36 -25 -5 -2 -5 vvcurveto
          -22 12 -34 23 8 8 2 8 6 vhcurveto
          -8 -80 -6 -78 -23 vvcurveto
          -31 10 -14 36 vhcurveto
          45 hlineto
          5 2 2 5 hvcurveto
          13 19 237 25 vvcurveto
          22 -14 16 -33 vhcurveto
          -47 hlineto
          -2 -1 -13 -8 -10 -7 rrcurveto
          endchar
        </CharString>
        <CharString name="onequarter">
          94 0 159 -151 -21 100 233 390 -20 hstemhm
          49 160 hintmask 01111000
          -95 callgsubr
          456 -607 rmoveto
          -2 -31 -1 -13 -5 vvcurveto
          hintmask 10011000
          -16 callsubr
          hintmask 01111000
          10 callgsubr
          hintmask 10011000
          14 callgsubr
          hintmask 01111000
          -11 callgsubr
          endchar
        </CharString>
        <CharString name="onesuperior">
          -394 411 -21 320 -20 hstem
          35 160 vstem
          76 694 rmoveto
          -36 -25 -5 -2 -5 vvcurveto
          -22 12 -34 23 8 8 2 8 6 vhcurveto
          -8 -80 -6 -78 -23 vvcurveto
          -31 10 -14 36 vhcurveto
          45 hlineto
          5 2 2 5 hvcurveto
          13 19 237 25 vvcurveto
          22 -14 16 -33 vhcurveto
          -47 hlineto
          -2 -1 -13 -8 -10 -7 rrcurveto
          endchar
        </CharString>
        <CharString name="onethird">
          79 71 callsubr
          391 -20 hstemhm
          49 160 338 95 hintmask 00111111
          -95 callgsubr
          428 -447 -76 callsubr
          hintmask 10011111
          -3 callsubr
          hintmask 01011111
          -92 callgsubr
          endchar
        </CharString>
        <CharString name="oogonek">
          -8 -174 -21 186 132 304 133 hstemhm
          30 170 -60 24 callgsubr
          77 170 hintmask 11110010
          565 326 rmoveto
          148 -67 86 -168 -229 -71 -159 -161 -126 43 -102 143 -19 vhcurveto
          hintmask 11100110
          -54 -41 -22 -40 73 callgsubr
          hintmask 11101010
          29 callsubr
          20 11 22 18 22 vhcurveto
          225 16 45 198 121 vvcurveto
          -252 101 rmoveto
          59 23 -41 -66 -62 -20 -135 -94 hvcurveto
          hintmask 11110010
          -52 -29 40 88 57 12 119 101 hvcurveto
          endchar
        </CharString>
        <CharString name="ordfeminine">
          -214 386 77 66 58 6 123 -82 82 hstemhm
          45 116 81 102 -102 132 hintmask 11101010
          45 464 rmoveto
          -58 44 -20 51 50 28 20 22 18 vhcurveto
          -27 7 18 -15 35 hhcurveto
          60 18 45 23 hvcurveto
          hintmask 11101100
          29 -30 -26 42 19 6 76 23 vvcurveto
          61 -41 38 -92 -95 -47 -41 -42 -29 22 -11 46 vhcurveto
          hintmask 11011100
          43 -23 41 48 hhcurveto
          21 10 -10 -17 hvcurveto
          -20 vlineto
          -129 -3 -68 -48 -72 vvcurveto
          190 65 rmoveto
          -44 -2 -23 -22 -25 hhcurveto
          -13 -11 6 17 31 36 12 38 hvcurveto
          endchar
        </CharString>
        <CharString name="ordmasculine">
          -214 386 87 155 87 hstem
          49 114 101 115 vstem
          196 386 rmoveto
          152 31 121 73 86 -42 49 -105 -140 -43 -92 -93 -80 33 -64 114 hvcurveto
          27 242 rmoveto
          30 11 -24 -38 -29 -10 -64 -49 -27 -15 24 50 26 6 55 54 hvcurveto
          endchar
        </CharString>
        <CharString name="oslash">
          79 callsubr
          74 -70 callgsubr
          endchar
        </CharString>
        <CharString name="oslashacute">
          79 callsubr
          269 -70 callgsubr
          -10 183 -21 callsubr
          endchar
        </CharString>
        <CharString name="otilde">
          -10 -33 callsubr
          45 -18 callgsubr
          6 callgsubr
          hintmask 11101100
          -102 callgsubr
          124 293 -22 callgsubr
        </CharString>
        <CharString name="p">
          4 63 callsubr
          -41 callsubr
          11 -21 hstemhm
          74 141 181 180 hintmask 11101100
          387 560 rmoveto
          -72 -47 -25 -61 -31 hvcurveto
          hintmask 11011100
          41 -32 35 -71 vhcurveto
          -91 callsubr
          -6 -76 -39 -494 -41 58 callsubr
          82 -55 callsubr
          16 185 -8 -86 13 144 rrcurveto
          -55 23 37 -33 70 hhcurveto
          133 103 121 208 hvcurveto
          hintmask 11101100
          166 -65 75 -124 vhcurveto
          -73 -133 rmoveto
          68 14 -63 -67 -119 -44 -55 -57 -65 -15 71 69 101 32 63 67 hvcurveto
          endchar
        </CharString>
        <CharString name="paragraph">
          -20 21 -21 712 -20 28 -20 hstemhm
          258 107 -93 93 33 107 hintmask 11010100
          532 712 rmoveto
          hintmask 10101100
          -82 -94 8 -92 hhcurveto
          -145 -79 -89 -137 -111 52 -81 134 15 17 1 3 14 hvcurveto
          hintmask 10110100
          -5 -84 -9 -84 -45 vvcurveto
          -59 15 -34 55 19 4 4 16 1 vhcurveto
          26 354 rlineto
          8 107 13 131 21 vvcurveto
          38 hlineto
          -5 -84 -34 -411 -45 vvcurveto
          -59 15 -34 55 19 4 4 16 1 vhcurveto
          26 354 rlineto
          8 107 18 198 21 vvcurveto
          hintmask 11010100
          10 -4 2 -8 vhcurveto
          endchar
        </CharString>
        <CharString name="parenleft">
          -198 -186 156 12 -20 606 168 53 callsubr
          hstemhm
          30 167 hintmask 10011000
          324 581 rmoveto
          hintmask 10101000
          27 27 -13 12 hhcurveto
          18 20 96 13 39 -19 20 -75 -182 -122 -204 -343 -269 73 -106 124 85 19 57 66 hvcurveto
          hintmask 01101000
          35 -7 10 -10 vhcurveto
          hintmask 10011000
          -11 -20 -12 -21 hhcurveto
          -48 -17 63 146 249 49 153 78 hvcurveto
          endchar
        </CharString>
        <CharString name="parenright">
          -189 -186 155 -155 168 598 156 hstemhm
          207 177 hintmask 10110000
          80 -31 rmoveto
          hintmask 01110000
          -27 -27 13 -12 hhcurveto
          -18 -20 -96 -13 -39 19 -20 75 182 132 204 343 269 -83 106 -124 -85 -19 -58 -65 -35 7 -10 10 hvcurveto
          11 20 12 21 hhcurveto
          48 17 -63 -146 hvcurveto
          hintmask 10110000
          -249 -49 -153 -78 vhcurveto
          endchar
        </CharString>
        <CharString name="percent">
          173 55 callsubr
          43 104 92 104 101 104 92 104 hintmask 0111011111000000
          179 -106 callgsubr
          hintmask 1011101111000000
          35 733 -87 callsubr
          411 -316 -87 callsubr
          endchar
        </CharString>
        <CharString name="period">
          -357 -10 188 hstem
          22 176 vstem
          120 178 rmoveto
          41 callsubr
        </CharString>
        <CharString name="periodcentered">
          -348 179 188 hstem
          39 176 vstem
          137 367 rmoveto
          41 callsubr
        </CharString>
        <CharString name="perthousand">
          532 55 callsubr
          44 104 92 104 101 104 92 104 59 104 92 104 hintmask 0111011111110000
          180 -106 callgsubr
          hintmask 1011101111110000
          35 733 -87 callsubr
          411 -316 -87 callsubr
          369 85 -87 callsubr
          endchar
        </CharString>
        <CharString name="plus">
          -127 124 -21 173 122 173 -20 hstemhm
          165 129 -103 125 hintmask 11101000
          266 103 rmoveto
          -78 callsubr
          12 153 rlineto
          79 hlineto
          -97 callsubr
          3 41 -25 callgsubr
          -131 hlineto
          4 45 1 18 19 vvcurveto
          57 -20 34 -82 -20 49 callgsubr
          vhcurveto
          -4 -59 -4 -47 -3 -38 rrcurveto
          -80 45 callgsubr
          133 hlineto
          hintmask 11110000
          -4 -44 -1 -14 -20 58 callsubr
          81 vhcurveto
          endchar
        </CharString>
        <CharString name="plusminus">
          -95 0 122 215 122 173 -20 hstemhm
          189 129 -103 125 hintmask 11101000
          290 164 rmoveto
          -78 callsubr
          12 153 rlineto
          79 hlineto
          -97 callsubr
          3 41 -25 callgsubr
          -131 hlineto
          4 45 1 18 19 vvcurveto
          57 -20 34 -82 -20 49 callgsubr
          vhcurveto
          -4 -59 -4 -47 -3 -38 rrcurveto
          -80 45 callgsubr
          133 hlineto
          hintmask 11110000
          -4 -44 -1 -14 -20 58 callsubr
          81 vhcurveto
          78 -164 -34 callsubr
          endchar
        </CharString>
        <CharString name="q">
          1 -169 -21 180 -41 callsubr
          11 -21 hstemhm
          32 176 147 164 -152 152 -131 131 -131 176 hintmask 1110101000000000
          276 560 rmoveto
          -155 -89 -111 -214 -175 71 -70 109 76 48 34 54 31 hvcurveto
          hintmask 1110110000000000
          -7 -88 -5 -71 -22 vvcurveto
          -47 24 -40 80 vhcurveto
          39 hlineto
          14 6 8 21 1 hvcurveto
          hintmask 1101100010000000
          30 489 15 100 36 vvcurveto
          55 -36 31 -68 vhcurveto
          -45 hlineto
          -17 -2 -63 -13 hvcurveto
          hintmask 1110100100000000
          49 -12 -43 37 -65 hhcurveto
          36 -133 52 callsubr
          -50 -25 37 92 58 10 117 94 hvcurveto
          endchar
        </CharString>
        <CharString name="question">
          -80 -10 188 440 133 hstem
          137 176 32 173 vstem
          235 39 callsubr
          75 90 rmoveto
          45 95 163 68 142 vvcurveto
          94 -64 84 -151 -129 -130 -54 -126 -60 31 -28 81 24 2 3 15 3 vhcurveto
          53 10 13 64 71 hhcurveto
          47 19 -33 -32 hvcurveto
          -90 -169 -65 -93 vvcurveto
          -32 21 -25 52 vhcurveto
          36 hlineto
          10 6 2 18 9 hvcurveto
          endchar
        </CharString>
        <CharString name="questiondown">
          -83 -196 133 440 188 hstem
          3 173 32 176 vstem
          286 39 callgsubr
          -75 -90 rmoveto
          -45 -95 -163 -68 -142 vvcurveto
          -112 69 -66 146 129 130 47 133 60 -31 28 -81 -24 -2 -3 -15 -3 vhcurveto
          -53 -10 -13 -64 -71 hhcurveto
          -47 -19 33 32 hvcurveto
          90 169 65 93 vvcurveto
          32 -21 25 -52 vhcurveto
          -36 hlineto
          -12 -4 -1 -19 -9 hvcurveto
          endchar
        </CharString>
        <CharString name="quotedbl">
          -192 475 -21 286 -20 hstem
          76 130 65 130 vstem
          156 454 rmoveto
          -38 callgsubr
          245 hmoveto
          -38 callgsubr
          endchar
        </CharString>
        <CharString name="quotedblbase">
          -143 -127 69 callgsubr
          7 -4 callsubr
          34 -4 callsubr
          hintmask 11100001
          291 -10 -39 callgsubr
        </CharString>
        <CharString name="quotedblleft">
          -145 41 callgsubr
          34 118 -118 171 -171 184 hintmask 11100100
          171 612 rmoveto
          hintmask 11001100
          9 callsubr
          hintmask 11010100
          66 callgsubr
          218 hmoveto
          hintmask 11100001
          9 callsubr
          hintmask 11100010
          66 callgsubr
          endchar
        </CharString>
        <CharString name="quotedblright">
          -143 465 69 callgsubr
          54 -4 callsubr
          34 -4 callsubr
          hintmask 11100001
          338 582 -39 callgsubr
        </CharString>
        <CharString name="quoteleft">
          -363 41 callgsubr
          hintmask 11100000
          171 612 rmoveto
          hintmask 11001000
          9 callsubr
          hintmask 11010000
          65 31 49 52 hvcurveto
          hintmask 11100000
          43 -22 24 -31 vhcurveto
          endchar
        </CharString>
        <CharString name="quoteright">
          -361 465 69 callgsubr
          54 -4 callsubr
          hintmask 11001000
          120 582 rmoveto
          hintmask 11100000
          -43 callgsubr
          hintmask 11010000
          -65 -31 -49 -52 hvcurveto
          hintmask 11001000
          -43 22 -24 31 vhcurveto
          endchar
        </CharString>
        <CharString name="quotesinglbase">
          -361 -127 69 callgsubr
          7 -4 callsubr
          hintmask 11001000
          73 -10 rmoveto
          hintmask 11100000
          -43 callgsubr
          hintmask 11010000
          -65 -31 -49 -52 hvcurveto
          hintmask 11001000
          -43 22 -24 31 vhcurveto
          endchar
        </CharString>
        <CharString name="quotesingle">
          -387 475 -21 286 -20 hstem
          76 130 vstem
          156 454 rmoveto
          -38 callgsubr
          endchar
        </CharString>
        <CharString name="r">
          -129 21 -21 311 249 -139 139 11 -21 72 callgsubr
          hintmask 10101010
          -35 callgsubr
          hintmask 10010110
          -15 callgsubr
          hintmask 10101010
          -88 callsubr
          36 hlineto
          11 11 7 13 23 13 147 6 85 hvcurveto
          -26 callgsubr
          hintmask 11001010
          -10 30 -3 15 vhcurveto
          endchar
        </CharString>
        <CharString name="racute">
          -129 21 -21 311 27 callgsubr
          279 -20 -49 callgsubr
          -91 304 -21 callsubr
          endchar
        </CharString>
        <CharString name="rcaron">
          -129 21 -21 311 27 callgsubr
          65 204 -49 callgsubr
          -195 508 -96 callsubr
        </CharString>
        <CharString name="rcommaaccent">
          -129 -19 callgsubr
          351 77 callsubr
          138 -108 108 -108 149 100 158 hintmask 1001010010000000
          -35 callgsubr
          hintmask 1000101010000000
          -15 callgsubr
          hintmask 1010010010000000
          -88 callsubr
          36 hlineto
          11 11 7 13 hvcurveto
          hintmask 1001000110000000
          23 13 147 6 85 vhcurveto
          -26 callgsubr
          hintmask 0110010010000000
          -10 30 -3 15 vhcurveto
          -256 -442 -13 callgsubr
          hintmask 1010010010000000
          -82 callgsubr
          hintmask 0110010010000000
          -21 callgsubr
        </CharString>
        <CharString name="rdotbelow">
          -129 -2 callsubr
          365 77 callsubr
          152 -122 149 100 158 hintmask 10101010
          -35 callgsubr
          hintmask 10010110
          -15 callgsubr
          hintmask 11001010
          -88 callsubr
          36 hlineto
          11 11 7 13 hvcurveto
          hintmask 10100110
          23 13 147 6 85 vhcurveto
          -26 callgsubr
          hintmask 11001010
          -10 30 -3 15 vhcurveto
          -327 -441 -95 callsubr
        </CharString>
        <CharString name="registered">
          195 -10 96 72 205 101 83 79 95 hstem
          38 101 130 96 90 97 116 101 vstem
          377 86 -30 callgsubr
          -98 -558 rmoveto
          13 -2 25 104 7 hvcurveto
          -2 9 10 -2 12 hhcurveto
          -70 16 22 -60 45 hhcurveto
          41 33 30 9 7 -8 12 -17 24 hvcurveto
          -45 64 rlineto
          48 23 21 46 55 vvcurveto
          71 -43 48 -92 vhcurveto
          -29 -48 -6 -37 hhcurveto
          -15 -8 -20 -157 -11 hvcurveto
          -5 -69 -5 -65 -20 vvcurveto
          -31 21 -16 41 vhcurveto
          86 301 rmoveto
          35 13 -13 -30 -22 -8 -36 -45 -10 -11 2 3 -11 hvcurveto
          2 38 3 30 25 vvcurveto
          2 12 12 1 8 hhcurveto
          endchar
        </CharString>
        <CharString name="ring">
          -405 605 48 54 49 hstemhm
          10 67 -67 183 hintmask 11010000
          107 756 -74 callgsubr
          hvcurveto
          hintmask 11100000
          23 callgsubr
        </CharString>
        <CharString name="ring.cap">
          -425 780 48 54 49 hstemhm
          0 67 -67 183 hintmask 11010000
          97 931 -74 callgsubr
          hvcurveto
          hintmask 11100000
          23 callgsubr
        </CharString>
        <CharString name="s">
          10 callsubr
          hstemhm
          45 143 76 -3 callgsubr
          hintmask 10111000
          274 -64 callgsubr
          hintmask 01110100
          -69 callsubr
          hintmask 10110010
          -38 callsubr
          endchar
        </CharString>
        <CharString name="sacute">
          10 callsubr
          80 callgsubr
          45 143 76 162 -118 118 hintmask 10111100
          274 -64 callgsubr
          hintmask 01111010
          -69 callsubr
          hintmask 10111100
          -38 callsubr
          11 55 -21 callsubr
          endchar
        </CharString>
        <CharString name="scaron">
          10 callsubr
          55 204 hstemhm
          45 143 76 -3 callgsubr
          hintmask 10111100
          274 -64 callgsubr
          hintmask 01111010
          -69 callsubr
          hintmask 10111001
          -38 callsubr
          -86 259 -96 callsubr
        </CharString>
        <CharString name="schwa">
          -75 -10 133 119 80 58 180 -125 125 hstemhm
          14 157 157 171 hintmask 11101100
          14 141 rmoveto
          -84 49 -67 138 259 39 234 101 183 -128 52 -116 -84 -102 -31 -78 -60 63 -11 13 vhcurveto
          hintmask 11011100
          25 -1 55 63 hhcurveto
          74 20 -63 -50 2 hvcurveto
          -46 -2 -138 -9 -83 -23 rrcurveto
          -20 -20 -27 -64 -63 vvcurveto
          211 -18 rmoveto
          -34 -20 22 35 13 3 21 8 11 hvcurveto
          25 5 63 9 51 3 rrcurveto
          -56 -11 -26 -63 -59 hhcurveto
          endchar
        </CharString>
        <CharString name="scircumflex">
          10 callsubr
          80 callgsubr
          45 143 76 -3 callgsubr
          hintmask 10111100
          274 -64 callgsubr
          hintmask 01111010
          -69 callsubr
          hintmask 10111001
          -38 callsubr
          124 55 -103 callsubr
        </CharString>
        <CharString name="sdotbelow">
          -138 -2 callsubr
          44 123 -123 160 282 128 hstemhm
          45 143 -75 157 -6 -3 callgsubr
          hintmask 1101101000000000
          274 -64 callgsubr
          hintmask 1011100100000000
          -69 callsubr
          hintmask 1101010010000000
          -38 callsubr
          -161 -690 -95 callsubr
        </CharString>
        <CharString name="section">
          -92 -110 123 -123 160 461 75 callgsubr
          41 130 -84 143 39 162 -94 140 -118 118 -118 131 hintmask 1001011000000000
          326 720 rmoveto
          -113 -126 -53 -137 -51 17 -33 25 -23 hvcurveto
          hintmask 1010101000000000
          -52 -30 -36 -50 -73 -185 228 49 -85 vvcurveto
          -31 -29 -5 -33 vhcurveto
          hintmask 0110101000000000
          -91 -37 37 -31 hhcurveto
          -25 -8 -24 -65 -28 95 -43 113 141 67 68 95 60 -27 31 -32 22 hvcurveto
          hintmask 1001010010000000
          73 26 32 57 64 179 -247 -50 94 vvcurveto
          35 35 21 37 54 2 -44 -23 1 vhcurveto
          hintmask 1001100001000000
          -11 3 -3 21 69 38 32 58 69 -54 50 -110 vhcurveto
          -117 -341 rmoveto
          hintmask 1010100100000000
          49 -15 79 -26 -65 vvcurveto
          -30 -23 -32 -20 -10 vhcurveto
          -49 19 -74 20 67 vvcurveto
          30 20 32 18 10 vhcurveto
          endchar
        </CharString>
        <CharString name="semicolon">
          -325 63 callsubr
          188 108 188 hstemhm
          34 181 -158 176 -125 107 hintmask 11101000
          155 474 -32 callsubr
          hintmask 11100100
          -47 -484 31 callgsubr
          vhcurveto
          hintmask 11110000
          -67 -39 -38 -81 hvcurveto
          hintmask 11100100
          -39 20 -30 54 vhcurveto
          endchar
        </CharString>
        <CharString name="servicemark">
          127 390 72 -72 107 -89 -21 210 113 -68 68 5 -20 hstemhm
          69 78 33 87 47 85 206 94 hintmask 1001001111000000
          605 -40 callsubr
          39 hlineto
          8 0 14 callsubr
          23 59 40 130 14 43 rrcurveto
          hintmask 1000011111000000
          -414 85 rmoveto
          -58 -64 -29 -77 hvcurveto
          -105 111 21 -45 vvcurveto
          -13 -14 -5 -14 vhcurveto
          hintmask 0101001111000000
          -38 -16 35 -14 hhcurveto
          -14 -12 -17 -44 hvcurveto
          hintmask 0010101111000000
          -19 45 -30 60 70 34 41 53 vhcurveto
          102 -120 -17 49 vvcurveto
          16 16 11 16 vhcurveto
          hintmask 1001001111000000
          42 -29 -45 28 hhcurveto
          35 19 18 34 hvcurveto
          hintmask 1000011111000000
          39 -27 27 -56 vhcurveto
          endchar
        </CharString>
        <CharString name="seven">
          -116 21 -21 570 140 hstem
          211 15 rmoveto
          71 165 20 36 190 383 5 10 5 11 2 22 4 54 rcurveline
          -86 callgsubr
          -372 hlineto
          -62 -8 28 callsubr
          -11 0 -3 11 vhcurveto
          238 hlineto
          -10 -20 -1 -13 -149 -275 rrcurveto
          -73 -134 -20 -37 -27 vvcurveto
          -42 47 -22 66 vhcurveto
          36 hlineto
          11 6 6 9 4 hvcurveto
          endchar
        </CharString>
        <CharString name="seveneighths">
          54 35 callgsubr
          313 78 hstemhm
          353 63 callgsubr
          hintmask 01111011
          82 -106 callgsubr
          539 124 -63 callsubr
          hintmask 10111101
          48 callgsubr
          hintmask 10111011
          -50 callgsubr
          hintmask 10111101
          -47 callgsubr
          hintmask 10111011
          5 callgsubr
          -350 146 rmoveto
          14 34 11 26 101 193 3 5 2 4 1 10 2 34 rcurveline
          5 -4 2 -4 vhcurveto
          -187 hlineto
          -29 -2 -16 -16 -1 hvcurveto
          -2 -40 rlineto
          -5 0 -1 5 vhcurveto
          101 hlineto
          -30 -56 -78 -142 -16 vvcurveto
          -17 21 -11 30 vhcurveto
          36 hlineto
          5 3 3 4 2 hvcurveto
          endchar
        </CharString>
        <CharString name="seveninferior">
          -353 21 -21 242 78 hstem
          111 7 rmoveto
          14 34 11 26 101 193 3 5 2 4 1 10 2 34 rcurveline
          5 -4 2 -4 vhcurveto
          -187 hlineto
          -29 -2 -16 -16 -1 hvcurveto
          -2 -40 rlineto
          -5 0 -1 5 vhcurveto
          101 hlineto
          -30 -56 -78 -142 -16 vvcurveto
          -17 21 -11 30 vhcurveto
          36 hlineto
          5 3 3 4 2 hvcurveto
          endchar
        </CharString>
        <CharString name="sevensuperior">
          -354 411 -21 242 78 hstem
          138 397 rmoveto
          14 34 11 26 101 193 3 5 2 4 1 10 2 34 rcurveline
          5 -4 2 -4 vhcurveto
          -187 hlineto
          -29 -2 -16 -16 -1 hvcurveto
          -2 -40 rlineto
          -5 0 -1 5 vhcurveto
          101 hlineto
          -30 -56 -78 -142 -16 vvcurveto
          -17 21 -11 30 vhcurveto
          36 hlineto
          5 3 3 4 2 hvcurveto
          endchar
        </CharString>
        <CharString name="six">
          8 -10 156 190 120 52 213 53 callsubr
          hstemhm
          43 190 159 186 hintmask 11011100
          361 566 rmoveto
          58 16 -21 -25 hvcurveto
          hintmask 11101100
          -11 7 -1 10 78 44 31 62 69 -61 51 -141 -246 -83 -202 -230 -163 41 -136 196 195 103 124 151 143 -92 48 -90 -108 -43 -77 -9 -8 vhcurveto
          -3 4 -1 4 11 vvcurveto
          hintmask 11011100
          62 27 115 101 vhcurveto
          -36 -230 rmoveto
          49 18 -28 -38 -44 -24 -80 -75 -39 -21 29 45 44 22 72 70 hvcurveto
          endchar
        </CharString>
        <CharString name="sixinferior">
          -283 -10 75 76 59 23 96 -75 75 hstemhm
          13 106 61 104 hintmask 11011100
          181 244 -39 callsubr
        </CharString>
        <CharString name="sixsuperior">
          -283 391 75 76 59 23 96 -75 75 hstemhm
          41 106 61 104 hintmask 11011100
          209 645 -39 callsubr
        </CharString>
        <CharString name="slash">
          -279 11 -21 720 -20 hstem
          84 -10 rmoveto
          28 10 2 36 12 hvcurveto
          162 510 22 69 52 vvcurveto
          32 -8 19 -68 -16 -13 -1 -28 -9 vhcurveto
          -151 -474 -37 -115 -51 vvcurveto
          -48 32 -3 36 vhcurveto
          endchar
        </CharString>
        <CharString name="space">
          -393 endchar
        </CharString>
        <CharString name="sterling">
          -53 0 140 153 135 78 219 49 callsubr
          hstemhm
          123 157 118 146 hintmask 11011100
          412 hmoveto
          -102 callsubr
          9 -8 5 -8 vhcurveto
          -272 hlineto
          32 18 24 30 3 33 6 72 rcurveline
          87 hlineto
          -66 callsubr
          -140 hlineto
          74 5 5 89 70 hhcurveto
          34 3 -21 -50 1 hvcurveto
          hintmask 11101100
          -12 6 -2 20 73 47 28 67 69 -50 55 -136 -134 -89 -54 -173 -12 vhcurveto
          -5 -70 rlineto
          50 callsubr
          -68 -8 -108 -71 19 -2 -30 rlinecurve
          -6 -92 rlineto
          -9 1 -5 10 vhcurveto
          endchar
        </CharString>
        <CharString name="t">
          -209 -10 -28 callsubr
          hintmask 10110100
          -73 callsubr
          53 hlineto
          hintmask 01111000
          19 callgsubr
          28 callgsubr
          vhcurveto
          hintmask 10111000
          -20 callsubr
          endchar
        </CharString>
        <CharString name="tbar">
          -204 -10 138 -138 164 87 107 67 135 147 -20 hstemhm
          14 226 -170 170 hintmask 10111100
          297 241 rmoveto
          70 8 38 55 9 -8 5 -8 hvcurveto
          -107 hlineto
          7 67 rlineto
          53 hlineto
          -81 callsubr
          53 hlineto
          -5 -67 rlineto
          -73 -1 -49 -47 -18 callsubr
          54 hlineto
          hintmask 01111010
          -6 -60 -3 -31 -24 vvcurveto
          -91 45 -45 96 28 callgsubr
          vhcurveto
          hintmask 10111100
          -18 -11 -26 -30 hhcurveto
          -18 -8 9 34 14 1 25 2 31 hvcurveto
          endchar
        </CharString>
        <CharString name="tcaron">
          -124 -10 138 -138 164 261 135 -29 29 71 129 hstemhm
          67 170 -147 147 174 150 hintmask 10011101
          463 61 callgsubr
          -7 callsubr
          -30 14 -23 38 vhcurveto
          hintmask 10101011
          -154 -206 rmoveto
          -81 callsubr
          53 hlineto
          hintmask 01101101
          19 callgsubr
          28 callgsubr
          vhcurveto
          hintmask 10101101
          -20 callsubr
          endchar
        </CharString>
        <CharString name="tdotbelow">
          -209 -2 callsubr
          44 -28 callsubr
          -126 160 -160 230 hintmask 1101100100000000
          -73 callsubr
          hintmask 1101101000000000
          53 hlineto
          hintmask 1011110000000000
          19 callgsubr
          vhcurveto
          hintmask 1011100010000000
          28 callgsubr
          hvcurveto
          hintmask 1101110000000000
          -20 callsubr
          hintmask 1101100100000000
          -145 -545 -95 callsubr
        </CharString>
        <CharString name="thorn">
          3 63 callsubr
          53 callgsubr
          28 160 -103 164 146 180 hintmask 11111010
          28 -99 rmoveto
          -56 26 -30 76 -55 callsubr
          13 185 -6 -86 14 144 rrcurveto
          -55 23 37 -33 69 hhcurveto
          134 103 126 199 167 -72 78 -120 -71 -41 -28 -60 -34 hvcurveto
          hintmask 11110110
          51 callsubr
          -28 -5 -101 -22 -273 hvcurveto
          hintmask 11111010
          -14 -169 -16 -195 -44 vvcurveto
          367 396 rmoveto
          -119 -44 -55 -57 -65 -15 72 64 58 12 110 89 60 20 -50 -80 vhcurveto
          endchar
        </CharString>
        <CharString name="three">
          -43 75 callsubr
          214 107 116 88 206 -148 148 hstemhm
          334 186 -167 167 hintmask 10101010
          288 573 rmoveto
          45 20 -23 -42 -50 -28 -29 -44 -2 hvcurveto
          -90 -4 -59 -3 -14 -23 -4 -41 rlinecurve
          -3 -28 rlineto
          -10 6 -4 10 vhcurveto
          143 -6 rlineto
          hintmask 10110100
          30 -1 34 -21 -42 vvcurveto
          -32 -20 -66 -85 -26 -43 6 40 -10 vhcurveto
          hintmask 01110100
          10 -2 2 2 -19 hhcurveto
          -74 -47 -30 -64 -67 51 -53 137 237 85 152 109 63 -30 42 -60 29 hvcurveto
          67 42 25 51 66 vvcurveto
          88 -45 89 -171 -130 -98 -51 -78 -46 33 -31 77 14 0 1 11 4 vhcurveto
          hintmask 10101100
          36 15 38 10 29 hhcurveto
          endchar
        </CharString>
        <CharString name="threeeighths">
          120 35 callgsubr
          72 57 callgsubr
          -10 -20 hstemhm
          66 229 -95 95 124 63 callgsubr
          hintmask 0111101010101100
          148 -106 callgsubr
          539 124 -63 callsubr
          hintmask 1011101101010100
          48 callgsubr
          hintmask 1011101101001100
          -50 callgsubr
          hintmask 1011101101010100
          -47 callgsubr
          hintmask 1011101100101100
          5 callgsubr
          -397 397 -76 callsubr
          -3 callsubr
          hintmask 1011011101010100
          -92 callgsubr
          endchar
        </CharString>
        <CharString name="threeinferior">
          -310 -10 57 callgsubr
          hstemhm
          30 229 -95 95 hintmask 10110100
          135 247 -76 callsubr
          -3 callsubr
          hintmask 01111000
          -92 callgsubr
          endchar
        </CharString>
        <CharString name="threequarters">
          125 0 159 -151 -21 100 233 71 57 callgsubr
          -10 -20 hstemhm
          67 229 hintmask 0111010110000000
          135 -106 callgsubr
          444 100 rmoveto
          -2 -31 -1 -13 -5 vvcurveto
          hintmask 1001011010000000
          -16 callsubr
          hintmask 0111011010000000
          10 callgsubr
          hintmask 1001011010000000
          14 callgsubr
          hintmask 0111011010000000
          -11 callgsubr
          -282 561 -76 callsubr
          -3 callsubr
          hintmask 1000111010000000
          -92 callgsubr
          endchar
        </CharString>
        <CharString name="threesuperior">
          -311 391 57 callgsubr
          hstemhm
          57 229 -95 95 hintmask 10110100
          162 648 -76 callsubr
          -3 callsubr
          hintmask 01111000
          -92 callgsubr
          endchar
        </CharString>
        <CharString name="tilde">
          -158 605 -18 callgsubr
          hintmask 10000000
          313 720 -22 callsubr
        </CharString>
        <CharString name="tilde.cap">
          -178 780 -18 callgsubr
          hintmask 10000000
          303 895 -22 callsubr
        </CharString>
        <CharString name="trademark">
          162 411 -21 247 73 hstemhm
          135 99 -84 84 112 85 206 94 hintmask 11011100
          637 -40 callsubr
          40 hlineto
          6 1 14 callsubr
          28 57 35 132 14 43 rrcurveto
          -346 7 rmoveto
          26 6 12 18 2 hvcurveto
          3 36 rlineto
          5 -3 2 -4 vhcurveto
          -216 hlineto
          -22 -7 -16 -16 -1 hvcurveto
          -3 -35 rlineto
          -4 0 -2 5 vhcurveto
          73 hlineto
          hintmask 11101100
          -5 -74 -10 -108 -27 vvcurveto
          -24 13 -14 34 vhcurveto
          39 hlineto
          4 1 2 5 hvcurveto
          17 240 rlineto
          endchar
        </CharString>
        <CharString name="two">
          -29 0 140 433 148 hstem
          363 184 vstem
          547 533 rmoveto
          84 -47 104 -180 -124 -133 -53 -138 -70 36 -37 75 28 2 5 13 2 vhcurveto
          54 6 14 78 65 hhcurveto
          51 21 -27 -33 -124 -293 -163 -38 -70 hvcurveto
          -3 -5 -4 -11 -7 vvcurveto
          -60 vlineto
          -53 25 -20 67 vhcurveto
          328 hlineto
          11 callsubr
          62 49 230 151 193 vvcurveto
          endchar
        </CharString>
        <CharString name="twoinferior">
          -290 0 78 108 134 -82 82 hstemhm
          180 103 hintmask 11010000
          283 235 2 callgsubr
          hintmask 10110000
          28 -23 52 48 hhcurveto
          24 8 -11 -16 hvcurveto
          -52 -172 -57 -27 -46 callgsubr
          57 80 vvcurveto
          endchar
        </CharString>
        <CharString name="twosuperior">
          -290 395 78 113 134 -82 82 hstemhm
          208 103 hintmask 11010000
          311 635 2 callgsubr
          hintmask 10110000
          28 -23 52 48 hhcurveto
          24 8 -11 -16 -46 -150 -59 -19 -26 hvcurveto
          -1 -2 -2 -5 -3 -46 callgsubr
          62 80 vvcurveto
          endchar
        </CharString>
        <CharString name="twothirds">
          143 71 callsubr
          76 78 113 134 -82 82 -10 -20 hstemhm
          213 103 163 229 -95 95 hintmask 0011110011010000
          168 -106 callgsubr
          416 260 -76 callsubr
          hintmask 1001111001100000
          -3 callsubr
          hintmask 0101111001100000
          -92 callgsubr
          -268 388 2 callgsubr
          hintmask 1001110101100000
          28 -23 52 48 hhcurveto
          24 8 -11 -16 -46 -150 -59 -19 -26 hvcurveto
          -1 -2 -2 -5 -3 -46 callgsubr
          62 80 vvcurveto
          endchar
        </CharString>
        <CharString name="u">
          -8 -10 134 426 -20 hstem
          44 167 vstem
          -107 callgsubr
          endchar
        </CharString>
        <CharString name="uacute">
          21 callsubr
          279 -20 hstem
          44 167 vstem
          -107 callgsubr
          84 150 -21 callsubr
          endchar
        </CharString>
        <CharString name="ubreve">
          21 callsubr
          55 -1 callsubr
          44 167 hintmask 11011000
          -107 callgsubr
          84 140 -53 callsubr
          hintmask 11101000
          -1 callgsubr
          hintmask 11011000
          -79 callsubr
        </CharString>
        <CharString name="ucircumflex">
          21 callsubr
          279 -20 hstem
          44 167 vstem
          -107 callgsubr
          197 150 -103 callsubr
        </CharString>
        <CharString name="udieresis">
          21 callsubr
          56 136 hstemhm
          44 167 -83 158 70 167 hintmask 11110100
          -107 callgsubr
          hintmask 11101100
          -104 199 rmoveto
          -104 callsubr
        </CharString>
</ttFont>
